%TF.GenerationSoftware,KiCad,Pcbnew,10.0.1*%
%TF.CreationDate,2026-07-09T09:21:33-07:00*%
%TF.ProjectId,HB_Drive_V1,48425f44-7269-4766-955f-56312e6b6963,rev?*%
%TF.SameCoordinates,Original*%
%TF.FileFunction,Plated,1,2,PTH,Drill*%
%TF.FilePolarity,Positive*%
%FSLAX46Y46*%
G04 Gerber Fmt 4.6, Leading zero omitted, Abs format (unit mm)*
G04 Created by KiCad (PCBNEW 10.0.1) date 2026-07-09 09:21:33*
%MOMM*%
%LPD*%
G01*
G04 APERTURE LIST*
%TA.AperFunction,ViaDrill*%
%ADD10C,0.300000*%
%TD*%
%TA.AperFunction,ComponentDrill*%
%ADD11C,0.650000*%
%TD*%
%TA.AperFunction,ComponentDrill*%
%ADD12C,0.812800*%
%TD*%
%TA.AperFunction,ComponentDrill*%
%ADD13C,0.863600*%
%TD*%
%TA.AperFunction,ComponentDrill*%
%ADD14C,0.889000*%
%TD*%
%TA.AperFunction,ComponentDrill*%
%ADD15C,0.950000*%
%TD*%
%TA.AperFunction,ComponentDrill*%
%ADD16C,1.000000*%
%TD*%
%TA.AperFunction,ComponentDrill*%
%ADD17C,1.020000*%
%TD*%
%TA.AperFunction,ComponentDrill*%
%ADD18C,1.600000*%
%TD*%
%TA.AperFunction,ComponentDrill*%
%ADD19C,1.900000*%
%TD*%
G04 APERTURE END LIST*
D10*
X205638000Y-202946000D03*
X205638000Y-209576000D03*
X207822000Y-202932000D03*
X208824000Y-225718000D03*
X210312000Y-225718000D03*
X210566000Y-180500111D03*
X212090000Y-177292000D03*
X212090000Y-225718000D03*
X212598000Y-200914000D03*
X213614000Y-225718000D03*
X215024000Y-225718000D03*
X222504000Y-155448000D03*
X223266000Y-193200111D03*
X223266000Y-201751222D03*
X223266000Y-210302333D03*
X223266000Y-218853444D03*
X223266000Y-225044000D03*
X224028000Y-184649000D03*
X228346000Y-197104000D03*
X228411000Y-183896000D03*
X228411000Y-186436000D03*
X229743000Y-221488000D03*
X230069500Y-216433967D03*
X230111000Y-180848000D03*
X234442000Y-198361000D03*
X234442000Y-199911000D03*
X234483500Y-208052401D03*
X234950000Y-168135000D03*
X237112000Y-168656000D03*
X238519000Y-188214000D03*
X240538000Y-223266000D03*
X240981000Y-182626000D03*
X240981000Y-186436000D03*
X242062000Y-167386000D03*
X242062000Y-168656000D03*
X242570000Y-187452000D03*
X242583000Y-180848000D03*
X243586000Y-173101000D03*
X243967000Y-198501000D03*
X244348000Y-167386000D03*
X244348000Y-205486000D03*
X244348000Y-223266000D03*
X245491000Y-209931000D03*
X250317000Y-227838000D03*
X254254000Y-207010000D03*
X256286000Y-156718000D03*
X259378450Y-174707550D03*
X259930900Y-176108530D03*
X263906000Y-172377100D03*
X265837629Y-205579004D03*
X265837629Y-207129004D03*
X268212800Y-206121000D03*
X269012900Y-167832000D03*
X269240900Y-200406000D03*
X269804000Y-184088000D03*
X270090900Y-171007000D03*
X273021900Y-187452000D03*
X273162800Y-207391000D03*
X273320000Y-169102000D03*
X273503900Y-179832000D03*
X273962900Y-165292000D03*
X274320000Y-170942000D03*
X274754000Y-184088000D03*
X274754000Y-185358000D03*
X275764625Y-206121000D03*
X275767800Y-203219500D03*
X276440900Y-163563000D03*
X277202900Y-183491500D03*
X281686000Y-173736000D03*
X282702000Y-173136000D03*
X284607000Y-184023000D03*
X285467900Y-189738000D03*
X285750000Y-186690000D03*
X287232900Y-191275000D03*
X289264900Y-187960000D03*
X296418000Y-183134000D03*
X305466000Y-174402000D03*
X306578000Y-194056000D03*
X306578000Y-196342000D03*
X306578000Y-231625000D03*
X307296735Y-192488735D03*
X307340000Y-196596000D03*
X309221500Y-215457000D03*
X309626000Y-157480000D03*
X311404000Y-157480000D03*
X314198000Y-218966000D03*
X318490000Y-220918000D03*
X318516000Y-196850000D03*
X318619500Y-204903000D03*
X318619500Y-206453000D03*
X318723000Y-211774000D03*
X319532000Y-197866000D03*
X320040000Y-220918000D03*
X320613000Y-218251000D03*
X320932000Y-206186000D03*
X321310400Y-187923000D03*
X322766000Y-166116000D03*
X323088000Y-196596000D03*
X323342400Y-182692500D03*
X323445500Y-199582000D03*
X323850000Y-169418000D03*
X325563000Y-214441000D03*
X325563000Y-218251000D03*
X325882000Y-202376000D03*
X325882000Y-206186000D03*
X326657400Y-185740500D03*
X326885400Y-178374500D03*
X327716000Y-167386000D03*
X328142000Y-214314000D03*
X328292400Y-180152500D03*
X328292400Y-182692500D03*
X328292400Y-183962500D03*
X328422000Y-176530000D03*
X328435400Y-178374500D03*
X329692000Y-214314000D03*
X330262000Y-161785000D03*
X330708400Y-181780000D03*
X337566400Y-185105500D03*
X339103400Y-188280500D03*
X340868400Y-188267500D03*
X340868400Y-189817500D03*
X342516400Y-182565500D03*
X342516400Y-186375500D03*
X344170000Y-173482000D03*
X344424000Y-172720000D03*
X345313000Y-172085000D03*
X348742000Y-188214000D03*
X349631000Y-177038000D03*
X350520000Y-178435000D03*
X351282000Y-175514000D03*
X353314000Y-176022000D03*
X360934000Y-157734000D03*
X362214502Y-158104498D03*
X362712000Y-168910000D03*
X362839000Y-154940000D03*
X366776000Y-179451000D03*
X369316000Y-179454000D03*
X370586000Y-184404000D03*
X371054393Y-161947393D03*
X371856000Y-179454000D03*
X372364000Y-167513000D03*
X372364000Y-170688000D03*
X372519689Y-168995311D03*
X373126000Y-184404000D03*
X374142000Y-170561000D03*
X374269000Y-189103000D03*
X374396000Y-184404000D03*
X374650000Y-211328000D03*
X374650000Y-215138000D03*
X374702000Y-160401000D03*
X374772000Y-219283496D03*
X374772000Y-221823496D03*
X374772000Y-223093496D03*
X375031000Y-171958000D03*
X375666000Y-179454000D03*
X375666000Y-182779000D03*
X375793000Y-170561000D03*
X376109000Y-162052000D03*
X376806000Y-188722000D03*
X377317000Y-220599000D03*
X377444000Y-181102000D03*
X378714000Y-155321000D03*
X378714000Y-161277000D03*
X378714000Y-162827000D03*
X379092000Y-189979000D03*
X379222000Y-193294000D03*
X379222000Y-194183000D03*
X379349000Y-195580000D03*
X379600000Y-211328000D03*
X380212000Y-217170000D03*
X380809500Y-191706500D03*
X381317500Y-192468500D03*
X381571500Y-193611500D03*
X383640500Y-213463500D03*
X383640500Y-215138000D03*
X391668000Y-176784000D03*
X391796629Y-172616500D03*
X393446000Y-176784000D03*
X393674000Y-221488000D03*
X393700000Y-172225000D03*
X393790500Y-223266000D03*
X396176500Y-213550500D03*
X396303500Y-194881500D03*
X396494000Y-211709000D03*
X396621000Y-196469000D03*
X397891000Y-231267000D03*
X398018000Y-218186000D03*
X399415000Y-195707000D03*
X400304000Y-194691000D03*
X401561000Y-214843996D03*
X401561000Y-216393996D03*
X402971000Y-154813000D03*
X403723000Y-214094996D03*
X407162000Y-168148000D03*
X408673000Y-211554996D03*
X409375999Y-170688000D03*
X409375999Y-171958000D03*
X409629999Y-181610000D03*
X411226000Y-209776996D03*
X411289500Y-231203500D03*
X411531999Y-192532000D03*
X411607000Y-183388000D03*
X412359000Y-214094996D03*
X412359000Y-215364996D03*
X412750000Y-170180000D03*
X414325999Y-168148000D03*
X414579999Y-177800000D03*
X414579999Y-181610000D03*
X415036000Y-217142996D03*
X415353500Y-231584500D03*
X416687000Y-174371000D03*
X416865999Y-181483000D03*
X416941000Y-166230000D03*
X417309000Y-215364996D03*
X417322000Y-211554996D03*
X418084000Y-180594000D03*
X418719000Y-167894000D03*
X418847199Y-171958000D03*
X419608000Y-209776996D03*
X420219500Y-199390000D03*
X420624000Y-169164000D03*
X421106000Y-193040000D03*
X421678999Y-178308000D03*
X421821999Y-190611000D03*
X422044500Y-199390000D03*
X422425500Y-169164000D03*
X422656000Y-193040000D03*
X422656000Y-210312000D03*
X423280999Y-172085000D03*
X423280999Y-174625000D03*
X423926000Y-184531000D03*
X424929000Y-170307000D03*
X425069000Y-189992000D03*
X425346999Y-185521346D03*
X426479000Y-170307000D03*
X426720000Y-196088000D03*
X426771999Y-182880000D03*
X426771999Y-185420000D03*
X426771999Y-189230000D03*
X427882197Y-191180039D03*
X428230999Y-172085000D03*
X429641000Y-185420000D03*
X433324000Y-177673000D03*
X434467000Y-191185473D03*
X436372000Y-184658000D03*
X436499000Y-183642000D03*
X437887000Y-182626000D03*
X438201999Y-194805000D03*
X442201000Y-186436000D03*
X442265999Y-188188000D03*
X442265999Y-189738000D03*
X442459000Y-182626000D03*
X443751000Y-186436000D03*
X445586999Y-191528000D03*
X449377999Y-188433000D03*
D11*
%TO.C,J203*%
X292188900Y-185928000D03*
X293458900Y-185928000D03*
%TO.C,J303*%
X345948000Y-184850000D03*
X347218000Y-184850000D03*
D12*
%TO.C,U505*%
X231648000Y-197866000D03*
X231648000Y-200406000D03*
X231648000Y-205486000D03*
X231648000Y-208026000D03*
X231648000Y-210566000D03*
D13*
%TO.C,U502*%
X228558500Y-219989967D03*
X231098500Y-219989967D03*
X233638500Y-219989967D03*
D14*
%TO.C,R506*%
X236982000Y-176530000D03*
X239522000Y-176530000D03*
X242062000Y-176530000D03*
%TO.C,R203*%
X259676900Y-199323500D03*
%TO.C,R204*%
X259930900Y-180340000D03*
%TO.C,R203*%
X262216900Y-199323500D03*
%TO.C,R204*%
X262470900Y-180340000D03*
%TO.C,R203*%
X264756900Y-199323500D03*
%TO.C,R204*%
X265010900Y-180340000D03*
%TO.C,R208*%
X272122900Y-191516000D03*
X274662900Y-191516000D03*
X277202900Y-191516000D03*
%TO.C,R201*%
X277267629Y-210164004D03*
X279807629Y-210164004D03*
X282347629Y-210164004D03*
%TO.C,R212*%
X293370000Y-202946000D03*
X295910000Y-202946000D03*
X298450000Y-202946000D03*
%TO.C,R303*%
X311761500Y-198058000D03*
%TO.C,R306*%
X313690400Y-178562000D03*
%TO.C,R303*%
X314301500Y-198058000D03*
%TO.C,R306*%
X316230400Y-178562000D03*
%TO.C,R303*%
X316841500Y-198058000D03*
%TO.C,R306*%
X318770400Y-178562000D03*
%TO.C,R321*%
X325031500Y-189484000D03*
X327571500Y-189484000D03*
%TO.C,R301*%
X329946000Y-209742000D03*
%TO.C,R320*%
X330111100Y-220597500D03*
%TO.C,R321*%
X330111500Y-189484000D03*
%TO.C,R301*%
X332486000Y-209742000D03*
%TO.C,R320*%
X332651100Y-220597500D03*
%TO.C,R301*%
X335026000Y-209742000D03*
%TO.C,R320*%
X335191100Y-220597500D03*
%TO.C,R327*%
X346367100Y-202055500D03*
X348907100Y-202055500D03*
X351447100Y-202055500D03*
%TO.C,R1012*%
X369381000Y-202311000D03*
X371921000Y-202311000D03*
X374461000Y-202311000D03*
%TO.C,R405*%
X380746000Y-176530000D03*
%TO.C,R404*%
X380822200Y-170555000D03*
%TO.C,R405*%
X383286000Y-176530000D03*
%TO.C,R404*%
X383362200Y-170555000D03*
%TO.C,R405*%
X385826000Y-176530000D03*
%TO.C,R404*%
X385902200Y-170555000D03*
%TO.C,R1008*%
X401053000Y-221921996D03*
X403593000Y-221921996D03*
X406133000Y-221921996D03*
%TO.C,R701*%
X409411099Y-188147500D03*
X411951099Y-188147500D03*
%TO.C,R1003*%
X414007000Y-221968996D03*
%TO.C,R701*%
X414491099Y-188147500D03*
%TO.C,R1003*%
X416547000Y-221968996D03*
X419087000Y-221968996D03*
%TO.C,R1007*%
X426199000Y-221968996D03*
X428739000Y-221968996D03*
X431279000Y-221968996D03*
D15*
%TO.C,J503*%
X448666000Y-164124000D03*
X448666000Y-166624000D03*
X451866000Y-164124000D03*
X451866000Y-166624000D03*
D16*
%TO.C,J504*%
X207010000Y-179324000D03*
X207010000Y-181864000D03*
X207010000Y-184404000D03*
X207010000Y-186944000D03*
X207010000Y-189484000D03*
X207010000Y-192024000D03*
%TO.C,J202*%
X258660900Y-162052000D03*
X258660900Y-164592000D03*
X258660900Y-167132000D03*
X261200900Y-162052000D03*
X261200900Y-164592000D03*
X261200900Y-167132000D03*
%TO.C,J201*%
X280250900Y-199898000D03*
X280250900Y-202438000D03*
X282790900Y-199898000D03*
X282790900Y-202438000D03*
%TO.C,J304*%
X312736000Y-162052000D03*
X312736000Y-164592000D03*
X312736000Y-167132000D03*
X312736000Y-169672000D03*
X315276000Y-162052000D03*
X315276000Y-164592000D03*
X315276000Y-167132000D03*
X315276000Y-169672000D03*
%TO.C,J301*%
X333502000Y-198058000D03*
X333502000Y-200598000D03*
X333502000Y-203138000D03*
X336042000Y-198058000D03*
X336042000Y-200598000D03*
X336042000Y-203138000D03*
%TO.C,J801*%
X362712000Y-161798000D03*
X362712000Y-164338000D03*
X362712000Y-166878000D03*
X365252000Y-161798000D03*
X365252000Y-164338000D03*
X365252000Y-166878000D03*
%TO.C,J1001*%
X388353000Y-219860500D03*
X388353000Y-222400500D03*
X390893000Y-219860500D03*
X390893000Y-222400500D03*
%TO.C,J701*%
X431343999Y-187198000D03*
X431343999Y-189738000D03*
%TO.C,J702*%
X431343999Y-194338000D03*
X431343999Y-196878000D03*
%TO.C,J701*%
X433883999Y-187198000D03*
X433883999Y-189738000D03*
%TO.C,J702*%
X433883999Y-194338000D03*
X433883999Y-196878000D03*
D17*
%TO.C,J502*%
X207772000Y-160782000D03*
X207772000Y-173482000D03*
X214122000Y-167132000D03*
X220472000Y-160782000D03*
X220472000Y-173482000D03*
D18*
%TO.C,TP511*%
X225298000Y-161925000D03*
%TO.C,TP512*%
X225806000Y-173482000D03*
%TO.C,TP503*%
X232156000Y-173482000D03*
%TO.C,TP502*%
X233934000Y-189484000D03*
%TO.C,TP508*%
X238252000Y-196003189D03*
%TO.C,TP507*%
X238252000Y-200659892D03*
%TO.C,TP501*%
X238252000Y-205316595D03*
%TO.C,TP505*%
X238252000Y-209973298D03*
%TO.C,TP506*%
X238252000Y-214630000D03*
%TO.C,TP504*%
X246634000Y-173228000D03*
%TO.C,TP203*%
X280758900Y-160782000D03*
%TO.C,TP204*%
X280758900Y-165608000D03*
%TO.C,TP201*%
X281266900Y-176660000D03*
%TO.C,TP205*%
X286346900Y-176660000D03*
%TO.C,TP202*%
X291172900Y-176660000D03*
%TO.C,TP301*%
X314871100Y-208659500D03*
%TO.C,TP302*%
X333375000Y-160782000D03*
%TO.C,TP304*%
X333375000Y-165354000D03*
%TO.C,TP305*%
X335445500Y-176406000D03*
%TO.C,TP303*%
X340360000Y-222040004D03*
%TO.C,TP307*%
X340779500Y-176406000D03*
%TO.C,TP306*%
X346202000Y-176406000D03*
%TO.C,TP1001*%
X371602000Y-217678000D03*
%TO.C,TP401*%
X385064000Y-163830000D03*
%TO.C,TP1002*%
X394195000Y-216408000D03*
%TO.C,TP1004*%
X397764000Y-208280000D03*
%TO.C,TP701*%
X403098000Y-179578000D03*
%TO.C,TP704*%
X417119999Y-198120000D03*
%TO.C,TP708*%
X423164000Y-202565000D03*
%TO.C,TP702*%
X425801999Y-165354000D03*
%TO.C,TP1003*%
X430009000Y-216634996D03*
%TO.C,TP703*%
X431135999Y-165354000D03*
%TO.C,TP509*%
X440944000Y-163068000D03*
%TO.C,TP510*%
X440944000Y-168910000D03*
%TO.C,TP707*%
X451358000Y-182880000D03*
%TO.C,TP706*%
X451358000Y-194310000D03*
%TO.C,TP705*%
X451358000Y-200660000D03*
D19*
%TO.C,J503*%
X451156000Y-159374000D03*
X451156000Y-171374000D03*
M02*
