%TF.GenerationSoftware,KiCad,Pcbnew,10.0.1*%
%TF.CreationDate,2026-07-09T09:21:51-07:00*%
%TF.ProjectId,HB_Drive_V1,48425f44-7269-4766-955f-56312e6b6963,rev?*%
%TF.SameCoordinates,Original*%
%TF.FileFunction,Paste,Top*%
%TF.FilePolarity,Positive*%
%FSLAX46Y46*%
G04 Gerber Fmt 4.6, Leading zero omitted, Abs format (unit mm)*
G04 Created by KiCad (PCBNEW 10.0.1) date 2026-07-09 09:21:51*
%MOMM*%
%LPD*%
G01*
G04 APERTURE LIST*
G04 Aperture macros list*
%AMRoundRect*
0 Rectangle with rounded corners*
0 $1 Rounding radius*
0 $2 $3 $4 $5 $6 $7 $8 $9 X,Y pos of 4 corners*
0 Add a 4 corners polygon primitive as box body*
4,1,4,$2,$3,$4,$5,$6,$7,$8,$9,$2,$3,0*
0 Add four circle primitives for the rounded corners*
1,1,$1+$1,$2,$3*
1,1,$1+$1,$4,$5*
1,1,$1+$1,$6,$7*
1,1,$1+$1,$8,$9*
0 Add four rect primitives between the rounded corners*
20,1,$1+$1,$2,$3,$4,$5,0*
20,1,$1+$1,$4,$5,$6,$7,0*
20,1,$1+$1,$6,$7,$8,$9,0*
20,1,$1+$1,$8,$9,$2,$3,0*%
G04 Aperture macros list end*
%ADD10C,0.150000*%
%ADD11C,0.300000*%
%ADD12C,0.400000*%
%ADD13R,2.000000X2.000000*%
%ADD14RoundRect,0.237500X-0.237500X0.250000X-0.237500X-0.250000X0.237500X-0.250000X0.237500X0.250000X0*%
%ADD15RoundRect,0.237500X0.250000X0.237500X-0.250000X0.237500X-0.250000X-0.237500X0.250000X-0.237500X0*%
%ADD16RoundRect,0.225000X0.225000X0.250000X-0.225000X0.250000X-0.225000X-0.250000X0.225000X-0.250000X0*%
%ADD17R,1.422400X0.558800*%
%ADD18R,0.558800X1.422400*%
%ADD19RoundRect,0.087500X-0.087500X0.537500X-0.087500X-0.537500X0.087500X-0.537500X0.087500X0.537500X0*%
%ADD20RoundRect,0.150000X-0.825000X-0.150000X0.825000X-0.150000X0.825000X0.150000X-0.825000X0.150000X0*%
%ADD21RoundRect,0.375000X-0.625000X-0.375000X0.625000X-0.375000X0.625000X0.375000X-0.625000X0.375000X0*%
%ADD22RoundRect,0.500000X-0.500000X-1.400000X0.500000X-1.400000X0.500000X1.400000X-0.500000X1.400000X0*%
%ADD23RoundRect,0.225000X0.250000X-0.225000X0.250000X0.225000X-0.250000X0.225000X-0.250000X-0.225000X0*%
%ADD24RoundRect,0.225000X-0.250000X0.225000X-0.250000X-0.225000X0.250000X-0.225000X0.250000X0.225000X0*%
%ADD25RoundRect,0.225000X-0.225000X-0.250000X0.225000X-0.250000X0.225000X0.250000X-0.225000X0.250000X0*%
%ADD26RoundRect,0.237500X-0.250000X-0.237500X0.250000X-0.237500X0.250000X0.237500X-0.250000X0.237500X0*%
%ADD27RoundRect,0.237500X0.237500X-0.250000X0.237500X0.250000X-0.237500X0.250000X-0.237500X-0.250000X0*%
%ADD28RoundRect,0.250000X-0.325000X-0.450000X0.325000X-0.450000X0.325000X0.450000X-0.325000X0.450000X0*%
%ADD29RoundRect,0.087500X0.537500X0.087500X-0.537500X0.087500X-0.537500X-0.087500X0.537500X-0.087500X0*%
%ADD30RoundRect,0.250000X-0.450000X0.325000X-0.450000X-0.325000X0.450000X-0.325000X0.450000X0.325000X0*%
%ADD31RoundRect,0.237500X0.300000X0.237500X-0.300000X0.237500X-0.300000X-0.237500X0.300000X-0.237500X0*%
%ADD32RoundRect,0.237500X-0.300000X-0.237500X0.300000X-0.237500X0.300000X0.237500X-0.300000X0.237500X0*%
%ADD33RoundRect,0.150000X-0.150000X0.825000X-0.150000X-0.825000X0.150000X-0.825000X0.150000X0.825000X0*%
%ADD34R,0.889000X1.397000*%
%ADD35RoundRect,0.225000X-0.225000X-0.375000X0.225000X-0.375000X0.225000X0.375000X-0.225000X0.375000X0*%
%ADD36RoundRect,0.150000X0.825000X0.150000X-0.825000X0.150000X-0.825000X-0.150000X0.825000X-0.150000X0*%
%TA.AperFunction,Profile*%
%ADD37C,0.050000*%
%TD*%
G04 APERTURE END LIST*
D10*
X474004400Y-375989000D02*
X582004400Y-375989000D01*
X582004400Y-407989000D01*
X474004400Y-407989000D01*
X474004400Y-375989000D01*
X10000000Y-10000000D02*
X584004400Y-10000000D01*
X584004400Y-409989000D01*
X10000000Y-409989000D01*
X10000000Y-10000000D01*
X12000000Y-12000000D02*
X582004400Y-12000000D01*
X582004400Y-407989000D01*
X12000000Y-407989000D01*
X12000000Y-12000000D01*
X60000000Y-12000000D02*
X60000000Y-10000000D01*
X110000000Y-12000000D02*
X110000000Y-10000000D01*
X160000000Y-12000000D02*
X160000000Y-10000000D01*
X210000000Y-12000000D02*
X210000000Y-10000000D01*
X260000000Y-12000000D02*
X260000000Y-10000000D01*
X310000000Y-12000000D02*
X310000000Y-10000000D01*
X360000000Y-12000000D02*
X360000000Y-10000000D01*
X410000000Y-12000000D02*
X410000000Y-10000000D01*
X460000000Y-12000000D02*
X460000000Y-10000000D01*
X510000000Y-12000000D02*
X510000000Y-10000000D01*
X560000000Y-12000000D02*
X560000000Y-10000000D01*
X36089160Y-11593604D02*
X35346303Y-11593604D01*
X35717731Y-11593604D02*
X35717731Y-10293604D01*
X35717731Y-10293604D02*
X35593922Y-10479319D01*
X35593922Y-10479319D02*
X35470112Y-10603128D01*
X35470112Y-10603128D02*
X35346303Y-10665033D01*
X85346303Y-10417414D02*
X85408207Y-10355509D01*
X85408207Y-10355509D02*
X85532017Y-10293604D01*
X85532017Y-10293604D02*
X85841541Y-10293604D01*
X85841541Y-10293604D02*
X85965350Y-10355509D01*
X85965350Y-10355509D02*
X86027255Y-10417414D01*
X86027255Y-10417414D02*
X86089160Y-10541223D01*
X86089160Y-10541223D02*
X86089160Y-10665033D01*
X86089160Y-10665033D02*
X86027255Y-10850747D01*
X86027255Y-10850747D02*
X85284398Y-11593604D01*
X85284398Y-11593604D02*
X86089160Y-11593604D01*
X135284398Y-10293604D02*
X136089160Y-10293604D01*
X136089160Y-10293604D02*
X135655826Y-10788842D01*
X135655826Y-10788842D02*
X135841541Y-10788842D01*
X135841541Y-10788842D02*
X135965350Y-10850747D01*
X135965350Y-10850747D02*
X136027255Y-10912652D01*
X136027255Y-10912652D02*
X136089160Y-11036461D01*
X136089160Y-11036461D02*
X136089160Y-11345985D01*
X136089160Y-11345985D02*
X136027255Y-11469795D01*
X136027255Y-11469795D02*
X135965350Y-11531700D01*
X135965350Y-11531700D02*
X135841541Y-11593604D01*
X135841541Y-11593604D02*
X135470112Y-11593604D01*
X135470112Y-11593604D02*
X135346303Y-11531700D01*
X135346303Y-11531700D02*
X135284398Y-11469795D01*
X185965350Y-10726938D02*
X185965350Y-11593604D01*
X185655826Y-10231700D02*
X185346303Y-11160271D01*
X185346303Y-11160271D02*
X186151064Y-11160271D01*
X236027255Y-10293604D02*
X235408207Y-10293604D01*
X235408207Y-10293604D02*
X235346303Y-10912652D01*
X235346303Y-10912652D02*
X235408207Y-10850747D01*
X235408207Y-10850747D02*
X235532017Y-10788842D01*
X235532017Y-10788842D02*
X235841541Y-10788842D01*
X235841541Y-10788842D02*
X235965350Y-10850747D01*
X235965350Y-10850747D02*
X236027255Y-10912652D01*
X236027255Y-10912652D02*
X236089160Y-11036461D01*
X236089160Y-11036461D02*
X236089160Y-11345985D01*
X236089160Y-11345985D02*
X236027255Y-11469795D01*
X236027255Y-11469795D02*
X235965350Y-11531700D01*
X235965350Y-11531700D02*
X235841541Y-11593604D01*
X235841541Y-11593604D02*
X235532017Y-11593604D01*
X235532017Y-11593604D02*
X235408207Y-11531700D01*
X235408207Y-11531700D02*
X235346303Y-11469795D01*
X285965350Y-10293604D02*
X285717731Y-10293604D01*
X285717731Y-10293604D02*
X285593922Y-10355509D01*
X285593922Y-10355509D02*
X285532017Y-10417414D01*
X285532017Y-10417414D02*
X285408207Y-10603128D01*
X285408207Y-10603128D02*
X285346303Y-10850747D01*
X285346303Y-10850747D02*
X285346303Y-11345985D01*
X285346303Y-11345985D02*
X285408207Y-11469795D01*
X285408207Y-11469795D02*
X285470112Y-11531700D01*
X285470112Y-11531700D02*
X285593922Y-11593604D01*
X285593922Y-11593604D02*
X285841541Y-11593604D01*
X285841541Y-11593604D02*
X285965350Y-11531700D01*
X285965350Y-11531700D02*
X286027255Y-11469795D01*
X286027255Y-11469795D02*
X286089160Y-11345985D01*
X286089160Y-11345985D02*
X286089160Y-11036461D01*
X286089160Y-11036461D02*
X286027255Y-10912652D01*
X286027255Y-10912652D02*
X285965350Y-10850747D01*
X285965350Y-10850747D02*
X285841541Y-10788842D01*
X285841541Y-10788842D02*
X285593922Y-10788842D01*
X285593922Y-10788842D02*
X285470112Y-10850747D01*
X285470112Y-10850747D02*
X285408207Y-10912652D01*
X285408207Y-10912652D02*
X285346303Y-11036461D01*
X335284398Y-10293604D02*
X336151064Y-10293604D01*
X336151064Y-10293604D02*
X335593922Y-11593604D01*
X385593922Y-10850747D02*
X385470112Y-10788842D01*
X385470112Y-10788842D02*
X385408207Y-10726938D01*
X385408207Y-10726938D02*
X385346303Y-10603128D01*
X385346303Y-10603128D02*
X385346303Y-10541223D01*
X385346303Y-10541223D02*
X385408207Y-10417414D01*
X385408207Y-10417414D02*
X385470112Y-10355509D01*
X385470112Y-10355509D02*
X385593922Y-10293604D01*
X385593922Y-10293604D02*
X385841541Y-10293604D01*
X385841541Y-10293604D02*
X385965350Y-10355509D01*
X385965350Y-10355509D02*
X386027255Y-10417414D01*
X386027255Y-10417414D02*
X386089160Y-10541223D01*
X386089160Y-10541223D02*
X386089160Y-10603128D01*
X386089160Y-10603128D02*
X386027255Y-10726938D01*
X386027255Y-10726938D02*
X385965350Y-10788842D01*
X385965350Y-10788842D02*
X385841541Y-10850747D01*
X385841541Y-10850747D02*
X385593922Y-10850747D01*
X385593922Y-10850747D02*
X385470112Y-10912652D01*
X385470112Y-10912652D02*
X385408207Y-10974557D01*
X385408207Y-10974557D02*
X385346303Y-11098366D01*
X385346303Y-11098366D02*
X385346303Y-11345985D01*
X385346303Y-11345985D02*
X385408207Y-11469795D01*
X385408207Y-11469795D02*
X385470112Y-11531700D01*
X385470112Y-11531700D02*
X385593922Y-11593604D01*
X385593922Y-11593604D02*
X385841541Y-11593604D01*
X385841541Y-11593604D02*
X385965350Y-11531700D01*
X385965350Y-11531700D02*
X386027255Y-11469795D01*
X386027255Y-11469795D02*
X386089160Y-11345985D01*
X386089160Y-11345985D02*
X386089160Y-11098366D01*
X386089160Y-11098366D02*
X386027255Y-10974557D01*
X386027255Y-10974557D02*
X385965350Y-10912652D01*
X385965350Y-10912652D02*
X385841541Y-10850747D01*
X435470112Y-11593604D02*
X435717731Y-11593604D01*
X435717731Y-11593604D02*
X435841541Y-11531700D01*
X435841541Y-11531700D02*
X435903445Y-11469795D01*
X435903445Y-11469795D02*
X436027255Y-11284080D01*
X436027255Y-11284080D02*
X436089160Y-11036461D01*
X436089160Y-11036461D02*
X436089160Y-10541223D01*
X436089160Y-10541223D02*
X436027255Y-10417414D01*
X436027255Y-10417414D02*
X435965350Y-10355509D01*
X435965350Y-10355509D02*
X435841541Y-10293604D01*
X435841541Y-10293604D02*
X435593922Y-10293604D01*
X435593922Y-10293604D02*
X435470112Y-10355509D01*
X435470112Y-10355509D02*
X435408207Y-10417414D01*
X435408207Y-10417414D02*
X435346303Y-10541223D01*
X435346303Y-10541223D02*
X435346303Y-10850747D01*
X435346303Y-10850747D02*
X435408207Y-10974557D01*
X435408207Y-10974557D02*
X435470112Y-11036461D01*
X435470112Y-11036461D02*
X435593922Y-11098366D01*
X435593922Y-11098366D02*
X435841541Y-11098366D01*
X435841541Y-11098366D02*
X435965350Y-11036461D01*
X435965350Y-11036461D02*
X436027255Y-10974557D01*
X436027255Y-10974557D02*
X436089160Y-10850747D01*
X486089160Y-11593604D02*
X485346303Y-11593604D01*
X485717731Y-11593604D02*
X485717731Y-10293604D01*
X485717731Y-10293604D02*
X485593922Y-10479319D01*
X485593922Y-10479319D02*
X485470112Y-10603128D01*
X485470112Y-10603128D02*
X485346303Y-10665033D01*
X486893921Y-10293604D02*
X487017731Y-10293604D01*
X487017731Y-10293604D02*
X487141540Y-10355509D01*
X487141540Y-10355509D02*
X487203445Y-10417414D01*
X487203445Y-10417414D02*
X487265350Y-10541223D01*
X487265350Y-10541223D02*
X487327255Y-10788842D01*
X487327255Y-10788842D02*
X487327255Y-11098366D01*
X487327255Y-11098366D02*
X487265350Y-11345985D01*
X487265350Y-11345985D02*
X487203445Y-11469795D01*
X487203445Y-11469795D02*
X487141540Y-11531700D01*
X487141540Y-11531700D02*
X487017731Y-11593604D01*
X487017731Y-11593604D02*
X486893921Y-11593604D01*
X486893921Y-11593604D02*
X486770112Y-11531700D01*
X486770112Y-11531700D02*
X486708207Y-11469795D01*
X486708207Y-11469795D02*
X486646302Y-11345985D01*
X486646302Y-11345985D02*
X486584398Y-11098366D01*
X486584398Y-11098366D02*
X486584398Y-10788842D01*
X486584398Y-10788842D02*
X486646302Y-10541223D01*
X486646302Y-10541223D02*
X486708207Y-10417414D01*
X486708207Y-10417414D02*
X486770112Y-10355509D01*
X486770112Y-10355509D02*
X486893921Y-10293604D01*
X536089160Y-11593604D02*
X535346303Y-11593604D01*
X535717731Y-11593604D02*
X535717731Y-10293604D01*
X535717731Y-10293604D02*
X535593922Y-10479319D01*
X535593922Y-10479319D02*
X535470112Y-10603128D01*
X535470112Y-10603128D02*
X535346303Y-10665033D01*
X537327255Y-11593604D02*
X536584398Y-11593604D01*
X536955826Y-11593604D02*
X536955826Y-10293604D01*
X536955826Y-10293604D02*
X536832017Y-10479319D01*
X536832017Y-10479319D02*
X536708207Y-10603128D01*
X536708207Y-10603128D02*
X536584398Y-10665033D01*
X60000000Y-407989000D02*
X60000000Y-409989000D01*
X110000000Y-407989000D02*
X110000000Y-409989000D01*
X160000000Y-407989000D02*
X160000000Y-409989000D01*
X210000000Y-407989000D02*
X210000000Y-409989000D01*
X260000000Y-407989000D02*
X260000000Y-409989000D01*
X310000000Y-407989000D02*
X310000000Y-409989000D01*
X360000000Y-407989000D02*
X360000000Y-409989000D01*
X410000000Y-407989000D02*
X410000000Y-409989000D01*
X460000000Y-407989000D02*
X460000000Y-409989000D01*
X510000000Y-407989000D02*
X510000000Y-409989000D01*
X560000000Y-407989000D02*
X560000000Y-409989000D01*
X36089160Y-409582604D02*
X35346303Y-409582604D01*
X35717731Y-409582604D02*
X35717731Y-408282604D01*
X35717731Y-408282604D02*
X35593922Y-408468319D01*
X35593922Y-408468319D02*
X35470112Y-408592128D01*
X35470112Y-408592128D02*
X35346303Y-408654033D01*
X85346303Y-408406414D02*
X85408207Y-408344509D01*
X85408207Y-408344509D02*
X85532017Y-408282604D01*
X85532017Y-408282604D02*
X85841541Y-408282604D01*
X85841541Y-408282604D02*
X85965350Y-408344509D01*
X85965350Y-408344509D02*
X86027255Y-408406414D01*
X86027255Y-408406414D02*
X86089160Y-408530223D01*
X86089160Y-408530223D02*
X86089160Y-408654033D01*
X86089160Y-408654033D02*
X86027255Y-408839747D01*
X86027255Y-408839747D02*
X85284398Y-409582604D01*
X85284398Y-409582604D02*
X86089160Y-409582604D01*
X135284398Y-408282604D02*
X136089160Y-408282604D01*
X136089160Y-408282604D02*
X135655826Y-408777842D01*
X135655826Y-408777842D02*
X135841541Y-408777842D01*
X135841541Y-408777842D02*
X135965350Y-408839747D01*
X135965350Y-408839747D02*
X136027255Y-408901652D01*
X136027255Y-408901652D02*
X136089160Y-409025461D01*
X136089160Y-409025461D02*
X136089160Y-409334985D01*
X136089160Y-409334985D02*
X136027255Y-409458795D01*
X136027255Y-409458795D02*
X135965350Y-409520700D01*
X135965350Y-409520700D02*
X135841541Y-409582604D01*
X135841541Y-409582604D02*
X135470112Y-409582604D01*
X135470112Y-409582604D02*
X135346303Y-409520700D01*
X135346303Y-409520700D02*
X135284398Y-409458795D01*
X185965350Y-408715938D02*
X185965350Y-409582604D01*
X185655826Y-408220700D02*
X185346303Y-409149271D01*
X185346303Y-409149271D02*
X186151064Y-409149271D01*
X236027255Y-408282604D02*
X235408207Y-408282604D01*
X235408207Y-408282604D02*
X235346303Y-408901652D01*
X235346303Y-408901652D02*
X235408207Y-408839747D01*
X235408207Y-408839747D02*
X235532017Y-408777842D01*
X235532017Y-408777842D02*
X235841541Y-408777842D01*
X235841541Y-408777842D02*
X235965350Y-408839747D01*
X235965350Y-408839747D02*
X236027255Y-408901652D01*
X236027255Y-408901652D02*
X236089160Y-409025461D01*
X236089160Y-409025461D02*
X236089160Y-409334985D01*
X236089160Y-409334985D02*
X236027255Y-409458795D01*
X236027255Y-409458795D02*
X235965350Y-409520700D01*
X235965350Y-409520700D02*
X235841541Y-409582604D01*
X235841541Y-409582604D02*
X235532017Y-409582604D01*
X235532017Y-409582604D02*
X235408207Y-409520700D01*
X235408207Y-409520700D02*
X235346303Y-409458795D01*
X285965350Y-408282604D02*
X285717731Y-408282604D01*
X285717731Y-408282604D02*
X285593922Y-408344509D01*
X285593922Y-408344509D02*
X285532017Y-408406414D01*
X285532017Y-408406414D02*
X285408207Y-408592128D01*
X285408207Y-408592128D02*
X285346303Y-408839747D01*
X285346303Y-408839747D02*
X285346303Y-409334985D01*
X285346303Y-409334985D02*
X285408207Y-409458795D01*
X285408207Y-409458795D02*
X285470112Y-409520700D01*
X285470112Y-409520700D02*
X285593922Y-409582604D01*
X285593922Y-409582604D02*
X285841541Y-409582604D01*
X285841541Y-409582604D02*
X285965350Y-409520700D01*
X285965350Y-409520700D02*
X286027255Y-409458795D01*
X286027255Y-409458795D02*
X286089160Y-409334985D01*
X286089160Y-409334985D02*
X286089160Y-409025461D01*
X286089160Y-409025461D02*
X286027255Y-408901652D01*
X286027255Y-408901652D02*
X285965350Y-408839747D01*
X285965350Y-408839747D02*
X285841541Y-408777842D01*
X285841541Y-408777842D02*
X285593922Y-408777842D01*
X285593922Y-408777842D02*
X285470112Y-408839747D01*
X285470112Y-408839747D02*
X285408207Y-408901652D01*
X285408207Y-408901652D02*
X285346303Y-409025461D01*
X335284398Y-408282604D02*
X336151064Y-408282604D01*
X336151064Y-408282604D02*
X335593922Y-409582604D01*
X385593922Y-408839747D02*
X385470112Y-408777842D01*
X385470112Y-408777842D02*
X385408207Y-408715938D01*
X385408207Y-408715938D02*
X385346303Y-408592128D01*
X385346303Y-408592128D02*
X385346303Y-408530223D01*
X385346303Y-408530223D02*
X385408207Y-408406414D01*
X385408207Y-408406414D02*
X385470112Y-408344509D01*
X385470112Y-408344509D02*
X385593922Y-408282604D01*
X385593922Y-408282604D02*
X385841541Y-408282604D01*
X385841541Y-408282604D02*
X385965350Y-408344509D01*
X385965350Y-408344509D02*
X386027255Y-408406414D01*
X386027255Y-408406414D02*
X386089160Y-408530223D01*
X386089160Y-408530223D02*
X386089160Y-408592128D01*
X386089160Y-408592128D02*
X386027255Y-408715938D01*
X386027255Y-408715938D02*
X385965350Y-408777842D01*
X385965350Y-408777842D02*
X385841541Y-408839747D01*
X385841541Y-408839747D02*
X385593922Y-408839747D01*
X385593922Y-408839747D02*
X385470112Y-408901652D01*
X385470112Y-408901652D02*
X385408207Y-408963557D01*
X385408207Y-408963557D02*
X385346303Y-409087366D01*
X385346303Y-409087366D02*
X385346303Y-409334985D01*
X385346303Y-409334985D02*
X385408207Y-409458795D01*
X385408207Y-409458795D02*
X385470112Y-409520700D01*
X385470112Y-409520700D02*
X385593922Y-409582604D01*
X385593922Y-409582604D02*
X385841541Y-409582604D01*
X385841541Y-409582604D02*
X385965350Y-409520700D01*
X385965350Y-409520700D02*
X386027255Y-409458795D01*
X386027255Y-409458795D02*
X386089160Y-409334985D01*
X386089160Y-409334985D02*
X386089160Y-409087366D01*
X386089160Y-409087366D02*
X386027255Y-408963557D01*
X386027255Y-408963557D02*
X385965350Y-408901652D01*
X385965350Y-408901652D02*
X385841541Y-408839747D01*
X435470112Y-409582604D02*
X435717731Y-409582604D01*
X435717731Y-409582604D02*
X435841541Y-409520700D01*
X435841541Y-409520700D02*
X435903445Y-409458795D01*
X435903445Y-409458795D02*
X436027255Y-409273080D01*
X436027255Y-409273080D02*
X436089160Y-409025461D01*
X436089160Y-409025461D02*
X436089160Y-408530223D01*
X436089160Y-408530223D02*
X436027255Y-408406414D01*
X436027255Y-408406414D02*
X435965350Y-408344509D01*
X435965350Y-408344509D02*
X435841541Y-408282604D01*
X435841541Y-408282604D02*
X435593922Y-408282604D01*
X435593922Y-408282604D02*
X435470112Y-408344509D01*
X435470112Y-408344509D02*
X435408207Y-408406414D01*
X435408207Y-408406414D02*
X435346303Y-408530223D01*
X435346303Y-408530223D02*
X435346303Y-408839747D01*
X435346303Y-408839747D02*
X435408207Y-408963557D01*
X435408207Y-408963557D02*
X435470112Y-409025461D01*
X435470112Y-409025461D02*
X435593922Y-409087366D01*
X435593922Y-409087366D02*
X435841541Y-409087366D01*
X435841541Y-409087366D02*
X435965350Y-409025461D01*
X435965350Y-409025461D02*
X436027255Y-408963557D01*
X436027255Y-408963557D02*
X436089160Y-408839747D01*
X486089160Y-409582604D02*
X485346303Y-409582604D01*
X485717731Y-409582604D02*
X485717731Y-408282604D01*
X485717731Y-408282604D02*
X485593922Y-408468319D01*
X485593922Y-408468319D02*
X485470112Y-408592128D01*
X485470112Y-408592128D02*
X485346303Y-408654033D01*
X486893921Y-408282604D02*
X487017731Y-408282604D01*
X487017731Y-408282604D02*
X487141540Y-408344509D01*
X487141540Y-408344509D02*
X487203445Y-408406414D01*
X487203445Y-408406414D02*
X487265350Y-408530223D01*
X487265350Y-408530223D02*
X487327255Y-408777842D01*
X487327255Y-408777842D02*
X487327255Y-409087366D01*
X487327255Y-409087366D02*
X487265350Y-409334985D01*
X487265350Y-409334985D02*
X487203445Y-409458795D01*
X487203445Y-409458795D02*
X487141540Y-409520700D01*
X487141540Y-409520700D02*
X487017731Y-409582604D01*
X487017731Y-409582604D02*
X486893921Y-409582604D01*
X486893921Y-409582604D02*
X486770112Y-409520700D01*
X486770112Y-409520700D02*
X486708207Y-409458795D01*
X486708207Y-409458795D02*
X486646302Y-409334985D01*
X486646302Y-409334985D02*
X486584398Y-409087366D01*
X486584398Y-409087366D02*
X486584398Y-408777842D01*
X486584398Y-408777842D02*
X486646302Y-408530223D01*
X486646302Y-408530223D02*
X486708207Y-408406414D01*
X486708207Y-408406414D02*
X486770112Y-408344509D01*
X486770112Y-408344509D02*
X486893921Y-408282604D01*
X536089160Y-409582604D02*
X535346303Y-409582604D01*
X535717731Y-409582604D02*
X535717731Y-408282604D01*
X535717731Y-408282604D02*
X535593922Y-408468319D01*
X535593922Y-408468319D02*
X535470112Y-408592128D01*
X535470112Y-408592128D02*
X535346303Y-408654033D01*
X537327255Y-409582604D02*
X536584398Y-409582604D01*
X536955826Y-409582604D02*
X536955826Y-408282604D01*
X536955826Y-408282604D02*
X536832017Y-408468319D01*
X536832017Y-408468319D02*
X536708207Y-408592128D01*
X536708207Y-408592128D02*
X536584398Y-408654033D01*
X10000000Y-60000000D02*
X12000000Y-60000000D01*
X10000000Y-110000000D02*
X12000000Y-110000000D01*
X10000000Y-160000000D02*
X12000000Y-160000000D01*
X10000000Y-210000000D02*
X12000000Y-210000000D01*
X10000000Y-260000000D02*
X12000000Y-260000000D01*
X10000000Y-310000000D02*
X12000000Y-310000000D01*
X10000000Y-360000000D02*
X12000000Y-360000000D01*
X10690476Y-35222176D02*
X11309523Y-35222176D01*
X10566666Y-35593604D02*
X10999999Y-34293604D01*
X10999999Y-34293604D02*
X11433333Y-35593604D01*
X11092857Y-84912652D02*
X11278571Y-84974557D01*
X11278571Y-84974557D02*
X11340476Y-85036461D01*
X11340476Y-85036461D02*
X11402380Y-85160271D01*
X11402380Y-85160271D02*
X11402380Y-85345985D01*
X11402380Y-85345985D02*
X11340476Y-85469795D01*
X11340476Y-85469795D02*
X11278571Y-85531700D01*
X11278571Y-85531700D02*
X11154761Y-85593604D01*
X11154761Y-85593604D02*
X10659523Y-85593604D01*
X10659523Y-85593604D02*
X10659523Y-84293604D01*
X10659523Y-84293604D02*
X11092857Y-84293604D01*
X11092857Y-84293604D02*
X11216666Y-84355509D01*
X11216666Y-84355509D02*
X11278571Y-84417414D01*
X11278571Y-84417414D02*
X11340476Y-84541223D01*
X11340476Y-84541223D02*
X11340476Y-84665033D01*
X11340476Y-84665033D02*
X11278571Y-84788842D01*
X11278571Y-84788842D02*
X11216666Y-84850747D01*
X11216666Y-84850747D02*
X11092857Y-84912652D01*
X11092857Y-84912652D02*
X10659523Y-84912652D01*
X11402380Y-135469795D02*
X11340476Y-135531700D01*
X11340476Y-135531700D02*
X11154761Y-135593604D01*
X11154761Y-135593604D02*
X11030952Y-135593604D01*
X11030952Y-135593604D02*
X10845238Y-135531700D01*
X10845238Y-135531700D02*
X10721428Y-135407890D01*
X10721428Y-135407890D02*
X10659523Y-135284080D01*
X10659523Y-135284080D02*
X10597619Y-135036461D01*
X10597619Y-135036461D02*
X10597619Y-134850747D01*
X10597619Y-134850747D02*
X10659523Y-134603128D01*
X10659523Y-134603128D02*
X10721428Y-134479319D01*
X10721428Y-134479319D02*
X10845238Y-134355509D01*
X10845238Y-134355509D02*
X11030952Y-134293604D01*
X11030952Y-134293604D02*
X11154761Y-134293604D01*
X11154761Y-134293604D02*
X11340476Y-134355509D01*
X11340476Y-134355509D02*
X11402380Y-134417414D01*
X10659523Y-185593604D02*
X10659523Y-184293604D01*
X10659523Y-184293604D02*
X10969047Y-184293604D01*
X10969047Y-184293604D02*
X11154761Y-184355509D01*
X11154761Y-184355509D02*
X11278571Y-184479319D01*
X11278571Y-184479319D02*
X11340476Y-184603128D01*
X11340476Y-184603128D02*
X11402380Y-184850747D01*
X11402380Y-184850747D02*
X11402380Y-185036461D01*
X11402380Y-185036461D02*
X11340476Y-185284080D01*
X11340476Y-185284080D02*
X11278571Y-185407890D01*
X11278571Y-185407890D02*
X11154761Y-185531700D01*
X11154761Y-185531700D02*
X10969047Y-185593604D01*
X10969047Y-185593604D02*
X10659523Y-185593604D01*
X10721428Y-234912652D02*
X11154762Y-234912652D01*
X11340476Y-235593604D02*
X10721428Y-235593604D01*
X10721428Y-235593604D02*
X10721428Y-234293604D01*
X10721428Y-234293604D02*
X11340476Y-234293604D01*
X11185714Y-284912652D02*
X10752380Y-284912652D01*
X10752380Y-285593604D02*
X10752380Y-284293604D01*
X10752380Y-284293604D02*
X11371428Y-284293604D01*
X11340476Y-334355509D02*
X11216666Y-334293604D01*
X11216666Y-334293604D02*
X11030952Y-334293604D01*
X11030952Y-334293604D02*
X10845238Y-334355509D01*
X10845238Y-334355509D02*
X10721428Y-334479319D01*
X10721428Y-334479319D02*
X10659523Y-334603128D01*
X10659523Y-334603128D02*
X10597619Y-334850747D01*
X10597619Y-334850747D02*
X10597619Y-335036461D01*
X10597619Y-335036461D02*
X10659523Y-335284080D01*
X10659523Y-335284080D02*
X10721428Y-335407890D01*
X10721428Y-335407890D02*
X10845238Y-335531700D01*
X10845238Y-335531700D02*
X11030952Y-335593604D01*
X11030952Y-335593604D02*
X11154761Y-335593604D01*
X11154761Y-335593604D02*
X11340476Y-335531700D01*
X11340476Y-335531700D02*
X11402380Y-335469795D01*
X11402380Y-335469795D02*
X11402380Y-335036461D01*
X11402380Y-335036461D02*
X11154761Y-335036461D01*
X10628571Y-385593604D02*
X10628571Y-384293604D01*
X10628571Y-384912652D02*
X11371428Y-384912652D01*
X11371428Y-385593604D02*
X11371428Y-384293604D01*
X584004400Y-60000000D02*
X582004400Y-60000000D01*
X584004400Y-110000000D02*
X582004400Y-110000000D01*
X584004400Y-160000000D02*
X582004400Y-160000000D01*
X584004400Y-210000000D02*
X582004400Y-210000000D01*
X584004400Y-260000000D02*
X582004400Y-260000000D01*
X584004400Y-310000000D02*
X582004400Y-310000000D01*
X584004400Y-360000000D02*
X582004400Y-360000000D01*
X582694876Y-35222176D02*
X583313923Y-35222176D01*
X582571066Y-35593604D02*
X583004399Y-34293604D01*
X583004399Y-34293604D02*
X583437733Y-35593604D01*
X583097257Y-84912652D02*
X583282971Y-84974557D01*
X583282971Y-84974557D02*
X583344876Y-85036461D01*
X583344876Y-85036461D02*
X583406780Y-85160271D01*
X583406780Y-85160271D02*
X583406780Y-85345985D01*
X583406780Y-85345985D02*
X583344876Y-85469795D01*
X583344876Y-85469795D02*
X583282971Y-85531700D01*
X583282971Y-85531700D02*
X583159161Y-85593604D01*
X583159161Y-85593604D02*
X582663923Y-85593604D01*
X582663923Y-85593604D02*
X582663923Y-84293604D01*
X582663923Y-84293604D02*
X583097257Y-84293604D01*
X583097257Y-84293604D02*
X583221066Y-84355509D01*
X583221066Y-84355509D02*
X583282971Y-84417414D01*
X583282971Y-84417414D02*
X583344876Y-84541223D01*
X583344876Y-84541223D02*
X583344876Y-84665033D01*
X583344876Y-84665033D02*
X583282971Y-84788842D01*
X583282971Y-84788842D02*
X583221066Y-84850747D01*
X583221066Y-84850747D02*
X583097257Y-84912652D01*
X583097257Y-84912652D02*
X582663923Y-84912652D01*
X583406780Y-135469795D02*
X583344876Y-135531700D01*
X583344876Y-135531700D02*
X583159161Y-135593604D01*
X583159161Y-135593604D02*
X583035352Y-135593604D01*
X583035352Y-135593604D02*
X582849638Y-135531700D01*
X582849638Y-135531700D02*
X582725828Y-135407890D01*
X582725828Y-135407890D02*
X582663923Y-135284080D01*
X582663923Y-135284080D02*
X582602019Y-135036461D01*
X582602019Y-135036461D02*
X582602019Y-134850747D01*
X582602019Y-134850747D02*
X582663923Y-134603128D01*
X582663923Y-134603128D02*
X582725828Y-134479319D01*
X582725828Y-134479319D02*
X582849638Y-134355509D01*
X582849638Y-134355509D02*
X583035352Y-134293604D01*
X583035352Y-134293604D02*
X583159161Y-134293604D01*
X583159161Y-134293604D02*
X583344876Y-134355509D01*
X583344876Y-134355509D02*
X583406780Y-134417414D01*
X582663923Y-185593604D02*
X582663923Y-184293604D01*
X582663923Y-184293604D02*
X582973447Y-184293604D01*
X582973447Y-184293604D02*
X583159161Y-184355509D01*
X583159161Y-184355509D02*
X583282971Y-184479319D01*
X583282971Y-184479319D02*
X583344876Y-184603128D01*
X583344876Y-184603128D02*
X583406780Y-184850747D01*
X583406780Y-184850747D02*
X583406780Y-185036461D01*
X583406780Y-185036461D02*
X583344876Y-185284080D01*
X583344876Y-185284080D02*
X583282971Y-185407890D01*
X583282971Y-185407890D02*
X583159161Y-185531700D01*
X583159161Y-185531700D02*
X582973447Y-185593604D01*
X582973447Y-185593604D02*
X582663923Y-185593604D01*
X582725828Y-234912652D02*
X583159162Y-234912652D01*
X583344876Y-235593604D02*
X582725828Y-235593604D01*
X582725828Y-235593604D02*
X582725828Y-234293604D01*
X582725828Y-234293604D02*
X583344876Y-234293604D01*
X583190114Y-284912652D02*
X582756780Y-284912652D01*
X582756780Y-285593604D02*
X582756780Y-284293604D01*
X582756780Y-284293604D02*
X583375828Y-284293604D01*
X583344876Y-334355509D02*
X583221066Y-334293604D01*
X583221066Y-334293604D02*
X583035352Y-334293604D01*
X583035352Y-334293604D02*
X582849638Y-334355509D01*
X582849638Y-334355509D02*
X582725828Y-334479319D01*
X582725828Y-334479319D02*
X582663923Y-334603128D01*
X582663923Y-334603128D02*
X582602019Y-334850747D01*
X582602019Y-334850747D02*
X582602019Y-335036461D01*
X582602019Y-335036461D02*
X582663923Y-335284080D01*
X582663923Y-335284080D02*
X582725828Y-335407890D01*
X582725828Y-335407890D02*
X582849638Y-335531700D01*
X582849638Y-335531700D02*
X583035352Y-335593604D01*
X583035352Y-335593604D02*
X583159161Y-335593604D01*
X583159161Y-335593604D02*
X583344876Y-335531700D01*
X583344876Y-335531700D02*
X583406780Y-335469795D01*
X583406780Y-335469795D02*
X583406780Y-335036461D01*
X583406780Y-335036461D02*
X583159161Y-335036461D01*
X582632971Y-385593604D02*
X582632971Y-384293604D01*
X582632971Y-384912652D02*
X583375828Y-384912652D01*
X583375828Y-385593604D02*
X583375828Y-384293604D01*
X497460226Y-403775128D02*
X497460226Y-402275128D01*
X497460226Y-402275128D02*
X497817369Y-402275128D01*
X497817369Y-402275128D02*
X498031655Y-402346557D01*
X498031655Y-402346557D02*
X498174512Y-402489414D01*
X498174512Y-402489414D02*
X498245941Y-402632271D01*
X498245941Y-402632271D02*
X498317369Y-402917985D01*
X498317369Y-402917985D02*
X498317369Y-403132271D01*
X498317369Y-403132271D02*
X498245941Y-403417985D01*
X498245941Y-403417985D02*
X498174512Y-403560842D01*
X498174512Y-403560842D02*
X498031655Y-403703700D01*
X498031655Y-403703700D02*
X497817369Y-403775128D01*
X497817369Y-403775128D02*
X497460226Y-403775128D01*
X499603084Y-403775128D02*
X499603084Y-402989414D01*
X499603084Y-402989414D02*
X499531655Y-402846557D01*
X499531655Y-402846557D02*
X499388798Y-402775128D01*
X499388798Y-402775128D02*
X499103084Y-402775128D01*
X499103084Y-402775128D02*
X498960226Y-402846557D01*
X499603084Y-403703700D02*
X499460226Y-403775128D01*
X499460226Y-403775128D02*
X499103084Y-403775128D01*
X499103084Y-403775128D02*
X498960226Y-403703700D01*
X498960226Y-403703700D02*
X498888798Y-403560842D01*
X498888798Y-403560842D02*
X498888798Y-403417985D01*
X498888798Y-403417985D02*
X498960226Y-403275128D01*
X498960226Y-403275128D02*
X499103084Y-403203700D01*
X499103084Y-403203700D02*
X499460226Y-403203700D01*
X499460226Y-403203700D02*
X499603084Y-403132271D01*
X500103084Y-402775128D02*
X500674512Y-402775128D01*
X500317369Y-402275128D02*
X500317369Y-403560842D01*
X500317369Y-403560842D02*
X500388798Y-403703700D01*
X500388798Y-403703700D02*
X500531655Y-403775128D01*
X500531655Y-403775128D02*
X500674512Y-403775128D01*
X501745941Y-403703700D02*
X501603084Y-403775128D01*
X501603084Y-403775128D02*
X501317370Y-403775128D01*
X501317370Y-403775128D02*
X501174512Y-403703700D01*
X501174512Y-403703700D02*
X501103084Y-403560842D01*
X501103084Y-403560842D02*
X501103084Y-402989414D01*
X501103084Y-402989414D02*
X501174512Y-402846557D01*
X501174512Y-402846557D02*
X501317370Y-402775128D01*
X501317370Y-402775128D02*
X501603084Y-402775128D01*
X501603084Y-402775128D02*
X501745941Y-402846557D01*
X501745941Y-402846557D02*
X501817370Y-402989414D01*
X501817370Y-402989414D02*
X501817370Y-403132271D01*
X501817370Y-403132271D02*
X501103084Y-403275128D01*
X502460226Y-403632271D02*
X502531655Y-403703700D01*
X502531655Y-403703700D02*
X502460226Y-403775128D01*
X502460226Y-403775128D02*
X502388798Y-403703700D01*
X502388798Y-403703700D02*
X502460226Y-403632271D01*
X502460226Y-403632271D02*
X502460226Y-403775128D01*
X502460226Y-402846557D02*
X502531655Y-402917985D01*
X502531655Y-402917985D02*
X502460226Y-402989414D01*
X502460226Y-402989414D02*
X502388798Y-402917985D01*
X502388798Y-402917985D02*
X502460226Y-402846557D01*
X502460226Y-402846557D02*
X502460226Y-402989414D01*
X474004400Y-404489000D02*
X582004400Y-404489000D01*
X475460226Y-406575128D02*
X475460226Y-405075128D01*
X476317369Y-406575128D02*
X475674512Y-405717985D01*
X476317369Y-405075128D02*
X475460226Y-405932271D01*
X476960226Y-406575128D02*
X476960226Y-405575128D01*
X476960226Y-405075128D02*
X476888798Y-405146557D01*
X476888798Y-405146557D02*
X476960226Y-405217985D01*
X476960226Y-405217985D02*
X477031655Y-405146557D01*
X477031655Y-405146557D02*
X476960226Y-405075128D01*
X476960226Y-405075128D02*
X476960226Y-405217985D01*
X478531655Y-406432271D02*
X478460227Y-406503700D01*
X478460227Y-406503700D02*
X478245941Y-406575128D01*
X478245941Y-406575128D02*
X478103084Y-406575128D01*
X478103084Y-406575128D02*
X477888798Y-406503700D01*
X477888798Y-406503700D02*
X477745941Y-406360842D01*
X477745941Y-406360842D02*
X477674512Y-406217985D01*
X477674512Y-406217985D02*
X477603084Y-405932271D01*
X477603084Y-405932271D02*
X477603084Y-405717985D01*
X477603084Y-405717985D02*
X477674512Y-405432271D01*
X477674512Y-405432271D02*
X477745941Y-405289414D01*
X477745941Y-405289414D02*
X477888798Y-405146557D01*
X477888798Y-405146557D02*
X478103084Y-405075128D01*
X478103084Y-405075128D02*
X478245941Y-405075128D01*
X478245941Y-405075128D02*
X478460227Y-405146557D01*
X478460227Y-405146557D02*
X478531655Y-405217985D01*
X479817370Y-406575128D02*
X479817370Y-405789414D01*
X479817370Y-405789414D02*
X479745941Y-405646557D01*
X479745941Y-405646557D02*
X479603084Y-405575128D01*
X479603084Y-405575128D02*
X479317370Y-405575128D01*
X479317370Y-405575128D02*
X479174512Y-405646557D01*
X479817370Y-406503700D02*
X479674512Y-406575128D01*
X479674512Y-406575128D02*
X479317370Y-406575128D01*
X479317370Y-406575128D02*
X479174512Y-406503700D01*
X479174512Y-406503700D02*
X479103084Y-406360842D01*
X479103084Y-406360842D02*
X479103084Y-406217985D01*
X479103084Y-406217985D02*
X479174512Y-406075128D01*
X479174512Y-406075128D02*
X479317370Y-406003700D01*
X479317370Y-406003700D02*
X479674512Y-406003700D01*
X479674512Y-406003700D02*
X479817370Y-405932271D01*
X481174513Y-406575128D02*
X481174513Y-405075128D01*
X481174513Y-406503700D02*
X481031655Y-406575128D01*
X481031655Y-406575128D02*
X480745941Y-406575128D01*
X480745941Y-406575128D02*
X480603084Y-406503700D01*
X480603084Y-406503700D02*
X480531655Y-406432271D01*
X480531655Y-406432271D02*
X480460227Y-406289414D01*
X480460227Y-406289414D02*
X480460227Y-405860842D01*
X480460227Y-405860842D02*
X480531655Y-405717985D01*
X480531655Y-405717985D02*
X480603084Y-405646557D01*
X480603084Y-405646557D02*
X480745941Y-405575128D01*
X480745941Y-405575128D02*
X481031655Y-405575128D01*
X481031655Y-405575128D02*
X481174513Y-405646557D01*
X483031655Y-405789414D02*
X483531655Y-405789414D01*
X483745941Y-406575128D02*
X483031655Y-406575128D01*
X483031655Y-406575128D02*
X483031655Y-405075128D01*
X483031655Y-405075128D02*
X483745941Y-405075128D01*
X484388798Y-406432271D02*
X484460227Y-406503700D01*
X484460227Y-406503700D02*
X484388798Y-406575128D01*
X484388798Y-406575128D02*
X484317370Y-406503700D01*
X484317370Y-406503700D02*
X484388798Y-406432271D01*
X484388798Y-406432271D02*
X484388798Y-406575128D01*
X485103084Y-406575128D02*
X485103084Y-405075128D01*
X485103084Y-405075128D02*
X485460227Y-405075128D01*
X485460227Y-405075128D02*
X485674513Y-405146557D01*
X485674513Y-405146557D02*
X485817370Y-405289414D01*
X485817370Y-405289414D02*
X485888799Y-405432271D01*
X485888799Y-405432271D02*
X485960227Y-405717985D01*
X485960227Y-405717985D02*
X485960227Y-405932271D01*
X485960227Y-405932271D02*
X485888799Y-406217985D01*
X485888799Y-406217985D02*
X485817370Y-406360842D01*
X485817370Y-406360842D02*
X485674513Y-406503700D01*
X485674513Y-406503700D02*
X485460227Y-406575128D01*
X485460227Y-406575128D02*
X485103084Y-406575128D01*
X486603084Y-406432271D02*
X486674513Y-406503700D01*
X486674513Y-406503700D02*
X486603084Y-406575128D01*
X486603084Y-406575128D02*
X486531656Y-406503700D01*
X486531656Y-406503700D02*
X486603084Y-406432271D01*
X486603084Y-406432271D02*
X486603084Y-406575128D01*
X487245942Y-406146557D02*
X487960228Y-406146557D01*
X487103085Y-406575128D02*
X487603085Y-405075128D01*
X487603085Y-405075128D02*
X488103085Y-406575128D01*
X488603084Y-406432271D02*
X488674513Y-406503700D01*
X488674513Y-406503700D02*
X488603084Y-406575128D01*
X488603084Y-406575128D02*
X488531656Y-406503700D01*
X488531656Y-406503700D02*
X488603084Y-406432271D01*
X488603084Y-406432271D02*
X488603084Y-406575128D01*
X491245942Y-406575128D02*
X490388799Y-406575128D01*
X490817370Y-406575128D02*
X490817370Y-405075128D01*
X490817370Y-405075128D02*
X490674513Y-405289414D01*
X490674513Y-405289414D02*
X490531656Y-405432271D01*
X490531656Y-405432271D02*
X490388799Y-405503700D01*
X492174513Y-405075128D02*
X492317370Y-405075128D01*
X492317370Y-405075128D02*
X492460227Y-405146557D01*
X492460227Y-405146557D02*
X492531656Y-405217985D01*
X492531656Y-405217985D02*
X492603084Y-405360842D01*
X492603084Y-405360842D02*
X492674513Y-405646557D01*
X492674513Y-405646557D02*
X492674513Y-406003700D01*
X492674513Y-406003700D02*
X492603084Y-406289414D01*
X492603084Y-406289414D02*
X492531656Y-406432271D01*
X492531656Y-406432271D02*
X492460227Y-406503700D01*
X492460227Y-406503700D02*
X492317370Y-406575128D01*
X492317370Y-406575128D02*
X492174513Y-406575128D01*
X492174513Y-406575128D02*
X492031656Y-406503700D01*
X492031656Y-406503700D02*
X491960227Y-406432271D01*
X491960227Y-406432271D02*
X491888798Y-406289414D01*
X491888798Y-406289414D02*
X491817370Y-406003700D01*
X491817370Y-406003700D02*
X491817370Y-405646557D01*
X491817370Y-405646557D02*
X491888798Y-405360842D01*
X491888798Y-405360842D02*
X491960227Y-405217985D01*
X491960227Y-405217985D02*
X492031656Y-405146557D01*
X492031656Y-405146557D02*
X492174513Y-405075128D01*
X493317369Y-406432271D02*
X493388798Y-406503700D01*
X493388798Y-406503700D02*
X493317369Y-406575128D01*
X493317369Y-406575128D02*
X493245941Y-406503700D01*
X493245941Y-406503700D02*
X493317369Y-406432271D01*
X493317369Y-406432271D02*
X493317369Y-406575128D01*
X494317370Y-405075128D02*
X494460227Y-405075128D01*
X494460227Y-405075128D02*
X494603084Y-405146557D01*
X494603084Y-405146557D02*
X494674513Y-405217985D01*
X494674513Y-405217985D02*
X494745941Y-405360842D01*
X494745941Y-405360842D02*
X494817370Y-405646557D01*
X494817370Y-405646557D02*
X494817370Y-406003700D01*
X494817370Y-406003700D02*
X494745941Y-406289414D01*
X494745941Y-406289414D02*
X494674513Y-406432271D01*
X494674513Y-406432271D02*
X494603084Y-406503700D01*
X494603084Y-406503700D02*
X494460227Y-406575128D01*
X494460227Y-406575128D02*
X494317370Y-406575128D01*
X494317370Y-406575128D02*
X494174513Y-406503700D01*
X494174513Y-406503700D02*
X494103084Y-406432271D01*
X494103084Y-406432271D02*
X494031655Y-406289414D01*
X494031655Y-406289414D02*
X493960227Y-406003700D01*
X493960227Y-406003700D02*
X493960227Y-405646557D01*
X493960227Y-405646557D02*
X494031655Y-405360842D01*
X494031655Y-405360842D02*
X494103084Y-405217985D01*
X494103084Y-405217985D02*
X494174513Y-405146557D01*
X494174513Y-405146557D02*
X494317370Y-405075128D01*
X495460226Y-406432271D02*
X495531655Y-406503700D01*
X495531655Y-406503700D02*
X495460226Y-406575128D01*
X495460226Y-406575128D02*
X495388798Y-406503700D01*
X495388798Y-406503700D02*
X495460226Y-406432271D01*
X495460226Y-406432271D02*
X495460226Y-406575128D01*
X496960227Y-406575128D02*
X496103084Y-406575128D01*
X496531655Y-406575128D02*
X496531655Y-405075128D01*
X496531655Y-405075128D02*
X496388798Y-405289414D01*
X496388798Y-405289414D02*
X496245941Y-405432271D01*
X496245941Y-405432271D02*
X496103084Y-405503700D01*
X474004400Y-401489000D02*
X582004400Y-401489000D01*
D11*
X561416053Y-403767328D02*
X560916053Y-403053042D01*
X560558910Y-403767328D02*
X560558910Y-402267328D01*
X560558910Y-402267328D02*
X561130339Y-402267328D01*
X561130339Y-402267328D02*
X561273196Y-402338757D01*
X561273196Y-402338757D02*
X561344625Y-402410185D01*
X561344625Y-402410185D02*
X561416053Y-402553042D01*
X561416053Y-402553042D02*
X561416053Y-402767328D01*
X561416053Y-402767328D02*
X561344625Y-402910185D01*
X561344625Y-402910185D02*
X561273196Y-402981614D01*
X561273196Y-402981614D02*
X561130339Y-403053042D01*
X561130339Y-403053042D02*
X560558910Y-403053042D01*
X562630339Y-403695900D02*
X562487482Y-403767328D01*
X562487482Y-403767328D02*
X562201768Y-403767328D01*
X562201768Y-403767328D02*
X562058910Y-403695900D01*
X562058910Y-403695900D02*
X561987482Y-403553042D01*
X561987482Y-403553042D02*
X561987482Y-402981614D01*
X561987482Y-402981614D02*
X562058910Y-402838757D01*
X562058910Y-402838757D02*
X562201768Y-402767328D01*
X562201768Y-402767328D02*
X562487482Y-402767328D01*
X562487482Y-402767328D02*
X562630339Y-402838757D01*
X562630339Y-402838757D02*
X562701768Y-402981614D01*
X562701768Y-402981614D02*
X562701768Y-403124471D01*
X562701768Y-403124471D02*
X561987482Y-403267328D01*
X563201767Y-402767328D02*
X563558910Y-403767328D01*
X563558910Y-403767328D02*
X563916053Y-402767328D01*
X564487481Y-403624471D02*
X564558910Y-403695900D01*
X564558910Y-403695900D02*
X564487481Y-403767328D01*
X564487481Y-403767328D02*
X564416053Y-403695900D01*
X564416053Y-403695900D02*
X564487481Y-403624471D01*
X564487481Y-403624471D02*
X564487481Y-403767328D01*
X564487481Y-402838757D02*
X564558910Y-402910185D01*
X564558910Y-402910185D02*
X564487481Y-402981614D01*
X564487481Y-402981614D02*
X564416053Y-402910185D01*
X564416053Y-402910185D02*
X564487481Y-402838757D01*
X564487481Y-402838757D02*
X564487481Y-402981614D01*
D10*
X475388798Y-403703700D02*
X475603084Y-403775128D01*
X475603084Y-403775128D02*
X475960226Y-403775128D01*
X475960226Y-403775128D02*
X476103084Y-403703700D01*
X476103084Y-403703700D02*
X476174512Y-403632271D01*
X476174512Y-403632271D02*
X476245941Y-403489414D01*
X476245941Y-403489414D02*
X476245941Y-403346557D01*
X476245941Y-403346557D02*
X476174512Y-403203700D01*
X476174512Y-403203700D02*
X476103084Y-403132271D01*
X476103084Y-403132271D02*
X475960226Y-403060842D01*
X475960226Y-403060842D02*
X475674512Y-402989414D01*
X475674512Y-402989414D02*
X475531655Y-402917985D01*
X475531655Y-402917985D02*
X475460226Y-402846557D01*
X475460226Y-402846557D02*
X475388798Y-402703700D01*
X475388798Y-402703700D02*
X475388798Y-402560842D01*
X475388798Y-402560842D02*
X475460226Y-402417985D01*
X475460226Y-402417985D02*
X475531655Y-402346557D01*
X475531655Y-402346557D02*
X475674512Y-402275128D01*
X475674512Y-402275128D02*
X476031655Y-402275128D01*
X476031655Y-402275128D02*
X476245941Y-402346557D01*
X476888797Y-403775128D02*
X476888797Y-402775128D01*
X476888797Y-402275128D02*
X476817369Y-402346557D01*
X476817369Y-402346557D02*
X476888797Y-402417985D01*
X476888797Y-402417985D02*
X476960226Y-402346557D01*
X476960226Y-402346557D02*
X476888797Y-402275128D01*
X476888797Y-402275128D02*
X476888797Y-402417985D01*
X477460226Y-402775128D02*
X478245941Y-402775128D01*
X478245941Y-402775128D02*
X477460226Y-403775128D01*
X477460226Y-403775128D02*
X478245941Y-403775128D01*
X479388798Y-403703700D02*
X479245941Y-403775128D01*
X479245941Y-403775128D02*
X478960227Y-403775128D01*
X478960227Y-403775128D02*
X478817369Y-403703700D01*
X478817369Y-403703700D02*
X478745941Y-403560842D01*
X478745941Y-403560842D02*
X478745941Y-402989414D01*
X478745941Y-402989414D02*
X478817369Y-402846557D01*
X478817369Y-402846557D02*
X478960227Y-402775128D01*
X478960227Y-402775128D02*
X479245941Y-402775128D01*
X479245941Y-402775128D02*
X479388798Y-402846557D01*
X479388798Y-402846557D02*
X479460227Y-402989414D01*
X479460227Y-402989414D02*
X479460227Y-403132271D01*
X479460227Y-403132271D02*
X478745941Y-403275128D01*
X480103083Y-403632271D02*
X480174512Y-403703700D01*
X480174512Y-403703700D02*
X480103083Y-403775128D01*
X480103083Y-403775128D02*
X480031655Y-403703700D01*
X480031655Y-403703700D02*
X480103083Y-403632271D01*
X480103083Y-403632271D02*
X480103083Y-403775128D01*
X480103083Y-402846557D02*
X480174512Y-402917985D01*
X480174512Y-402917985D02*
X480103083Y-402989414D01*
X480103083Y-402989414D02*
X480031655Y-402917985D01*
X480031655Y-402917985D02*
X480103083Y-402846557D01*
X480103083Y-402846557D02*
X480103083Y-402989414D01*
X481888798Y-403346557D02*
X482603084Y-403346557D01*
X481745941Y-403775128D02*
X482245941Y-402275128D01*
X482245941Y-402275128D02*
X482745941Y-403775128D01*
X483174512Y-402417985D02*
X483245940Y-402346557D01*
X483245940Y-402346557D02*
X483388798Y-402275128D01*
X483388798Y-402275128D02*
X483745940Y-402275128D01*
X483745940Y-402275128D02*
X483888798Y-402346557D01*
X483888798Y-402346557D02*
X483960226Y-402417985D01*
X483960226Y-402417985D02*
X484031655Y-402560842D01*
X484031655Y-402560842D02*
X484031655Y-402703700D01*
X484031655Y-402703700D02*
X483960226Y-402917985D01*
X483960226Y-402917985D02*
X483103083Y-403775128D01*
X483103083Y-403775128D02*
X484031655Y-403775128D01*
X560460226Y-406575128D02*
X560460226Y-405075128D01*
X561817370Y-406575128D02*
X561817370Y-405075128D01*
X561817370Y-406503700D02*
X561674512Y-406575128D01*
X561674512Y-406575128D02*
X561388798Y-406575128D01*
X561388798Y-406575128D02*
X561245941Y-406503700D01*
X561245941Y-406503700D02*
X561174512Y-406432271D01*
X561174512Y-406432271D02*
X561103084Y-406289414D01*
X561103084Y-406289414D02*
X561103084Y-405860842D01*
X561103084Y-405860842D02*
X561174512Y-405717985D01*
X561174512Y-405717985D02*
X561245941Y-405646557D01*
X561245941Y-405646557D02*
X561388798Y-405575128D01*
X561388798Y-405575128D02*
X561674512Y-405575128D01*
X561674512Y-405575128D02*
X561817370Y-405646557D01*
X562531655Y-406432271D02*
X562603084Y-406503700D01*
X562603084Y-406503700D02*
X562531655Y-406575128D01*
X562531655Y-406575128D02*
X562460227Y-406503700D01*
X562460227Y-406503700D02*
X562531655Y-406432271D01*
X562531655Y-406432271D02*
X562531655Y-406575128D01*
X562531655Y-405646557D02*
X562603084Y-405717985D01*
X562603084Y-405717985D02*
X562531655Y-405789414D01*
X562531655Y-405789414D02*
X562460227Y-405717985D01*
X562460227Y-405717985D02*
X562531655Y-405646557D01*
X562531655Y-405646557D02*
X562531655Y-405789414D01*
X564245941Y-405075128D02*
X565174513Y-405075128D01*
X565174513Y-405075128D02*
X564674513Y-405646557D01*
X564674513Y-405646557D02*
X564888798Y-405646557D01*
X564888798Y-405646557D02*
X565031656Y-405717985D01*
X565031656Y-405717985D02*
X565103084Y-405789414D01*
X565103084Y-405789414D02*
X565174513Y-405932271D01*
X565174513Y-405932271D02*
X565174513Y-406289414D01*
X565174513Y-406289414D02*
X565103084Y-406432271D01*
X565103084Y-406432271D02*
X565031656Y-406503700D01*
X565031656Y-406503700D02*
X564888798Y-406575128D01*
X564888798Y-406575128D02*
X564460227Y-406575128D01*
X564460227Y-406575128D02*
X564317370Y-406503700D01*
X564317370Y-406503700D02*
X564245941Y-406432271D01*
X566888798Y-405003700D02*
X565603084Y-406932271D01*
X567460227Y-406575128D02*
X567745941Y-406575128D01*
X567745941Y-406575128D02*
X567888798Y-406503700D01*
X567888798Y-406503700D02*
X567960227Y-406432271D01*
X567960227Y-406432271D02*
X568103084Y-406217985D01*
X568103084Y-406217985D02*
X568174513Y-405932271D01*
X568174513Y-405932271D02*
X568174513Y-405360842D01*
X568174513Y-405360842D02*
X568103084Y-405217985D01*
X568103084Y-405217985D02*
X568031656Y-405146557D01*
X568031656Y-405146557D02*
X567888798Y-405075128D01*
X567888798Y-405075128D02*
X567603084Y-405075128D01*
X567603084Y-405075128D02*
X567460227Y-405146557D01*
X567460227Y-405146557D02*
X567388798Y-405217985D01*
X567388798Y-405217985D02*
X567317370Y-405360842D01*
X567317370Y-405360842D02*
X567317370Y-405717985D01*
X567317370Y-405717985D02*
X567388798Y-405860842D01*
X567388798Y-405860842D02*
X567460227Y-405932271D01*
X567460227Y-405932271D02*
X567603084Y-406003700D01*
X567603084Y-406003700D02*
X567888798Y-406003700D01*
X567888798Y-406003700D02*
X568031656Y-405932271D01*
X568031656Y-405932271D02*
X568103084Y-405860842D01*
X568103084Y-405860842D02*
X568174513Y-405717985D01*
X474004400Y-397489000D02*
X582004400Y-397489000D01*
D12*
X475696128Y-398193438D02*
X476838985Y-398193438D01*
X476017557Y-400193438D02*
X476267557Y-398193438D01*
X477255652Y-400193438D02*
X477422319Y-398860104D01*
X477505652Y-398193438D02*
X477398509Y-398288676D01*
X477398509Y-398288676D02*
X477481843Y-398383914D01*
X477481843Y-398383914D02*
X477588986Y-398288676D01*
X477588986Y-398288676D02*
X477505652Y-398193438D01*
X477505652Y-398193438D02*
X477481843Y-398383914D01*
X478088986Y-398860104D02*
X478850890Y-398860104D01*
X478458033Y-398193438D02*
X478243748Y-399907723D01*
X478243748Y-399907723D02*
X478315176Y-400098200D01*
X478315176Y-400098200D02*
X478493748Y-400193438D01*
X478493748Y-400193438D02*
X478684224Y-400193438D01*
X479636605Y-400193438D02*
X479458033Y-400098200D01*
X479458033Y-400098200D02*
X479386605Y-399907723D01*
X479386605Y-399907723D02*
X479600890Y-398193438D01*
X481172319Y-400098200D02*
X480969938Y-400193438D01*
X480969938Y-400193438D02*
X480588985Y-400193438D01*
X480588985Y-400193438D02*
X480410414Y-400098200D01*
X480410414Y-400098200D02*
X480338985Y-399907723D01*
X480338985Y-399907723D02*
X480434224Y-399145819D01*
X480434224Y-399145819D02*
X480553271Y-398955342D01*
X480553271Y-398955342D02*
X480755652Y-398860104D01*
X480755652Y-398860104D02*
X481136604Y-398860104D01*
X481136604Y-398860104D02*
X481315176Y-398955342D01*
X481315176Y-398955342D02*
X481386604Y-399145819D01*
X481386604Y-399145819D02*
X481362795Y-399336295D01*
X481362795Y-399336295D02*
X480386604Y-399526771D01*
X482136605Y-400002961D02*
X482219938Y-400098200D01*
X482219938Y-400098200D02*
X482112795Y-400193438D01*
X482112795Y-400193438D02*
X482029462Y-400098200D01*
X482029462Y-400098200D02*
X482136605Y-400002961D01*
X482136605Y-400002961D02*
X482112795Y-400193438D01*
X482267557Y-398955342D02*
X482350890Y-399050580D01*
X482350890Y-399050580D02*
X482243748Y-399145819D01*
X482243748Y-399145819D02*
X482160414Y-399050580D01*
X482160414Y-399050580D02*
X482267557Y-398955342D01*
X482267557Y-398955342D02*
X482243748Y-399145819D01*
D10*
X475960226Y-395589414D02*
X475460226Y-395589414D01*
X475460226Y-396375128D02*
X475460226Y-394875128D01*
X475460226Y-394875128D02*
X476174512Y-394875128D01*
X476745940Y-396375128D02*
X476745940Y-395375128D01*
X476745940Y-394875128D02*
X476674512Y-394946557D01*
X476674512Y-394946557D02*
X476745940Y-395017985D01*
X476745940Y-395017985D02*
X476817369Y-394946557D01*
X476817369Y-394946557D02*
X476745940Y-394875128D01*
X476745940Y-394875128D02*
X476745940Y-395017985D01*
X477674512Y-396375128D02*
X477531655Y-396303700D01*
X477531655Y-396303700D02*
X477460226Y-396160842D01*
X477460226Y-396160842D02*
X477460226Y-394875128D01*
X478817369Y-396303700D02*
X478674512Y-396375128D01*
X478674512Y-396375128D02*
X478388798Y-396375128D01*
X478388798Y-396375128D02*
X478245940Y-396303700D01*
X478245940Y-396303700D02*
X478174512Y-396160842D01*
X478174512Y-396160842D02*
X478174512Y-395589414D01*
X478174512Y-395589414D02*
X478245940Y-395446557D01*
X478245940Y-395446557D02*
X478388798Y-395375128D01*
X478388798Y-395375128D02*
X478674512Y-395375128D01*
X478674512Y-395375128D02*
X478817369Y-395446557D01*
X478817369Y-395446557D02*
X478888798Y-395589414D01*
X478888798Y-395589414D02*
X478888798Y-395732271D01*
X478888798Y-395732271D02*
X478174512Y-395875128D01*
X479531654Y-396232271D02*
X479603083Y-396303700D01*
X479603083Y-396303700D02*
X479531654Y-396375128D01*
X479531654Y-396375128D02*
X479460226Y-396303700D01*
X479460226Y-396303700D02*
X479531654Y-396232271D01*
X479531654Y-396232271D02*
X479531654Y-396375128D01*
X479531654Y-395446557D02*
X479603083Y-395517985D01*
X479603083Y-395517985D02*
X479531654Y-395589414D01*
X479531654Y-395589414D02*
X479460226Y-395517985D01*
X479460226Y-395517985D02*
X479531654Y-395446557D01*
X479531654Y-395446557D02*
X479531654Y-395589414D01*
X481388797Y-396375128D02*
X481388797Y-394875128D01*
X481388797Y-395589414D02*
X482245940Y-395589414D01*
X482245940Y-396375128D02*
X482245940Y-394875128D01*
X483460226Y-395589414D02*
X483674512Y-395660842D01*
X483674512Y-395660842D02*
X483745941Y-395732271D01*
X483745941Y-395732271D02*
X483817369Y-395875128D01*
X483817369Y-395875128D02*
X483817369Y-396089414D01*
X483817369Y-396089414D02*
X483745941Y-396232271D01*
X483745941Y-396232271D02*
X483674512Y-396303700D01*
X483674512Y-396303700D02*
X483531655Y-396375128D01*
X483531655Y-396375128D02*
X482960226Y-396375128D01*
X482960226Y-396375128D02*
X482960226Y-394875128D01*
X482960226Y-394875128D02*
X483460226Y-394875128D01*
X483460226Y-394875128D02*
X483603084Y-394946557D01*
X483603084Y-394946557D02*
X483674512Y-395017985D01*
X483674512Y-395017985D02*
X483745941Y-395160842D01*
X483745941Y-395160842D02*
X483745941Y-395303700D01*
X483745941Y-395303700D02*
X483674512Y-395446557D01*
X483674512Y-395446557D02*
X483603084Y-395517985D01*
X483603084Y-395517985D02*
X483460226Y-395589414D01*
X483460226Y-395589414D02*
X482960226Y-395589414D01*
X484103084Y-396517985D02*
X485245941Y-396517985D01*
X485603083Y-396375128D02*
X485603083Y-394875128D01*
X485603083Y-394875128D02*
X485960226Y-394875128D01*
X485960226Y-394875128D02*
X486174512Y-394946557D01*
X486174512Y-394946557D02*
X486317369Y-395089414D01*
X486317369Y-395089414D02*
X486388798Y-395232271D01*
X486388798Y-395232271D02*
X486460226Y-395517985D01*
X486460226Y-395517985D02*
X486460226Y-395732271D01*
X486460226Y-395732271D02*
X486388798Y-396017985D01*
X486388798Y-396017985D02*
X486317369Y-396160842D01*
X486317369Y-396160842D02*
X486174512Y-396303700D01*
X486174512Y-396303700D02*
X485960226Y-396375128D01*
X485960226Y-396375128D02*
X485603083Y-396375128D01*
X487103083Y-396375128D02*
X487103083Y-395375128D01*
X487103083Y-395660842D02*
X487174512Y-395517985D01*
X487174512Y-395517985D02*
X487245941Y-395446557D01*
X487245941Y-395446557D02*
X487388798Y-395375128D01*
X487388798Y-395375128D02*
X487531655Y-395375128D01*
X488031654Y-396375128D02*
X488031654Y-395375128D01*
X488031654Y-394875128D02*
X487960226Y-394946557D01*
X487960226Y-394946557D02*
X488031654Y-395017985D01*
X488031654Y-395017985D02*
X488103083Y-394946557D01*
X488103083Y-394946557D02*
X488031654Y-394875128D01*
X488031654Y-394875128D02*
X488031654Y-395017985D01*
X488603083Y-395375128D02*
X488960226Y-396375128D01*
X488960226Y-396375128D02*
X489317369Y-395375128D01*
X490460226Y-396303700D02*
X490317369Y-396375128D01*
X490317369Y-396375128D02*
X490031655Y-396375128D01*
X490031655Y-396375128D02*
X489888797Y-396303700D01*
X489888797Y-396303700D02*
X489817369Y-396160842D01*
X489817369Y-396160842D02*
X489817369Y-395589414D01*
X489817369Y-395589414D02*
X489888797Y-395446557D01*
X489888797Y-395446557D02*
X490031655Y-395375128D01*
X490031655Y-395375128D02*
X490317369Y-395375128D01*
X490317369Y-395375128D02*
X490460226Y-395446557D01*
X490460226Y-395446557D02*
X490531655Y-395589414D01*
X490531655Y-395589414D02*
X490531655Y-395732271D01*
X490531655Y-395732271D02*
X489817369Y-395875128D01*
X490817369Y-396517985D02*
X491960226Y-396517985D01*
X492103083Y-394875128D02*
X492603083Y-396375128D01*
X492603083Y-396375128D02*
X493103083Y-394875128D01*
X494388797Y-396375128D02*
X493531654Y-396375128D01*
X493960225Y-396375128D02*
X493960225Y-394875128D01*
X493960225Y-394875128D02*
X493817368Y-395089414D01*
X493817368Y-395089414D02*
X493674511Y-395232271D01*
X493674511Y-395232271D02*
X493531654Y-395303700D01*
X495031653Y-396232271D02*
X495103082Y-396303700D01*
X495103082Y-396303700D02*
X495031653Y-396375128D01*
X495031653Y-396375128D02*
X494960225Y-396303700D01*
X494960225Y-396303700D02*
X495031653Y-396232271D01*
X495031653Y-396232271D02*
X495031653Y-396375128D01*
X495745939Y-396375128D02*
X495745939Y-394875128D01*
X495888797Y-395803700D02*
X496317368Y-396375128D01*
X496317368Y-395375128D02*
X495745939Y-395946557D01*
X496960225Y-396375128D02*
X496960225Y-395375128D01*
X496960225Y-394875128D02*
X496888797Y-394946557D01*
X496888797Y-394946557D02*
X496960225Y-395017985D01*
X496960225Y-395017985D02*
X497031654Y-394946557D01*
X497031654Y-394946557D02*
X496960225Y-394875128D01*
X496960225Y-394875128D02*
X496960225Y-395017985D01*
X498317369Y-396303700D02*
X498174511Y-396375128D01*
X498174511Y-396375128D02*
X497888797Y-396375128D01*
X497888797Y-396375128D02*
X497745940Y-396303700D01*
X497745940Y-396303700D02*
X497674511Y-396232271D01*
X497674511Y-396232271D02*
X497603083Y-396089414D01*
X497603083Y-396089414D02*
X497603083Y-395660842D01*
X497603083Y-395660842D02*
X497674511Y-395517985D01*
X497674511Y-395517985D02*
X497745940Y-395446557D01*
X497745940Y-395446557D02*
X497888797Y-395375128D01*
X497888797Y-395375128D02*
X498174511Y-395375128D01*
X498174511Y-395375128D02*
X498317369Y-395446557D01*
X499603083Y-396375128D02*
X499603083Y-395589414D01*
X499603083Y-395589414D02*
X499531654Y-395446557D01*
X499531654Y-395446557D02*
X499388797Y-395375128D01*
X499388797Y-395375128D02*
X499103083Y-395375128D01*
X499103083Y-395375128D02*
X498960225Y-395446557D01*
X499603083Y-396303700D02*
X499460225Y-396375128D01*
X499460225Y-396375128D02*
X499103083Y-396375128D01*
X499103083Y-396375128D02*
X498960225Y-396303700D01*
X498960225Y-396303700D02*
X498888797Y-396160842D01*
X498888797Y-396160842D02*
X498888797Y-396017985D01*
X498888797Y-396017985D02*
X498960225Y-395875128D01*
X498960225Y-395875128D02*
X499103083Y-395803700D01*
X499103083Y-395803700D02*
X499460225Y-395803700D01*
X499460225Y-395803700D02*
X499603083Y-395732271D01*
X500960226Y-396375128D02*
X500960226Y-394875128D01*
X500960226Y-396303700D02*
X500817368Y-396375128D01*
X500817368Y-396375128D02*
X500531654Y-396375128D01*
X500531654Y-396375128D02*
X500388797Y-396303700D01*
X500388797Y-396303700D02*
X500317368Y-396232271D01*
X500317368Y-396232271D02*
X500245940Y-396089414D01*
X500245940Y-396089414D02*
X500245940Y-395660842D01*
X500245940Y-395660842D02*
X500317368Y-395517985D01*
X500317368Y-395517985D02*
X500388797Y-395446557D01*
X500388797Y-395446557D02*
X500531654Y-395375128D01*
X500531654Y-395375128D02*
X500817368Y-395375128D01*
X500817368Y-395375128D02*
X500960226Y-395446557D01*
X501317369Y-396517985D02*
X502460226Y-396517985D01*
X502817368Y-395375128D02*
X502817368Y-396875128D01*
X502817368Y-395446557D02*
X502960226Y-395375128D01*
X502960226Y-395375128D02*
X503245940Y-395375128D01*
X503245940Y-395375128D02*
X503388797Y-395446557D01*
X503388797Y-395446557D02*
X503460226Y-395517985D01*
X503460226Y-395517985D02*
X503531654Y-395660842D01*
X503531654Y-395660842D02*
X503531654Y-396089414D01*
X503531654Y-396089414D02*
X503460226Y-396232271D01*
X503460226Y-396232271D02*
X503388797Y-396303700D01*
X503388797Y-396303700D02*
X503245940Y-396375128D01*
X503245940Y-396375128D02*
X502960226Y-396375128D01*
X502960226Y-396375128D02*
X502817368Y-396303700D01*
X504817369Y-396303700D02*
X504674511Y-396375128D01*
X504674511Y-396375128D02*
X504388797Y-396375128D01*
X504388797Y-396375128D02*
X504245940Y-396303700D01*
X504245940Y-396303700D02*
X504174511Y-396232271D01*
X504174511Y-396232271D02*
X504103083Y-396089414D01*
X504103083Y-396089414D02*
X504103083Y-395660842D01*
X504103083Y-395660842D02*
X504174511Y-395517985D01*
X504174511Y-395517985D02*
X504245940Y-395446557D01*
X504245940Y-395446557D02*
X504388797Y-395375128D01*
X504388797Y-395375128D02*
X504674511Y-395375128D01*
X504674511Y-395375128D02*
X504817369Y-395446557D01*
X505460225Y-396375128D02*
X505460225Y-394875128D01*
X505460225Y-395446557D02*
X505603083Y-395375128D01*
X505603083Y-395375128D02*
X505888797Y-395375128D01*
X505888797Y-395375128D02*
X506031654Y-395446557D01*
X506031654Y-395446557D02*
X506103083Y-395517985D01*
X506103083Y-395517985D02*
X506174511Y-395660842D01*
X506174511Y-395660842D02*
X506174511Y-396089414D01*
X506174511Y-396089414D02*
X506103083Y-396232271D01*
X506103083Y-396232271D02*
X506031654Y-396303700D01*
X506031654Y-396303700D02*
X505888797Y-396375128D01*
X505888797Y-396375128D02*
X505603083Y-396375128D01*
X505603083Y-396375128D02*
X505460225Y-396303700D01*
X474004400Y-391489000D02*
X582004400Y-391489000D01*
X475388798Y-393603700D02*
X475603084Y-393675128D01*
X475603084Y-393675128D02*
X475960226Y-393675128D01*
X475960226Y-393675128D02*
X476103084Y-393603700D01*
X476103084Y-393603700D02*
X476174512Y-393532271D01*
X476174512Y-393532271D02*
X476245941Y-393389414D01*
X476245941Y-393389414D02*
X476245941Y-393246557D01*
X476245941Y-393246557D02*
X476174512Y-393103700D01*
X476174512Y-393103700D02*
X476103084Y-393032271D01*
X476103084Y-393032271D02*
X475960226Y-392960842D01*
X475960226Y-392960842D02*
X475674512Y-392889414D01*
X475674512Y-392889414D02*
X475531655Y-392817985D01*
X475531655Y-392817985D02*
X475460226Y-392746557D01*
X475460226Y-392746557D02*
X475388798Y-392603700D01*
X475388798Y-392603700D02*
X475388798Y-392460842D01*
X475388798Y-392460842D02*
X475460226Y-392317985D01*
X475460226Y-392317985D02*
X475531655Y-392246557D01*
X475531655Y-392246557D02*
X475674512Y-392175128D01*
X475674512Y-392175128D02*
X476031655Y-392175128D01*
X476031655Y-392175128D02*
X476245941Y-392246557D01*
X476888797Y-393675128D02*
X476888797Y-392175128D01*
X477531655Y-393675128D02*
X477531655Y-392889414D01*
X477531655Y-392889414D02*
X477460226Y-392746557D01*
X477460226Y-392746557D02*
X477317369Y-392675128D01*
X477317369Y-392675128D02*
X477103083Y-392675128D01*
X477103083Y-392675128D02*
X476960226Y-392746557D01*
X476960226Y-392746557D02*
X476888797Y-392817985D01*
X478817369Y-393603700D02*
X478674512Y-393675128D01*
X478674512Y-393675128D02*
X478388798Y-393675128D01*
X478388798Y-393675128D02*
X478245940Y-393603700D01*
X478245940Y-393603700D02*
X478174512Y-393460842D01*
X478174512Y-393460842D02*
X478174512Y-392889414D01*
X478174512Y-392889414D02*
X478245940Y-392746557D01*
X478245940Y-392746557D02*
X478388798Y-392675128D01*
X478388798Y-392675128D02*
X478674512Y-392675128D01*
X478674512Y-392675128D02*
X478817369Y-392746557D01*
X478817369Y-392746557D02*
X478888798Y-392889414D01*
X478888798Y-392889414D02*
X478888798Y-393032271D01*
X478888798Y-393032271D02*
X478174512Y-393175128D01*
X480103083Y-393603700D02*
X479960226Y-393675128D01*
X479960226Y-393675128D02*
X479674512Y-393675128D01*
X479674512Y-393675128D02*
X479531654Y-393603700D01*
X479531654Y-393603700D02*
X479460226Y-393460842D01*
X479460226Y-393460842D02*
X479460226Y-392889414D01*
X479460226Y-392889414D02*
X479531654Y-392746557D01*
X479531654Y-392746557D02*
X479674512Y-392675128D01*
X479674512Y-392675128D02*
X479960226Y-392675128D01*
X479960226Y-392675128D02*
X480103083Y-392746557D01*
X480103083Y-392746557D02*
X480174512Y-392889414D01*
X480174512Y-392889414D02*
X480174512Y-393032271D01*
X480174512Y-393032271D02*
X479460226Y-393175128D01*
X480603083Y-392675128D02*
X481174511Y-392675128D01*
X480817368Y-392175128D02*
X480817368Y-393460842D01*
X480817368Y-393460842D02*
X480888797Y-393603700D01*
X480888797Y-393603700D02*
X481031654Y-393675128D01*
X481031654Y-393675128D02*
X481174511Y-393675128D01*
X481674511Y-393532271D02*
X481745940Y-393603700D01*
X481745940Y-393603700D02*
X481674511Y-393675128D01*
X481674511Y-393675128D02*
X481603083Y-393603700D01*
X481603083Y-393603700D02*
X481674511Y-393532271D01*
X481674511Y-393532271D02*
X481674511Y-393675128D01*
X481674511Y-392746557D02*
X481745940Y-392817985D01*
X481745940Y-392817985D02*
X481674511Y-392889414D01*
X481674511Y-392889414D02*
X481603083Y-392817985D01*
X481603083Y-392817985D02*
X481674511Y-392746557D01*
X481674511Y-392746557D02*
X481674511Y-392889414D01*
X494004400Y-401489000D02*
X494004400Y-404489000D01*
X558004400Y-401489000D02*
X558004400Y-407989000D01*
D13*
%TO.C,J501*%
X208824000Y-214718000D03*
X215024000Y-214718000D03*
X208824000Y-225718000D03*
X215024000Y-225718000D03*
%TD*%
D14*
%TO.C,R1001*%
X382016000Y-220622500D03*
X382016000Y-218797500D03*
%TD*%
D15*
%TO.C,R1006*%
X393790500Y-223266000D03*
X395615500Y-223266000D03*
%TD*%
D16*
%TO.C,C1006*%
X393674000Y-219710000D03*
X395224000Y-219710000D03*
%TD*%
%TO.C,C1007*%
X393674000Y-221488000D03*
X395224000Y-221488000D03*
%TD*%
D17*
%TO.C,D702*%
X416916799Y-171005500D03*
X416916799Y-172910500D03*
X418847199Y-171958000D03*
%TD*%
D18*
%TO.C,D701*%
X412865499Y-166065200D03*
X414770499Y-166065200D03*
X413817999Y-164134800D03*
%TD*%
D19*
%TO.C,U403*%
X375400000Y-167764000D03*
X374900000Y-167764000D03*
X374400000Y-167764000D03*
X373900000Y-167764000D03*
X373900000Y-170564000D03*
X374400000Y-170564000D03*
X374900000Y-170564000D03*
X375400000Y-170564000D03*
%TD*%
D15*
%TO.C,R307*%
X320252500Y-161290000D03*
X318427500Y-161290000D03*
%TD*%
D20*
%TO.C,U203*%
X268212800Y-203581000D03*
X268212800Y-204851000D03*
X268212800Y-206121000D03*
X268212800Y-207391000D03*
X273162800Y-207391000D03*
X273162800Y-206121000D03*
X273162800Y-204851000D03*
X273162800Y-203581000D03*
%TD*%
D14*
%TO.C,R205*%
X275767800Y-203219500D03*
X275767800Y-205044500D03*
%TD*%
D21*
%TO.C,U506*%
X207822000Y-202932000D03*
X207822000Y-205232000D03*
D22*
X214122000Y-205232000D03*
D21*
X207822000Y-207532000D03*
%TD*%
D23*
%TO.C,C306*%
X340868400Y-189817500D03*
X340868400Y-188267500D03*
%TD*%
D20*
%TO.C,U1002*%
X374650000Y-211328000D03*
X374650000Y-212598000D03*
X374650000Y-213868000D03*
X374650000Y-215138000D03*
X379600000Y-215138000D03*
X379600000Y-213868000D03*
X379600000Y-212598000D03*
X379600000Y-211328000D03*
%TD*%
D14*
%TO.C,R508*%
X223266000Y-197565667D03*
X223266000Y-199390667D03*
%TD*%
D24*
%TO.C,C505*%
X234442000Y-198361000D03*
X234442000Y-199911000D03*
%TD*%
D25*
%TO.C,C206*%
X271471900Y-187452000D03*
X273021900Y-187452000D03*
%TD*%
D26*
%TO.C,R710*%
X420219500Y-199390000D03*
X422044500Y-199390000D03*
%TD*%
%TO.C,R211*%
X291022400Y-198882000D03*
X292847400Y-198882000D03*
%TD*%
D16*
%TO.C,C301*%
X314439000Y-213425000D03*
X312889000Y-213425000D03*
%TD*%
D20*
%TO.C,U1003*%
X403723000Y-211554996D03*
X403723000Y-212824996D03*
X403723000Y-214094996D03*
X403723000Y-215364996D03*
X408673000Y-215364996D03*
X408673000Y-214094996D03*
X408673000Y-212824996D03*
X408673000Y-211554996D03*
%TD*%
D27*
%TO.C,R328*%
X330708400Y-183605000D03*
X330708400Y-181780000D03*
%TD*%
D26*
%TO.C,R1013*%
X380406500Y-204700500D03*
X382231500Y-204700500D03*
%TD*%
%TO.C,R325*%
X338939500Y-203646000D03*
X340764500Y-203646000D03*
%TD*%
D16*
%TO.C,C707*%
X420904000Y-175768000D03*
X419354000Y-175768000D03*
%TD*%
D28*
%TO.C,D703*%
X437887000Y-182626000D03*
X439937000Y-182626000D03*
%TD*%
D14*
%TO.C,R505*%
X223266000Y-223219000D03*
X223266000Y-225044000D03*
%TD*%
D16*
%TO.C,C1014*%
X411226000Y-209776996D03*
X409676000Y-209776996D03*
%TD*%
D15*
%TO.C,R323*%
X340764500Y-197550000D03*
X338939500Y-197550000D03*
%TD*%
D14*
%TO.C,R503*%
X223266000Y-189014556D03*
X223266000Y-190839556D03*
%TD*%
D29*
%TO.C,U701*%
X447221999Y-189726000D03*
X447221999Y-189226000D03*
X447221999Y-188726000D03*
X447221999Y-188226000D03*
X444421999Y-188226000D03*
X444421999Y-188726000D03*
X444421999Y-189226000D03*
X444421999Y-189726000D03*
%TD*%
D25*
%TO.C,C202*%
X268540900Y-171007000D03*
X270090900Y-171007000D03*
%TD*%
D26*
%TO.C,R1009*%
X404458500Y-217904996D03*
X406283500Y-217904996D03*
%TD*%
D14*
%TO.C,R408*%
X391796629Y-170791500D03*
X391796629Y-172616500D03*
%TD*%
D27*
%TO.C,R219*%
X277202900Y-185316500D03*
X277202900Y-183491500D03*
%TD*%
D16*
%TO.C,C302*%
X314452000Y-215457000D03*
X312902000Y-215457000D03*
%TD*%
D26*
%TO.C,R319*%
X326425500Y-161290000D03*
X328250500Y-161290000D03*
%TD*%
D23*
%TO.C,C308*%
X318619500Y-206453000D03*
X318619500Y-204903000D03*
%TD*%
%TO.C,C1008*%
X401561000Y-213078996D03*
X401561000Y-211528996D03*
%TD*%
D15*
%TO.C,R706*%
X426922499Y-178308000D03*
X425097499Y-178308000D03*
%TD*%
D24*
%TO.C,C703*%
X416865999Y-179933000D03*
X416865999Y-181483000D03*
%TD*%
D16*
%TO.C,C506*%
X242583000Y-180848000D03*
X241033000Y-180848000D03*
%TD*%
D25*
%TO.C,C502*%
X230111000Y-180848000D03*
X231661000Y-180848000D03*
%TD*%
D16*
%TO.C,C501*%
X231619500Y-216433967D03*
X230069500Y-216433967D03*
%TD*%
D30*
%TO.C,D502*%
X223266000Y-184649000D03*
X223266000Y-186699000D03*
%TD*%
D14*
%TO.C,R712*%
X449377999Y-188433000D03*
X449377999Y-190258000D03*
%TD*%
D25*
%TO.C,C1005*%
X380212000Y-217170000D03*
X381762000Y-217170000D03*
%TD*%
D23*
%TO.C,C1001*%
X362712000Y-225565000D03*
X362712000Y-224015000D03*
%TD*%
D26*
%TO.C,R310*%
X318578000Y-170434000D03*
X320403000Y-170434000D03*
%TD*%
D31*
%TO.C,C1012*%
X383640500Y-215138000D03*
X381915500Y-215138000D03*
%TD*%
D15*
%TO.C,R217*%
X274305400Y-162814000D03*
X272480400Y-162814000D03*
%TD*%
D32*
%TO.C,C1010*%
X381915500Y-213463500D03*
X383640500Y-213463500D03*
%TD*%
D25*
%TO.C,C402*%
X370814000Y-167513000D03*
X372364000Y-167513000D03*
%TD*%
D26*
%TO.C,R708*%
X420600500Y-169164000D03*
X422425500Y-169164000D03*
%TD*%
D20*
%TO.C,U402*%
X421821999Y-182880000D03*
X421821999Y-184150000D03*
X421821999Y-185420000D03*
X421821999Y-186690000D03*
X421821999Y-187960000D03*
X421821999Y-189230000D03*
X421821999Y-190500000D03*
X426771999Y-190500000D03*
X426771999Y-189230000D03*
X426771999Y-187960000D03*
X426771999Y-186690000D03*
X426771999Y-185420000D03*
X426771999Y-184150000D03*
X426771999Y-182880000D03*
%TD*%
D25*
%TO.C,C405*%
X442201000Y-186436000D03*
X443751000Y-186436000D03*
%TD*%
D26*
%TO.C,R214*%
X264455900Y-165862000D03*
X266280900Y-165862000D03*
%TD*%
D25*
%TO.C,C309*%
X318490000Y-220918000D03*
X320040000Y-220918000D03*
%TD*%
D23*
%TO.C,C1009*%
X401561000Y-216393996D03*
X401561000Y-214843996D03*
%TD*%
D26*
%TO.C,R713*%
X440446999Y-191528000D03*
X442271999Y-191528000D03*
%TD*%
%TO.C,R326*%
X343676600Y-197991500D03*
X345501600Y-197991500D03*
%TD*%
D15*
%TO.C,R1005*%
X424227000Y-217904996D03*
X422402000Y-217904996D03*
%TD*%
D33*
%TO.C,U404*%
X375666000Y-179454000D03*
X374396000Y-179454000D03*
X373126000Y-179454000D03*
X371856000Y-179454000D03*
X370586000Y-179454000D03*
X369316000Y-179454000D03*
X368046000Y-179454000D03*
X366776000Y-179454000D03*
X366776000Y-184404000D03*
X368046000Y-184404000D03*
X369316000Y-184404000D03*
X370586000Y-184404000D03*
X371856000Y-184404000D03*
X373126000Y-184404000D03*
X374396000Y-184404000D03*
X375666000Y-184404000D03*
%TD*%
D15*
%TO.C,R304*%
X311046500Y-213425000D03*
X309221500Y-213425000D03*
%TD*%
D14*
%TO.C,R220*%
X282282900Y-183999500D03*
X282282900Y-185824500D03*
%TD*%
%TO.C,R315*%
X314198000Y-218966000D03*
X314198000Y-220791000D03*
%TD*%
D30*
%TO.C,D501*%
X223266000Y-210302333D03*
X223266000Y-212352333D03*
%TD*%
D24*
%TO.C,C408*%
X377444000Y-181102000D03*
X377444000Y-182652000D03*
%TD*%
D14*
%TO.C,R218*%
X276313900Y-167085000D03*
X276313900Y-168910000D03*
%TD*%
D26*
%TO.C,R313*%
X322485500Y-161290000D03*
X324310500Y-161290000D03*
%TD*%
D24*
%TO.C,C307*%
X330262000Y-161785000D03*
X330262000Y-163335000D03*
%TD*%
D26*
%TO.C,R308*%
X318427500Y-164338000D03*
X320252500Y-164338000D03*
%TD*%
D20*
%TO.C,U1001*%
X374772000Y-219283496D03*
X374772000Y-220553496D03*
X374772000Y-221823496D03*
X374772000Y-223093496D03*
X379722000Y-223093496D03*
X379722000Y-221823496D03*
X379722000Y-220553496D03*
X379722000Y-219283496D03*
%TD*%
D14*
%TO.C,R705*%
X418719000Y-166069000D03*
X418719000Y-167894000D03*
%TD*%
D15*
%TO.C,R305*%
X311046500Y-215457000D03*
X309221500Y-215457000D03*
%TD*%
D26*
%TO.C,R1010*%
X401410500Y-209776996D03*
X403235500Y-209776996D03*
%TD*%
D16*
%TO.C,C401*%
X376252000Y-160401000D03*
X374702000Y-160401000D03*
%TD*%
D25*
%TO.C,C1011*%
X413486000Y-217142996D03*
X415036000Y-217142996D03*
%TD*%
D15*
%TO.C,R207*%
X271003400Y-179832000D03*
X269178400Y-179832000D03*
%TD*%
D27*
%TO.C,R406*%
X389890000Y-172616500D03*
X389890000Y-170791500D03*
%TD*%
D15*
%TO.C,R202*%
X273124300Y-209234000D03*
X271299300Y-209234000D03*
%TD*%
D26*
%TO.C,R309*%
X318427500Y-167386000D03*
X320252500Y-167386000D03*
%TD*%
D20*
%TO.C,U204*%
X284314900Y-184150000D03*
X284314900Y-185420000D03*
X284314900Y-186690000D03*
X284314900Y-187960000D03*
X289264900Y-187960000D03*
X289264900Y-186690000D03*
X289264900Y-185420000D03*
X289264900Y-184150000D03*
%TD*%
%TO.C,U304*%
X320613000Y-214441000D03*
X320613000Y-215711000D03*
X320613000Y-216981000D03*
X320613000Y-218251000D03*
X325563000Y-218251000D03*
X325563000Y-216981000D03*
X325563000Y-215711000D03*
X325563000Y-214441000D03*
%TD*%
D25*
%TO.C,C313*%
X326885400Y-178374500D03*
X328435400Y-178374500D03*
%TD*%
D34*
%TO.C,SW704*%
X440539998Y-196088000D03*
X447040000Y-196088000D03*
%TD*%
D26*
%TO.C,R216*%
X268416400Y-162814000D03*
X270241400Y-162814000D03*
%TD*%
D20*
%TO.C,U302*%
X322766000Y-163576000D03*
X322766000Y-164846000D03*
X322766000Y-166116000D03*
X322766000Y-167386000D03*
X327716000Y-167386000D03*
X327716000Y-166116000D03*
X327716000Y-164846000D03*
X327716000Y-163576000D03*
%TD*%
D27*
%TO.C,R1011*%
X378271000Y-204597000D03*
X378271000Y-202772000D03*
%TD*%
D20*
%TO.C,U705*%
X423280999Y-172085000D03*
X423280999Y-173355000D03*
X423280999Y-174625000D03*
X423280999Y-175895000D03*
X428230999Y-175895000D03*
X428230999Y-174625000D03*
X428230999Y-173355000D03*
X428230999Y-172085000D03*
%TD*%
D25*
%TO.C,C708*%
X421678999Y-178308000D03*
X423228999Y-178308000D03*
%TD*%
D30*
%TO.C,D503*%
X223266000Y-218853444D03*
X223266000Y-220903444D03*
%TD*%
D24*
%TO.C,C407*%
X393446000Y-175234000D03*
X393446000Y-176784000D03*
%TD*%
D25*
%TO.C,C710*%
X421106000Y-193040000D03*
X422656000Y-193040000D03*
%TD*%
D20*
%TO.C,U703*%
X409375999Y-168148000D03*
X409375999Y-169418000D03*
X409375999Y-170688000D03*
X409375999Y-171958000D03*
X414325999Y-171958000D03*
X414325999Y-170688000D03*
X414325999Y-169418000D03*
X414325999Y-168148000D03*
%TD*%
%TO.C,U202*%
X269012900Y-165292000D03*
X269012900Y-166562000D03*
X269012900Y-167832000D03*
X269012900Y-169102000D03*
X273962900Y-169102000D03*
X273962900Y-167832000D03*
X273962900Y-166562000D03*
X273962900Y-165292000D03*
%TD*%
D26*
%TO.C,R715*%
X445770000Y-186436000D03*
X447595000Y-186436000D03*
%TD*%
%TO.C,R711*%
X438305499Y-189750000D03*
X440130499Y-189750000D03*
%TD*%
D20*
%TO.C,U504*%
X237112000Y-166116000D03*
X237112000Y-167386000D03*
X237112000Y-168656000D03*
X237112000Y-169926000D03*
X242062000Y-169926000D03*
X242062000Y-168656000D03*
X242062000Y-167386000D03*
X242062000Y-166116000D03*
%TD*%
D16*
%TO.C,C1013*%
X419608000Y-209776996D03*
X418058000Y-209776996D03*
%TD*%
D27*
%TO.C,R312*%
X328422000Y-203796500D03*
X328422000Y-201971500D03*
%TD*%
D14*
%TO.C,R409*%
X391668000Y-174959000D03*
X391668000Y-176784000D03*
%TD*%
D23*
%TO.C,C711*%
X438201999Y-196355000D03*
X438201999Y-194805000D03*
%TD*%
%TO.C,C1002*%
X365760000Y-225565000D03*
X365760000Y-224015000D03*
%TD*%
D26*
%TO.C,R714*%
X442317500Y-184658000D03*
X444142500Y-184658000D03*
%TD*%
D14*
%TO.C,R401*%
X368808000Y-161243000D03*
X368808000Y-163068000D03*
%TD*%
D27*
%TO.C,R407*%
X389890000Y-176784000D03*
X389890000Y-174959000D03*
%TD*%
D25*
%TO.C,C305*%
X322362000Y-169418000D03*
X323912000Y-169418000D03*
%TD*%
D16*
%TO.C,C705*%
X411607000Y-183388000D03*
X410057000Y-183388000D03*
%TD*%
D25*
%TO.C,C201*%
X283917900Y-189738000D03*
X285467900Y-189738000D03*
%TD*%
D30*
%TO.C,D504*%
X223266000Y-201751222D03*
X223266000Y-203801222D03*
%TD*%
D24*
%TO.C,C406*%
X393700000Y-170675000D03*
X393700000Y-172225000D03*
%TD*%
D23*
%TO.C,C509*%
X234483500Y-211367401D03*
X234483500Y-209817401D03*
%TD*%
D20*
%TO.C,U303*%
X320932000Y-202376000D03*
X320932000Y-203646000D03*
X320932000Y-204916000D03*
X320932000Y-206186000D03*
X325882000Y-206186000D03*
X325882000Y-204916000D03*
X325882000Y-203646000D03*
X325882000Y-202376000D03*
%TD*%
D14*
%TO.C,R322*%
X330256000Y-165307000D03*
X330256000Y-167132000D03*
%TD*%
%TO.C,R707*%
X407467999Y-177141500D03*
X407467999Y-178966500D03*
%TD*%
D26*
%TO.C,R324*%
X338939500Y-200598000D03*
X340764500Y-200598000D03*
%TD*%
D15*
%TO.C,R317*%
X324508900Y-178374500D03*
X322683900Y-178374500D03*
%TD*%
D30*
%TO.C,D505*%
X223266000Y-193200111D03*
X223266000Y-195250111D03*
%TD*%
D35*
%TO.C,D1002*%
X381890000Y-211328000D03*
X385190000Y-211328000D03*
%TD*%
D24*
%TO.C,C403*%
X378714000Y-161277000D03*
X378714000Y-162827000D03*
%TD*%
D27*
%TO.C,R311*%
X316204000Y-215353500D03*
X316204000Y-213528500D03*
%TD*%
D26*
%TO.C,R215*%
X264352400Y-168910000D03*
X266177400Y-168910000D03*
%TD*%
%TO.C,R709*%
X430379500Y-173482000D03*
X432204500Y-173482000D03*
%TD*%
D14*
%TO.C,R1002*%
X383794000Y-220321500D03*
X383794000Y-222146500D03*
%TD*%
D27*
%TO.C,R314*%
X315976000Y-220791000D03*
X315976000Y-218966000D03*
%TD*%
D20*
%TO.C,U1004*%
X412359000Y-211554996D03*
X412359000Y-212824996D03*
X412359000Y-214094996D03*
X412359000Y-215364996D03*
X417309000Y-215364996D03*
X417309000Y-214094996D03*
X417309000Y-212824996D03*
X417309000Y-211554996D03*
%TD*%
D24*
%TO.C,C510*%
X205638000Y-208026000D03*
X205638000Y-209576000D03*
%TD*%
D20*
%TO.C,U704*%
X409629999Y-177800000D03*
X409629999Y-179070000D03*
X409629999Y-180340000D03*
X409629999Y-181610000D03*
X414579999Y-181610000D03*
X414579999Y-180340000D03*
X414579999Y-179070000D03*
X414579999Y-177800000D03*
%TD*%
D23*
%TO.C,C511*%
X205638000Y-204496000D03*
X205638000Y-202946000D03*
%TD*%
D25*
%TO.C,C204*%
X273503900Y-179832000D03*
X275053900Y-179832000D03*
%TD*%
D24*
%TO.C,C209*%
X276440900Y-163563000D03*
X276440900Y-165113000D03*
%TD*%
D15*
%TO.C,R302*%
X325778500Y-207964000D03*
X323953500Y-207964000D03*
%TD*%
D27*
%TO.C,R403*%
X378714000Y-166520500D03*
X378714000Y-164695500D03*
%TD*%
D14*
%TO.C,R507*%
X223266000Y-206116778D03*
X223266000Y-207941778D03*
%TD*%
D26*
%TO.C,R210*%
X285838900Y-202946000D03*
X287663900Y-202946000D03*
%TD*%
D23*
%TO.C,C704*%
X416941000Y-167780000D03*
X416941000Y-166230000D03*
%TD*%
D20*
%TO.C,U503*%
X236031000Y-182626000D03*
X236031000Y-183896000D03*
X236031000Y-185166000D03*
X236031000Y-186436000D03*
X240981000Y-186436000D03*
X240981000Y-185166000D03*
X240981000Y-183896000D03*
X240981000Y-182626000D03*
%TD*%
%TO.C,U401*%
X371159000Y-162052000D03*
X371159000Y-163322000D03*
X371159000Y-164592000D03*
X371159000Y-165862000D03*
X376109000Y-165862000D03*
X376109000Y-164592000D03*
X376109000Y-163322000D03*
X376109000Y-162052000D03*
%TD*%
%TO.C,U301*%
X323342400Y-180152500D03*
X323342400Y-181422500D03*
X323342400Y-182692500D03*
X323342400Y-183962500D03*
X328292400Y-183962500D03*
X328292400Y-182692500D03*
X328292400Y-181422500D03*
X328292400Y-180152500D03*
%TD*%
D25*
%TO.C,C312*%
X325107400Y-185740500D03*
X326657400Y-185740500D03*
%TD*%
D36*
%TO.C,U702*%
X376806000Y-196342000D03*
X376806000Y-195072000D03*
X376806000Y-193802000D03*
X376806000Y-192532000D03*
X376806000Y-191262000D03*
X376806000Y-189992000D03*
X376806000Y-188722000D03*
X371856000Y-188722000D03*
X371856000Y-189992000D03*
X371856000Y-191262000D03*
X371856000Y-192532000D03*
X371856000Y-193802000D03*
X371856000Y-195072000D03*
X371856000Y-196342000D03*
%TD*%
D15*
%TO.C,R318*%
X320548000Y-211774000D03*
X318723000Y-211774000D03*
%TD*%
D27*
%TO.C,R316*%
X321310400Y-187923000D03*
X321310400Y-186098000D03*
%TD*%
D24*
%TO.C,C712*%
X442265999Y-188188000D03*
X442265999Y-189738000D03*
%TD*%
D34*
%TO.C,SW701*%
X420219998Y-196088000D03*
X426720000Y-196088000D03*
%TD*%
D25*
%TO.C,C203*%
X272796900Y-200344000D03*
X274346900Y-200344000D03*
%TD*%
%TO.C,C207*%
X269240900Y-200406000D03*
X270790900Y-200406000D03*
%TD*%
D24*
%TO.C,C508*%
X234483500Y-206502401D03*
X234483500Y-208052401D03*
%TD*%
D23*
%TO.C,C205*%
X287232900Y-191275000D03*
X287232900Y-189725000D03*
%TD*%
%TO.C,C504*%
X234950000Y-169685000D03*
X234950000Y-168135000D03*
%TD*%
D26*
%TO.C,R704*%
X411127499Y-173736000D03*
X412952499Y-173736000D03*
%TD*%
D35*
%TO.C,D1001*%
X369190000Y-212344000D03*
X372490000Y-212344000D03*
%TD*%
D23*
%TO.C,C1003*%
X368808000Y-225565000D03*
X368808000Y-224015000D03*
%TD*%
D24*
%TO.C,C702*%
X379092000Y-189979000D03*
X379092000Y-191529000D03*
%TD*%
D16*
%TO.C,C701*%
X445586999Y-191528000D03*
X444036999Y-191528000D03*
%TD*%
%TO.C,C310*%
X329692000Y-214314000D03*
X328142000Y-214314000D03*
%TD*%
%TO.C,C706*%
X426479000Y-170307000D03*
X424929000Y-170307000D03*
%TD*%
D20*
%TO.C,U501*%
X228411000Y-182626000D03*
X228411000Y-183896000D03*
X228411000Y-185166000D03*
X228411000Y-186436000D03*
X233361000Y-186436000D03*
X233361000Y-185166000D03*
X233361000Y-183896000D03*
X233361000Y-182626000D03*
%TD*%
D15*
%TO.C,R213*%
X266177400Y-162814000D03*
X264352400Y-162814000D03*
%TD*%
D25*
%TO.C,C303*%
X325197500Y-199582000D03*
X326747500Y-199582000D03*
%TD*%
D23*
%TO.C,C507*%
X244348000Y-167386000D03*
X244348000Y-165836000D03*
%TD*%
D27*
%TO.C,R206*%
X268566900Y-190396500D03*
X268566900Y-188571500D03*
%TD*%
D23*
%TO.C,C208*%
X265837629Y-207129004D03*
X265837629Y-205579004D03*
%TD*%
D20*
%TO.C,U305*%
X337566400Y-182565500D03*
X337566400Y-183835500D03*
X337566400Y-185105500D03*
X337566400Y-186375500D03*
X342516400Y-186375500D03*
X342516400Y-185105500D03*
X342516400Y-183835500D03*
X342516400Y-182565500D03*
%TD*%
D27*
%TO.C,R402*%
X368808000Y-166624000D03*
X368808000Y-164799000D03*
%TD*%
D26*
%TO.C,R703*%
X409095499Y-166116000D03*
X410920499Y-166116000D03*
%TD*%
D14*
%TO.C,R501*%
X223266000Y-214667889D03*
X223266000Y-216492889D03*
%TD*%
D25*
%TO.C,C304*%
X337553400Y-188280500D03*
X339103400Y-188280500D03*
%TD*%
D23*
%TO.C,C1004*%
X371856000Y-225642500D03*
X371856000Y-224092500D03*
%TD*%
D26*
%TO.C,R502*%
X237593500Y-180848000D03*
X239418500Y-180848000D03*
%TD*%
D27*
%TO.C,R1004*%
X419849000Y-213586996D03*
X419849000Y-211761996D03*
%TD*%
D25*
%TO.C,C503*%
X236969000Y-188214000D03*
X238519000Y-188214000D03*
%TD*%
D15*
%TO.C,R209*%
X287513400Y-199644000D03*
X285688400Y-199644000D03*
%TD*%
D14*
%TO.C,R329*%
X335280400Y-182288000D03*
X335280400Y-184113000D03*
%TD*%
D27*
%TO.C,R504*%
X243332000Y-185570500D03*
X243332000Y-183745500D03*
%TD*%
D28*
%TO.C,D704*%
X442459000Y-182626000D03*
X444509000Y-182626000D03*
%TD*%
D26*
%TO.C,R702*%
X405388999Y-169418000D03*
X407213999Y-169418000D03*
%TD*%
D25*
%TO.C,C311*%
X321895500Y-199582000D03*
X323445500Y-199582000D03*
%TD*%
D23*
%TO.C,C404*%
X372364000Y-170701000D03*
X372364000Y-169151000D03*
%TD*%
D20*
%TO.C,U201*%
X269804000Y-181548000D03*
X269804000Y-182818000D03*
X269804000Y-184088000D03*
X269804000Y-185358000D03*
X274754000Y-185358000D03*
X274754000Y-184088000D03*
X274754000Y-182818000D03*
X274754000Y-181548000D03*
%TD*%
D37*
X204200000Y-152425000D02*
X203200000Y-153425000D01*
X455438000Y-152425000D02*
X456438000Y-153425000D01*
X204200000Y-233425000D02*
X203200000Y-232425000D01*
X455438000Y-233425000D02*
X456438000Y-232425000D01*
X203200000Y-232425000D02*
X203200000Y-153425000D01*
X456438000Y-232425000D02*
X456438000Y-153425000D01*
X455438000Y-152425000D02*
X204200000Y-152425000D01*
X455438000Y-233425000D02*
X204200000Y-233425000D01*
M02*
