ISO-10303-21;
HEADER;
FILE_DESCRIPTION (( 'STEP AP203' ),
    '1' );
FILE_NAME ('TMH Dual Output.STEP',
    '2020-11-13T07:14:13',
    ( '' ),
    ( '' ),
    'SwSTEP 2.0',
    'SolidWorks 2020',
    '' );
FILE_SCHEMA (( 'CONFIG_CONTROL_DESIGN' ));
ENDSEC;

DATA;
#1 = LINE ( 'NONE', #576, #636 ) ;
#2 = CARTESIAN_POINT ( 'NONE',  ( -5.359999999999999432, -3.700000000000000178, -2.500000000000000000 ) ) ;
#3 = CC_DESIGN_PERSON_AND_ORGANIZATION_ASSIGNMENT ( #806, #722, ( #1030 ) ) ;
#4 = ORIENTED_EDGE ( 'NONE', *, *, #50, .F. ) ;
#5 = EDGE_CURVE ( 'NONE', #324, #309, #282, .T. ) ;
#6 = FACE_BOUND ( 'NONE', #118, .T. ) ;
#7 = ORIENTED_EDGE ( 'NONE', *, *, #87, .T. ) ;
#8 = EDGE_CURVE ( 'NONE', #898, #274, #785, .T. ) ;
#9 = FACE_OUTER_BOUND ( 'NONE', #842, .T. ) ;
#10 = LINE ( 'NONE', #512, #766 ) ;
#11 = ORIENTED_EDGE ( 'NONE', *, *, #260, .T. ) ;
#12 = AXIS2_PLACEMENT_3D ( 'NONE', #330, #829, #754 ) ;
#13 = LINE ( 'NONE', #341, #912 ) ;
#14 = CALENDAR_DATE ( 2020, 13, 11 ) ;
#15 = ORIENTED_EDGE ( 'NONE', *, *, #190, .F. ) ;
#16 = EDGE_LOOP ( 'NONE', ( #401, #642, #373, #688 ) ) ;
#17 = DIRECTION ( 'NONE',  ( 0.0000000000000000000, 1.000000000000000000, 0.0000000000000000000 ) ) ;
#18 = EDGE_CURVE ( 'NONE', #515, #832, #141, .T. ) ;
#19 = DIRECTION ( 'NONE',  ( 0.0000000000000000000, -1.000000000000000000, 0.0000000000000000000 ) ) ;
#20 = ORIENTED_EDGE ( 'NONE', *, *, #721, .F. ) ;
#21 = ORIENTED_EDGE ( 'NONE', *, *, #5, .T. ) ;
#22 = DIRECTION ( 'NONE',  ( 1.000000000000000000, 0.0000000000000000000, 0.0000000000000000000 ) ) ;
#23 = DIRECTION ( 'NONE',  ( -0.0000000000000000000, 0.0000000000000000000, 1.000000000000000000 ) ) ;
#24 = CC_DESIGN_PERSON_AND_ORGANIZATION_ASSIGNMENT ( #462, #41, ( #233 ) ) ;
#25 = ORIENTED_EDGE ( 'NONE', *, *, #204, .T. ) ;
#26 = VECTOR ( 'NONE', #848, 1000.000000000000000 ) ;
#27 = VECTOR ( 'NONE', #580, 1000.000000000000000 ) ;
#28 = AXIS2_PLACEMENT_3D ( 'NONE', #283, #301, #446 ) ;
#29 = ORIENTED_EDGE ( 'NONE', *, *, #969, .F. ) ;
#30 = EDGE_CURVE ( 'NONE', #1037, #934, #952, .T. ) ;
#31 = DIRECTION ( 'NONE',  ( -3.469446951953611033E-15, -0.0000000000000000000, 1.000000000000000000 ) ) ;
#32 = ORIENTED_EDGE ( 'NONE', *, *, #1067, .F. ) ;
#33 = VERTEX_POINT ( 'NONE', #450 ) ;
#34 = ADVANCED_FACE ( 'NONE', ( #902 ), #1061, .F. ) ;
#35 = CARTESIAN_POINT ( 'NONE',  ( 5.299999999999998934, -3.700000000000000178, -2.500000000000000000 ) ) ;
#36 = ORIENTED_EDGE ( 'NONE', *, *, #5, .F. ) ;
#37 = DIRECTION ( 'NONE',  ( -1.000000000000000000, -0.0000000000000000000, -0.0000000000000000000 ) ) ;
#38 = EDGE_LOOP ( 'NONE', ( #425, #105, #978, #195 ) ) ;
#39 = VECTOR ( 'NONE', #938, 1000.000000000000000 ) ;
#40 = APPROVAL ( #488, 'UNSPECIFIED' ) ;
#41 = PERSON_AND_ORGANIZATION_ROLE ( 'creator' ) ;
#42 = AXIS2_PLACEMENT_3D ( 'NONE', #629, #459, #635 ) ;
#43 = EDGE_CURVE ( 'NONE', #408, #329, #664, .T. ) ;
#44 = ORIENTED_EDGE ( 'NONE', *, *, #385, .F. ) ;
#45 = DIRECTION ( 'NONE',  ( -1.000000000000000000, 0.0000000000000000000, -0.0000000000000000000 ) ) ;
#46 = EDGE_LOOP ( 'NONE', ( #472, #431, #67, #350 ) ) ;
#47 = CARTESIAN_POINT ( 'NONE',  ( -5.359999999999999432, -3.700000000000000178, -2.750000000000000444 ) ) ;
#48 = APPROVAL_ROLE ( '' ) ;
#49 = CARTESIAN_POINT ( 'NONE',  ( 0.2199999999999988354, -3.700000000000000178, -2.500000000000000000 ) ) ;
#50 = EDGE_CURVE ( 'NONE', #880, #228, #164, .T. ) ;
#51 = DIRECTION ( 'NONE',  ( -0.0000000000000000000, 1.000000000000000000, -0.0000000000000000000 ) ) ;
#52 = CARTESIAN_POINT ( 'NONE',  ( -7.399999999999999467, -3.700000000000000178, -2.750000000000000444 ) ) ;
#53 = ORIENTED_EDGE ( 'NONE', *, *, #1010, .T. ) ;
#54 = LINE ( 'NONE', #47, #659 ) ;
#55 = LINE ( 'NONE', #310, #1020 ) ;
#56 = LINE ( 'NONE', #281, #473 ) ;
#57 = VERTEX_POINT ( 'NONE', #563 ) ;
#58 = PLANE ( 'NONE',  #28 ) ;
#59 = CC_DESIGN_PERSON_AND_ORGANIZATION_ASSIGNMENT ( #403, #825, ( #1032 ) ) ;
#60 = ORIENTED_EDGE ( 'NONE', *, *, #260, .F. ) ;
#61 = AXIS2_PLACEMENT_3D ( 'NONE', #231, #1000, #570 ) ;
#62 = LINE ( 'NONE', #1039, #280 ) ;
#63 = VECTOR ( 'NONE', #85, 1000.000000000000000 ) ;
#64 = LINE ( 'NONE', #259, #26 ) ;
#65 = PLANE ( 'NONE',  #165 ) ;
#66 = APPROVAL_PERSON_ORGANIZATION ( #876, #247, #48 ) ;
#67 = ORIENTED_EDGE ( 'NONE', *, *, #969, .T. ) ;
#68 = EDGE_CURVE ( 'NONE', #1070, #442, #321, .T. ) ;
#69 = DATE_AND_TIME ( #290, #678 ) ;
#70 = FACE_OUTER_BOUND ( 'NONE', #630, .T. ) ;
#71 = LINE ( 'NONE', #1074, #887 ) ;
#72 = ORIENTED_EDGE ( 'NONE', *, *, #920, .T. ) ;
#73 = EDGE_CURVE ( 'NONE', #780, #57, #589, .T. ) ;
#74 = LINE ( 'NONE', #986, #1003 ) ;
#75 = CARTESIAN_POINT ( 'NONE',  ( 5.299999999999998934, 0.0000000000000000000, -2.500000000000000000 ) ) ;
#76 = PLANE ( 'NONE',  #568 ) ;
#77 = VERTEX_POINT ( 'NONE', #158 ) ;
#78 = APPROVAL_STATUS ( 'not_yet_approved' ) ;
#79 = ADVANCED_FACE ( 'NONE', ( #808 ), #976, .T. ) ;
#80 = CARTESIAN_POINT ( 'NONE',  ( 5.299999999999998934, -3.700000000000000178, -2.500000000000000000 ) ) ;
#81 = DIRECTION ( 'NONE',  ( 0.0000000000000000000, 0.0000000000000000000, -1.000000000000000000 ) ) ;
#82 = VECTOR ( 'NONE', #860, 1000.000000000000000 ) ;
#83 = ORIENTED_EDGE ( 'NONE', *, *, #87, .F. ) ;
#84 = DIRECTION ( 'NONE',  ( 0.0000000000000000000, -0.0000000000000000000, -1.000000000000000000 ) ) ;
#85 = DIRECTION ( 'NONE',  ( 0.0000000000000000000, 0.0000000000000000000, -1.000000000000000000 ) ) ;
#86 = DIRECTION ( 'NONE',  ( -0.0000000000000000000, 1.000000000000000000, -0.0000000000000000000 ) ) ;
#87 = EDGE_CURVE ( 'NONE', #538, #33, #1, .T. ) ;
#88 = ORIENTED_EDGE ( 'NONE', *, *, #517, .T. ) ;
#89 = CARTESIAN_POINT ( 'NONE',  ( 4.800000000000000711, -3.700000000000000178, -2.500000000000000000 ) ) ;
#90 = DATE_AND_TIME ( #992, #182 ) ;
#91 = PLANE ( 'NONE',  #251 ) ;
#92 = LINE ( 'NONE', #745, #386 ) ;
#93 = EDGE_LOOP ( 'NONE', ( #21, #904, #32, #611 ) ) ;
#94 = CARTESIAN_POINT ( 'NONE',  ( -7.899999999999999467, -3.700000000000000178, -2.500000000000000000 ) ) ;
#95 = CARTESIAN_POINT ( 'NONE',  ( 9.749999999999998224, 9.700000000000001066, -3.799999999999999822 ) ) ;
#96 = DIRECTION ( 'NONE',  ( -0.0000000000000000000, -1.000000000000000000, -0.0000000000000000000 ) ) ;
#97 = ORIENTED_EDGE ( 'NONE', *, *, #30, .T. ) ;
#98 = AXIS2_PLACEMENT_3D ( 'NONE', #441, #705, #771 ) ;
#99 = LOCAL_TIME ( 15, 14, 13.00000000000000000, #901 ) ;
#100 = PLANE ( 'NONE',  #858 ) ;
#101 = EDGE_CURVE ( 'NONE', #309, #832, #71, .T. ) ;
#102 = CARTESIAN_POINT ( 'NONE',  ( 2.259999999999999787, -3.700000000000000178, -2.500000000000000000 ) ) ;
#103 = CARTESIAN_POINT ( 'NONE',  ( -9.750000000000001776, 9.700000000000001066, -3.799999999999999822 ) ) ;
#104 = ORIENTED_EDGE ( 'NONE', *, *, #498, .F. ) ;
#105 = ORIENTED_EDGE ( 'NONE', *, *, #30, .F. ) ;
#106 = FACE_OUTER_BOUND ( 'NONE', #261, .T. ) ;
#107 = EDGE_CURVE ( 'NONE', #719, #324, #655, .T. ) ;
#108 = CARTESIAN_POINT ( 'NONE',  ( 2.759999999999998455, -3.700000000000000178, -2.500000000000000000 ) ) ;
#109 = ORIENTED_EDGE ( 'NONE', *, *, #336, .T. ) ;
#110 = CARTESIAN_POINT ( 'NONE',  ( -5.359999999999999432, -3.700000000000000178, -2.500000000000000000 ) ) ;
#111 = CC_DESIGN_DATE_AND_TIME_ASSIGNMENT ( #172, #168, ( #1032 ) ) ;
#112 = LINE ( 'NONE', #194, #677 ) ;
#113 = EDGE_CURVE ( 'NONE', #698, #294, #406, .T. ) ;
#114 = ORIENTED_EDGE ( 'NONE', *, *, #464, .T. ) ;
#115 = VECTOR ( 'NONE', #956, 1000.000000000000000 ) ;
#116 = VECTOR ( 'NONE', #826, 1000.000000000000000 ) ;
#117 = LINE ( 'NONE', #311, #495 ) ;
#118 = EDGE_LOOP ( 'NONE', ( #666, #984, #1022, #60 ) ) ;
#119 = ADVANCED_FACE ( 'NONE', ( #582 ), #147, .F. ) ;
#120 = PLANE ( 'NONE',  #404 ) ;
#121 = CARTESIAN_POINT ( 'NONE',  ( -9.750000000000001776, 9.700000000000001066, -3.799999999999999822 ) ) ;
#122 = ORIENTED_EDGE ( 'NONE', *, *, #960, .F. ) ;
#123 = ORIENTED_EDGE ( 'NONE', *, *, #600, .T. ) ;
#124 = FACE_OUTER_BOUND ( 'NONE', #221, .T. ) ;
#125 = ORIENTED_EDGE ( 'NONE', *, *, #43, .T. ) ;
#126 = CARTESIAN_POINT ( 'NONE',  ( -0.2799999999999998601, -3.700000000000000178, -2.500000000000000000 ) ) ;
#127 = VERTEX_POINT ( 'NONE', #478 ) ;
#128 = FACE_OUTER_BOUND ( 'NONE', #348, .T. ) ;
#129 = VECTOR ( 'NONE', #145, 1000.000000000000000 ) ;
#130 = EDGE_CURVE ( 'NONE', #508, #1009, #670, .T. ) ;
#131 = AXIS2_PLACEMENT_3D ( 'NONE', #640, #652, #551 ) ;
#132 = FACE_OUTER_BOUND ( 'NONE', #553, .T. ) ;
#133 = ORIENTED_EDGE ( 'NONE', *, *, #204, .F. ) ;
#134 = DIRECTION ( 'NONE',  ( 0.0000000000000000000, -1.000000000000000000, 0.0000000000000000000 ) ) ;
#135 = ORIENTED_EDGE ( 'NONE', *, *, #457, .F. ) ;
#136 = APPROVAL_DATE_TIME ( #69, #247 ) ;
#137 = EDGE_CURVE ( 'NONE', #57, #274, #483, .T. ) ;
#138 = VERTEX_POINT ( 'NONE', #411 ) ;
#139 = CARTESIAN_POINT ( 'NONE',  ( 9.249999999999998224, -0.5000000000000000000, -3.799999999999998490 ) ) ;
#140 = EDGE_LOOP ( 'NONE', ( #207, #492, #180, #378 ) ) ;
#141 = LINE ( 'NONE', #300, #402 ) ;
#142 = DIRECTION ( 'NONE',  ( -1.000000000000000000, -0.0000000000000000000, -0.0000000000000000000 ) ) ;
#143 = EDGE_CURVE ( 'NONE', #628, #1070, #819, .T. ) ;
#144 = ORIENTED_EDGE ( 'NONE', *, *, #377, .T. ) ;
#145 = DIRECTION ( 'NONE',  ( -0.0000000000000000000, -0.0000000000000000000, -1.000000000000000000 ) ) ;
#146 = LOCAL_TIME ( 15, 14, 13.00000000000000000, #393 ) ;
#147 = PLANE ( 'NONE',  #421 ) ;
#148 = DIRECTION ( 'NONE',  ( 0.0000000000000000000, 0.0000000000000000000, -1.000000000000000000 ) ) ;
#149 = ORIENTED_EDGE ( 'NONE', *, *, #882, .F. ) ;
#150 = ADVANCED_FACE ( 'NONE', ( #333 ), #675, .F. ) ;
#151 = PERSON_AND_ORGANIZATION ( #760, #661 ) ;
#152 = CARTESIAN_POINT ( 'NONE',  ( 9.750000000000000000, -0.5000000000000000000, 3.799999999999999822 ) ) ;
#153 = CARTESIAN_POINT ( 'NONE',  ( -9.250000000000001776, -0.5000000000000000000, 3.799999999999999822 ) ) ;
#154 = EDGE_LOOP ( 'NONE', ( #133, #782, #547, #578 ) ) ;
#155 = DIRECTION ( 'NONE',  ( -0.0000000000000000000, 1.000000000000000000, -0.0000000000000000000 ) ) ;
#156 = EDGE_CURVE ( 'NONE', #695, #925, #896, .T. ) ;
#157 = PERSON_AND_ORGANIZATION ( #760, #661 ) ;
#158 = CARTESIAN_POINT ( 'NONE',  ( -9.250000000000001776, 0.0000000000000000000, 3.799999999999999822 ) ) ;
#159 = DIRECTION ( 'NONE',  ( 0.0000000000000000000, 0.0000000000000000000, -1.000000000000000000 ) ) ;
#160 = ORIENTED_EDGE ( 'NONE', *, *, #738, .T. ) ;
#161 = CARTESIAN_POINT ( 'NONE',  ( -4.859999999999999432, -3.700000000000000178, -2.750000000000000444 ) ) ;
#162 = DIRECTION ( 'NONE',  ( -2.282530889443167515E-16, 0.0000000000000000000, -1.000000000000000000 ) ) ;
#163 = EDGE_CURVE ( 'NONE', #692, #934, #64, .T. ) ;
#164 = LINE ( 'NONE', #389, #778 ) ;
#165 = AXIS2_PLACEMENT_3D ( 'NONE', #390, #227, #850 ) ;
#166 = EDGE_LOOP ( 'NONE', ( #536, #284, #212, #583 ) ) ;
#167 = CARTESIAN_POINT ( 'NONE',  ( -7.899999999999999467, -3.700000000000000178, -2.750000000000000444 ) ) ;
#168 = DATE_TIME_ROLE ( 'classification_date' ) ;
#169 = DIRECTION ( 'NONE',  ( -0.0000000000000000000, 1.000000000000000000, -0.0000000000000000000 ) ) ;
#170 = VERTEX_POINT ( 'NONE', #1008 ) ;
#171 = CARTESIAN_POINT ( 'NONE',  ( -9.249999999999998224, -0.5000000000000000000, -3.799999999999999822 ) ) ;
#172 = DATE_AND_TIME ( #14, #210 ) ;
#173 = LINE ( 'NONE', #437, #351 ) ;
#174 = FACE_OUTER_BOUND ( 'NONE', #543, .T. ) ;
#175 = EDGE_LOOP ( 'NONE', ( #606, #245, #29, #203 ) ) ;
#176 = EDGE_CURVE ( 'NONE', #460, #788, #429, .T. ) ;
#177 = DIRECTION ( 'NONE',  ( 0.0000000000000000000, -1.000000000000000000, 0.0000000000000000000 ) ) ;
#178 = DIRECTION ( 'NONE',  ( -0.0000000000000000000, 1.000000000000000000, -0.0000000000000000000 ) ) ;
#179 = VECTOR ( 'NONE', #942, 1000.000000000000000 ) ;
#180 = ORIENTED_EDGE ( 'NONE', *, *, #667, .T. ) ;
#181 = VECTOR ( 'NONE', #360, 1000.000000000000000 ) ;
#182 = LOCAL_TIME ( 15, 14, 13.00000000000000000, #741 ) ;
#183 = ADVANCED_FACE ( 'NONE', ( #423 ), #924, .F. ) ;
#184 = ORIENTED_EDGE ( 'NONE', *, *, #1033, .T. ) ;
#185 = LINE ( 'NONE', #846, #963 ) ;
#186 = DIRECTION ( 'NONE',  ( -3.469446951953611033E-15, 0.0000000000000000000, 1.000000000000000000 ) ) ;
#187 = ORIENTED_EDGE ( 'NONE', *, *, #434, .F. ) ;
#188 = CARTESIAN_POINT ( 'NONE',  ( -9.249999999999998224, -0.5000000000000000000, -3.799999999999999822 ) ) ;
#189 = DIRECTION ( 'NONE',  ( -0.0000000000000000000, 0.0000000000000000000, 1.000000000000000000 ) ) ;
#190 = EDGE_CURVE ( 'NONE', #442, #880, #269, .T. ) ;
#191 = ORIENTED_EDGE ( 'NONE', *, *, #18, .F. ) ;
#192 = ORIENTED_EDGE ( 'NONE', *, *, #352, .T. ) ;
#193 = EDGE_CURVE ( 'NONE', #862, #205, #694, .T. ) ;
#194 = CARTESIAN_POINT ( 'NONE',  ( -9.250000000000001776, -0.5000000000000000000, 3.799999999999999822 ) ) ;
#195 = ORIENTED_EDGE ( 'NONE', *, *, #654, .T. ) ;
#196 = VECTOR ( 'NONE', #979, 1000.000000000000000 ) ;
#197 = VECTOR ( 'NONE', #663, 1000.000000000000000 ) ;
#198 = CC_DESIGN_APPROVAL ( #247, ( #233 ) ) ;
#199 = VERTEX_POINT ( 'NONE', #614 ) ;
#200 = ORIENTED_EDGE ( 'NONE', *, *, #336, .F. ) ;
#201 = CARTESIAN_POINT ( 'NONE',  ( -5.359999999999999432, -3.700000000000000178, -2.750000000000000444 ) ) ;
#202 = PLANE ( 'NONE',  #931 ) ;
#203 = ORIENTED_EDGE ( 'NONE', *, *, #361, .T. ) ;
#204 = EDGE_CURVE ( 'NONE', #371, #57, #10, .T. ) ;
#205 = VERTEX_POINT ( 'NONE', #522 ) ;
#206 = DIRECTION ( 'NONE',  ( -3.469446951953611033E-15, 0.0000000000000000000, 1.000000000000000000 ) ) ;
#207 = ORIENTED_EDGE ( 'NONE', *, *, #1016, .T. ) ;
#208 = VECTOR ( 'NONE', #244, 1000.000000000000000 ) ;
#209 = AXIS2_PLACEMENT_3D ( 'NONE', #1012, #929, #935 ) ;
#210 = LOCAL_TIME ( 15, 14, 13.00000000000000000, #918 ) ;
#211 = CARTESIAN_POINT ( 'NONE',  ( 0.2199999999999996958, -3.700000000000000178, -2.750000000000000444 ) ) ;
#212 = ORIENTED_EDGE ( 'NONE', *, *, #770, .F. ) ;
#213 = CARTESIAN_POINT ( 'NONE',  ( -0.2799999999999998601, -3.700000000000000178, -2.750000000000000444 ) ) ;
#214 = VERTEX_POINT ( 'NONE', #338 ) ;
#215 = DIRECTION ( 'NONE',  ( -1.000000000000000000, -0.0000000000000000000, -0.0000000000000000000 ) ) ;
#216 = CARTESIAN_POINT ( 'NONE',  ( 9.750000000000000000, -0.5000000000000000000, 3.799999999999999822 ) ) ;
#217 = CARTESIAN_POINT ( 'NONE',  ( 0.0000000000000000000, -3.700000000000000178, 0.0000000000000000000 ) ) ;
#218 = EDGE_CURVE ( 'NONE', #859, #77, #112, .T. ) ;
#219 = ORIENTED_EDGE ( 'NONE', *, *, #539, .F. ) ;
#220 = DIRECTION ( 'NONE',  ( 1.000000000000000000, 0.0000000000000000000, 0.0000000000000000000 ) ) ;
#221 = EDGE_LOOP ( 'NONE', ( #447, #1046, #15, #555 ) ) ;
#222 = CARTESIAN_POINT ( 'NONE',  ( 2.759999999999998455, -3.700000000000000178, -2.500000000000000000 ) ) ;
#223 = DIRECTION ( 'NONE',  ( 0.0000000000000000000, 0.0000000000000000000, 1.000000000000000000 ) ) ;
#224 = CARTESIAN_POINT ( 'NONE',  ( -9.750000000000001776, 9.700000000000001066, -3.799999999999999822 ) ) ;
#225 = ADVANCED_FACE ( 'NONE', ( #841 ), #415, .F. ) ;
#226 = DIRECTION ( 'NONE',  ( 0.0000000000000000000, -1.000000000000000000, 0.0000000000000000000 ) ) ;
#227 = DIRECTION ( 'NONE',  ( 0.0000000000000000000, 1.000000000000000000, 0.0000000000000000000 ) ) ;
#228 = VERTEX_POINT ( 'NONE', #919 ) ;
#229 = DIRECTION ( 'NONE',  ( -0.0000000000000000000, 1.000000000000000000, -0.0000000000000000000 ) ) ;
#230 = VECTOR ( 'NONE', #399, 1000.000000000000000 ) ;
#231 = CARTESIAN_POINT ( 'NONE',  ( -5.359999999999999432, -3.700000000000000178, -2.500000000000000000 ) ) ;
#232 = LINE ( 'NONE', #153, #588 ) ;
#233 = PRODUCT_DEFINITION ( 'UNKNOWN', '', #339, #616 ) ;
#234 = ORIENTED_EDGE ( 'NONE', *, *, #347, .F. ) ;
#235 = ADVANCED_FACE ( 'NONE', ( #355 ), #831, .T. ) ;
#236 = CARTESIAN_POINT ( 'NONE',  ( -5.359999999999999432, -3.700000000000000178, -2.500000000000000000 ) ) ;
#237 = DATE_AND_TIME ( #326, #146 ) ;
#238 = CARTESIAN_POINT ( 'NONE',  ( 5.299999999999998934, -3.700000000000000178, -2.500000000000000000 ) ) ;
#239 = DIRECTION ( 'NONE',  ( 1.000000000000000000, 0.0000000000000000000, 0.0000000000000000000 ) ) ;
#240 = DIRECTION ( 'NONE',  ( -3.469446951953611033E-15, -0.0000000000000000000, 1.000000000000000000 ) ) ;
#241 = ORIENTED_EDGE ( 'NONE', *, *, #882, .T. ) ;
#242 = EDGE_CURVE ( 'NONE', #460, #528, #435, .T. ) ;
#243 = APPROVAL_ROLE ( '' ) ;
#244 = DIRECTION ( 'NONE',  ( 1.000000000000000000, 0.0000000000000000000, 0.0000000000000000000 ) ) ;
#245 = ORIENTED_EDGE ( 'NONE', *, *, #587, .F. ) ;
#246 = CARTESIAN_POINT ( 'NONE',  ( 4.800000000000000711, 0.0000000000000000000, -2.750000000000000444 ) ) ;
#247 = APPROVAL ( #645, 'UNSPECIFIED' ) ;
#248 = APPROVAL_ROLE ( '' ) ;
#249 = VECTOR ( 'NONE', #907, 1000.000000000000000 ) ;
#250 = DIRECTION ( 'NONE',  ( -0.0000000000000000000, 1.000000000000000000, -0.0000000000000000000 ) ) ;
#251 = AXIS2_PLACEMENT_3D ( 'NONE', #255, #189, #923 ) ;
#252 = VECTOR ( 'NONE', #468, 1000.000000000000000 ) ;
#253 = ORIENTED_EDGE ( 'NONE', *, *, #1016, .F. ) ;
#254 = FACE_OUTER_BOUND ( 'NONE', #810, .T. ) ;
#255 = CARTESIAN_POINT ( 'NONE',  ( 2.259999999999999787, -3.700000000000000178, -2.750000000000000444 ) ) ;
#256 = CARTESIAN_POINT ( 'NONE',  ( 0.0000000000000000000, -3.700000000000000178, 0.0000000000000000000 ) ) ;
#257 = ORIENTED_EDGE ( 'NONE', *, *, #708, .T. ) ;
#258 = DIRECTION ( 'NONE',  ( 0.0000000000000000000, 0.0000000000000000000, -1.000000000000000000 ) ) ;
#259 = CARTESIAN_POINT ( 'NONE',  ( -5.359999999999999432, 0.0000000000000000000, -2.500000000000000000 ) ) ;
#260 = EDGE_CURVE ( 'NONE', #294, #334, #92, .T. ) ;
#261 = EDGE_LOOP ( 'NONE', ( #11, #356, #438, #465 ) ) ;
#262 = PLANE ( 'NONE',  #209 ) ;
#263 = CARTESIAN_POINT ( 'NONE',  ( -9.750000000000000000, 9.700000000000001066, 3.799999999999999822 ) ) ;
#264 = CARTESIAN_POINT ( 'NONE',  ( -4.860000000000000320, -3.700000000000000178, -2.500000000000000000 ) ) ;
#265 = ORIENTED_EDGE ( 'NONE', *, *, #600, .F. ) ;
#266 = AXIS2_PLACEMENT_3D ( 'NONE', #612, #729, #805 ) ;
#267 = EDGE_CURVE ( 'NONE', #764, #859, #763, .T. ) ;
#268 = DIRECTION ( 'NONE',  ( 0.0000000000000000000, 0.0000000000000000000, -1.000000000000000000 ) ) ;
#269 = LINE ( 'NONE', #609, #39 ) ;
#270 = ORIENTED_EDGE ( 'NONE', *, *, #738, .F. ) ;
#271 = ADVANCED_FACE ( 'NONE', ( #174 ), #752, .F. ) ;
#272 = PLANE ( 'NONE',  #266 ) ;
#273 = CARTESIAN_POINT ( 'NONE',  ( -7.399999999999999467, 0.0000000000000000000, -2.750000000000000444 ) ) ;
#274 = VERTEX_POINT ( 'NONE', #273 ) ;
#275 = DIRECTION ( 'NONE',  ( -1.000000000000000000, -0.0000000000000000000, -0.0000000000000000000 ) ) ;
#276 = ORIENTED_EDGE ( 'NONE', *, *, #176, .T. ) ;
#277 = VECTOR ( 'NONE', #51, 1000.000000000000000 ) ;
#278 = AXIS2_PLACEMENT_3D ( 'NONE', #1079, #327, #993 ) ;
#279 = VERTEX_POINT ( 'NONE', #627 ) ;
#280 = VECTOR ( 'NONE', #796, 1000.000000000000000 ) ;
#281 = CARTESIAN_POINT ( 'NONE',  ( -5.359999999999999432, 0.0000000000000000000, -2.500000000000000000 ) ) ;
#282 = LINE ( 'NONE', #798, #961 ) ;
#283 = CARTESIAN_POINT ( 'NONE',  ( 4.800000000000000711, -3.700000000000000178, -2.750000000000000444 ) ) ;
#284 = ORIENTED_EDGE ( 'NONE', *, *, #113, .F. ) ;
#285 = DIRECTION ( 'NONE',  ( 1.000000000000000000, 0.0000000000000000000, 0.0000000000000000000 ) ) ;
#286 = ORIENTED_EDGE ( 'NONE', *, *, #347, .T. ) ;
#287 = PLANE ( 'NONE',  #42 ) ;
#288 = EDGE_CURVE ( 'NONE', #334, #279, #621, .T. ) ;
#289 = VERTEX_POINT ( 'NONE', #49 ) ;
#290 = CALENDAR_DATE ( 2020, 13, 11 ) ;
#291 = LINE ( 'NONE', #700, #748 ) ;
#292 = ORIENTED_EDGE ( 'NONE', *, *, #73, .T. ) ;
#293 = CARTESIAN_POINT ( 'NONE',  ( 0.2199999999999988354, 0.0000000000000000000, -2.500000000000000000 ) ) ;
#294 = VERTEX_POINT ( 'NONE', #552 ) ;
#295 = ADVANCED_FACE ( 'NONE', ( #124 ), #444, .F. ) ;
#296 = CARTESIAN_POINT ( 'NONE',  ( 9.749999999999998224, -0.5000000000000000000, -3.799999999999999822 ) ) ;
#297 = MECHANICAL_CONTEXT ( 'NONE', #419, 'mechanical' ) ;
#298 = VECTOR ( 'NONE', #623, 1000.000000000000000 ) ;
#299 = DIRECTION ( 'NONE',  ( -2.282530889443167515E-16, 0.0000000000000000000, -1.000000000000000000 ) ) ;
#300 = CARTESIAN_POINT ( 'NONE',  ( 4.800000000000000711, -3.700000000000000178, -2.750000000000000444 ) ) ;
#301 = DIRECTION ( 'NONE',  ( -0.0000000000000000000, 0.0000000000000000000, 1.000000000000000000 ) ) ;
#302 = ORIENTED_EDGE ( 'NONE', *, *, #1072, .T. ) ;
#303 = LINE ( 'NONE', #222, #1076 ) ;
#304 = EDGE_CURVE ( 'NONE', #558, #460, #374, .T. ) ;
#305 = APPLICATION_PROTOCOL_DEFINITION ( 'international standard', 'config_control_design', 1994, #476 ) ;
#306 = PLANE ( 'NONE',  #800 ) ;
#307 = CARTESIAN_POINT ( 'NONE',  ( -0.2799999999999998601, -3.700000000000000178, -2.500000000000000000 ) ) ;
#308 = PLANE ( 'NONE',  #966 ) ;
#309 = VERTEX_POINT ( 'NONE', #641 ) ;
#310 = CARTESIAN_POINT ( 'NONE',  ( -5.359999999999999432, 0.0000000000000000000, -2.750000000000000444 ) ) ;
#311 = CARTESIAN_POINT ( 'NONE',  ( -7.899999999999999467, 0.0000000000000000000, -2.500000000000000000 ) ) ;
#312 = EDGE_CURVE ( 'NONE', #871, #214, #951, .T. ) ;
#313 = CARTESIAN_POINT ( 'NONE',  ( -5.359999999999999432, -3.700000000000000178, -2.750000000000000444 ) ) ;
#314 = FACE_OUTER_BOUND ( 'NONE', #175, .T. ) ;
#315 = ORIENTED_EDGE ( 'NONE', *, *, #343, .T. ) ;
#316 = LINE ( 'NONE', #161, #318 ) ;
#317 = AXIS2_PLACEMENT_3D ( 'NONE', #108, #853, #768 ) ;
#318 = VECTOR ( 'NONE', #229, 1000.000000000000000 ) ;
#319 = CARTESIAN_POINT ( 'NONE',  ( 9.249999999999998224, 0.0000000000000000000, -3.799999999999998490 ) ) ;
#320 = CC_DESIGN_SECURITY_CLASSIFICATION ( #1032, ( #339 ) ) ;
#321 = LINE ( 'NONE', #152, #249 ) ;
#322 = DIRECTION ( 'NONE',  ( -0.0000000000000000000, 1.000000000000000000, -0.0000000000000000000 ) ) ;
#323 = ADVANCED_FACE ( 'NONE', ( #132 ), #1052, .F. ) ;
#324 = VERTEX_POINT ( 'NONE', #1026 ) ;
#325 = CARTESIAN_POINT ( 'NONE',  ( -0.2799999999999998601, -3.700000000000000178, -2.500000000000000000 ) ) ;
#326 = CALENDAR_DATE ( 2020, 13, 11 ) ;
#327 = DIRECTION ( 'NONE',  ( 1.000000000000000000, 0.0000000000000000000, 0.0000000000000000000 ) ) ;
#328 = DIRECTION ( 'NONE',  ( 0.0000000000000000000, 0.0000000000000000000, -1.000000000000000000 ) ) ;
#329 = VERTEX_POINT ( 'NONE', #35 ) ;
#330 = CARTESIAN_POINT ( 'NONE',  ( 4.800000000000000711, -3.700000000000000178, -2.500000000000000000 ) ) ;
#331 = PERSON_AND_ORGANIZATION ( #760, #661 ) ;
#332 = LINE ( 'NONE', #557, #839 ) ;
#333 = FACE_OUTER_BOUND ( 'NONE', #38, .T. ) ;
#334 = VERTEX_POINT ( 'NONE', #463 ) ;
#335 = DIRECTION ( 'NONE',  ( 0.0000000000000000000, 0.0000000000000000000, -1.000000000000000000 ) ) ;
#336 = EDGE_CURVE ( 'NONE', #528, #628, #357, .T. ) ;
#337 = DATE_TIME_ROLE ( 'creation_date' ) ;
#338 = CARTESIAN_POINT ( 'NONE',  ( -4.860000000000000320, 0.0000000000000000000, -2.500000000000000000 ) ) ;
#339 = PRODUCT_DEFINITION_FORMATION_WITH_SPECIFIED_SOURCE ( 'ANY', '', #1030, .NOT_KNOWN. ) ;
#340 = VERTEX_POINT ( 'NONE', #449 ) ;
#341 = CARTESIAN_POINT ( 'NONE',  ( 2.259999999999999787, -3.700000000000000178, -2.500000000000000000 ) ) ;
#342 = DIRECTION ( 'NONE',  ( 0.0000000000000000000, -0.0000000000000000000, -1.000000000000000000 ) ) ;
#343 = EDGE_CURVE ( 'NONE', #279, #925, #712, .T. ) ;
#344 = EDGE_LOOP ( 'NONE', ( #53, #967, #520, #1017 ) ) ;
#345 = PLANE ( 'NONE',  #870 ) ;
#346 = CARTESIAN_POINT ( 'NONE',  ( -9.250000000000001776, -0.5000000000000000000, 3.799999999999999822 ) ) ;
#347 = EDGE_CURVE ( 'NONE', #138, #214, #1045, .T. ) ;
#348 = EDGE_LOOP ( 'NONE', ( #590, #995, #114, #957 ) ) ;
#349 = PLANE ( 'NONE',  #12 ) ;
#350 = ORIENTED_EDGE ( 'NONE', *, *, #434, .T. ) ;
#351 = VECTOR ( 'NONE', #507, 1000.000000000000000 ) ;
#352 = EDGE_CURVE ( 'NONE', #880, #508, #291, .T. ) ;
#353 = AXIS2_PLACEMENT_3D ( 'NONE', #958, #799, #206 ) ;
#354 = FACE_OUTER_BOUND ( 'NONE', #908, .T. ) ;
#355 = FACE_OUTER_BOUND ( 'NONE', #46, .T. ) ;
#356 = ORIENTED_EDGE ( 'NONE', *, *, #1007, .F. ) ;
#357 = LINE ( 'NONE', #618, #1002 ) ;
#358 = ORIENTED_EDGE ( 'NONE', *, *, #68, .F. ) ;
#359 = ORIENTED_EDGE ( 'NONE', *, *, #107, .F. ) ;
#360 = DIRECTION ( 'NONE',  ( -3.469446951953611033E-15, -0.0000000000000000000, 1.000000000000000000 ) ) ;
#361 = EDGE_CURVE ( 'NONE', #205, #746, #970, .T. ) ;
#362 = DIRECTION ( 'NONE',  ( 1.000000000000000000, 0.0000000000000000000, -0.0000000000000000000 ) ) ;
#363 = VERTEX_POINT ( 'NONE', #525 ) ;
#364 = CARTESIAN_POINT ( 'NONE',  ( 2.259999999999999787, 0.0000000000000000000, -2.500000000000000000 ) ) ;
#365 = VECTOR ( 'NONE', #534, 1000.000000000000000 ) ;
#366 = ORIENTED_EDGE ( 'NONE', *, *, #793, .F. ) ;
#367 = PLANE ( 'NONE',  #98 ) ;
#368 = DIRECTION ( 'NONE',  ( 1.000000000000000000, 0.0000000000000000000, 0.0000000000000000000 ) ) ;
#369 = EDGE_CURVE ( 'NONE', #214, #692, #56, .T. ) ;
#370 = DIRECTION ( 'NONE',  ( -0.0000000000000000000, 0.0000000000000000000, -1.000000000000000000 ) ) ;
#371 = VERTEX_POINT ( 'NONE', #857 ) ;
#372 = LINE ( 'NONE', #884, #298 ) ;
#373 = ORIENTED_EDGE ( 'NONE', *, *, #417, .F. ) ;
#374 = LINE ( 'NONE', #530, #585 ) ;
#375 = ORIENTED_EDGE ( 'NONE', *, *, #398, .F. ) ;
#376 = FACE_OUTER_BOUND ( 'NONE', #384, .T. ) ;
#377 = EDGE_CURVE ( 'NONE', #33, #371, #117, .T. ) ;
#378 = ORIENTED_EDGE ( 'NONE', *, *, #721, .T. ) ;
#379 = PLANE ( 'NONE',  #131 ) ;
#380 = DIRECTION ( 'NONE',  ( -1.000000000000000000, -0.0000000000000000000, -0.0000000000000000000 ) ) ;
#381 = CARTESIAN_POINT ( 'NONE',  ( -7.399999999999999467, -3.700000000000000178, -2.750000000000000444 ) ) ;
#382 = PLANE ( 'NONE',  #891 ) ;
#383 = MANIFOLD_SOLID_BREP ( '¶ñ®Æ-¦ùªø3', #526 ) ;
#384 = EDGE_LOOP ( 'NONE', ( #743, #375, #391, #867 ) ) ;
#385 = EDGE_CURVE ( 'NONE', #879, #508, #569, .T. ) ;
#386 = VECTOR ( 'NONE', #679, 1000.000000000000000 ) ;
#387 = CARTESIAN_POINT ( 'NONE',  ( 5.299999999999999822, 0.0000000000000000000, -2.750000000000000444 ) ) ;
#388 = VECTOR ( 'NONE', #844, 1000.000000000000000 ) ;
#389 = CARTESIAN_POINT ( 'NONE',  ( 9.249999999999998224, -0.5000000000000000000, -3.799999999999998490 ) ) ;
#390 = CARTESIAN_POINT ( 'NONE',  ( 0.0000000000000000000, 9.700000000000001066, 0.0000000000000000000 ) ) ;
#391 = ORIENTED_EDGE ( 'NONE', *, *, #43, .F. ) ;
#392 = LINE ( 'NONE', #905, #196 ) ;
#393 = COORDINATED_UNIVERSAL_TIME_OFFSET ( 8, 0, .AHEAD. ) ;
#394 = DIRECTION ( 'NONE',  ( 0.0000000000000000000, -0.0000000000000000000, -1.000000000000000000 ) ) ;
#395 = DIRECTION ( 'NONE',  ( -1.000000000000000000, -0.0000000000000000000, -0.0000000000000000000 ) ) ;
#396 = CARTESIAN_POINT ( 'NONE',  ( 2.759999999999998455, -3.700000000000000178, -2.500000000000000000 ) ) ;
#397 = ORIENTED_EDGE ( 'NONE', *, *, #101, .T. ) ;
#398 = EDGE_CURVE ( 'NONE', #329, #324, #669, .T. ) ;
#399 = DIRECTION ( 'NONE',  ( -0.0000000000000000000, 1.000000000000000000, -0.0000000000000000000 ) ) ;
#400 = CARTESIAN_POINT ( 'NONE',  ( -7.899999999999999467, -3.700000000000000178, -2.500000000000000000 ) ) ;
#401 = ORIENTED_EDGE ( 'NONE', *, *, #288, .T. ) ;
#402 = VECTOR ( 'NONE', #622, 1000.000000000000000 ) ;
#403 = PERSON_AND_ORGANIZATION ( #760, #661 ) ;
#404 = AXIS2_PLACEMENT_3D ( 'NONE', #443, #789, #699 ) ;
#405 = VECTOR ( 'NONE', #322, 1000.000000000000000 ) ;
#406 = LINE ( 'NONE', #994, #822 ) ;
#407 = LINE ( 'NONE', #737, #620 ) ;
#408 = VERTEX_POINT ( 'NONE', #1060 ) ;
#409 = FACE_OUTER_BOUND ( 'NONE', #711, .T. ) ;
#410 = CARTESIAN_POINT ( 'NONE',  ( -9.750000000000000000, 0.0000000000000000000, 3.799999999999999822 ) ) ;
#411 = CARTESIAN_POINT ( 'NONE',  ( -4.859999999999999432, 0.0000000000000000000, -2.750000000000000444 ) ) ;
#412 = EDGE_LOOP ( 'NONE', ( #601, #109, #416, #775 ) ) ;
#413 = ADVANCED_FACE ( 'NONE', ( #469 ), #306, .T. ) ;
#414 = DIRECTION ( 'NONE',  ( -0.0000000000000000000, 1.000000000000000000, -0.0000000000000000000 ) ) ;
#415 = PLANE ( 'NONE',  #317 ) ;
#416 = ORIENTED_EDGE ( 'NONE', *, *, #1042, .T. ) ;
#417 = EDGE_CURVE ( 'NONE', #127, #959, #332, .T. ) ;
#418 = FACE_BOUND ( 'NONE', #697, .T. ) ;
#419 = APPLICATION_CONTEXT ( 'configuration controlled 3d designs of mechanical parts and assemblies' ) ;
#420 = LINE ( 'NONE', #263, #567 ) ;
#421 = AXIS2_PLACEMENT_3D ( 'NONE', #313, #490, #239 ) ;
#422 = VECTOR ( 'NONE', #646, 1000.000000000000000 ) ;
#423 = FACE_OUTER_BOUND ( 'NONE', #865, .T. ) ;
#424 = ORIENTED_EDGE ( 'NONE', *, *, #304, .F. ) ;
#425 = ORIENTED_EDGE ( 'NONE', *, *, #163, .T. ) ;
#426 = CARTESIAN_POINT ( 'NONE',  ( 0.0000000000000000000, 0.0000000000000000000, 0.0000000000000000000 ) ) ;
#427 = CC_DESIGN_DATE_AND_TIME_ASSIGNMENT ( #237, #337, ( #233 ) ) ;
#428 = FACE_OUTER_BOUND ( 'NONE', #849, .T. ) ;
#429 = LINE ( 'NONE', #835, #1029 ) ;
#430 = ORIENTED_EDGE ( 'NONE', *, *, #130, .T. ) ;
#431 = ORIENTED_EDGE ( 'NONE', *, *, #193, .T. ) ;
#432 = LINE ( 'NONE', #608, #474 ) ;
#433 = DIRECTION ( 'NONE',  ( 2.282530889443167515E-16, 0.0000000000000000000, 1.000000000000000000 ) ) ;
#434 = EDGE_CURVE ( 'NONE', #289, #701, #575, .T. ) ;
#435 = LINE ( 'NONE', #103, #926 ) ;
#436 = ORIENTED_EDGE ( 'NONE', *, *, #18, .T. ) ;
#437 = CARTESIAN_POINT ( 'NONE',  ( 9.249999999999998224, -0.5000000000000000000, 3.800000000000003375 ) ) ;
#438 = ORIENTED_EDGE ( 'NONE', *, *, #617, .F. ) ;
#439 = VECTOR ( 'NONE', #968, 1000.000000000000000 ) ;
#440 = VECTOR ( 'NONE', #1062, 1000.000000000000000 ) ;
#441 = CARTESIAN_POINT ( 'NONE',  ( -9.750000000000000000, 9.700000000000001066, 3.799999999999999822 ) ) ;
#442 = VERTEX_POINT ( 'NONE', #813 ) ;
#443 = CARTESIAN_POINT ( 'NONE',  ( 0.0000000000000000000, -0.5000000000000000000, 0.0000000000000000000 ) ) ;
#444 = PLANE ( 'NONE',  #603 ) ;
#445 = ORIENTED_EDGE ( 'NONE', *, *, #1033, .F. ) ;
#446 = DIRECTION ( 'NONE',  ( 1.000000000000000000, 0.0000000000000000000, 0.0000000000000000000 ) ) ;
#447 = ORIENTED_EDGE ( 'NONE', *, *, #385, .T. ) ;
#448 = ADVANCED_FACE ( 'NONE', ( #975 ), #725, .F. ) ;
#449 = CARTESIAN_POINT ( 'NONE',  ( -7.899999999999999467, -3.700000000000000178, -2.500000000000000000 ) ) ;
#450 = CARTESIAN_POINT ( 'NONE',  ( -7.400000000000000355, 0.0000000000000000000, -2.500000000000000000 ) ) ;
#451 = PLANE ( 'NONE',  #353 ) ;
#452 = VECTOR ( 'NONE', #1014, 1000.000000000000000 ) ;
#453 = ORIENTED_EDGE ( 'NONE', *, *, #498, .T. ) ;
#454 =( GEOMETRIC_REPRESENTATION_CONTEXT ( 3 ) GLOBAL_UNCERTAINTY_ASSIGNED_CONTEXT ( ( #787 ) ) GLOBAL_UNIT_ASSIGNED_CONTEXT ( ( #790, #881, #541 ) ) REPRESENTATION_CONTEXT ( 'NONE', 'WORKASPACE' ) );
#455 = CARTESIAN_POINT ( 'NONE',  ( 2.259999999999999787, -3.700000000000000178, -2.750000000000000444 ) ) ;
#456 = DIRECTION ( 'NONE',  ( 1.000000000000000000, 0.0000000000000000000, 0.0000000000000000000 ) ) ;
#457 = EDGE_CURVE ( 'NONE', #199, #788, #74, .T. ) ;
#458 = ORIENTED_EDGE ( 'NONE', *, *, #218, .F. ) ;
#459 = DIRECTION ( 'NONE',  ( 0.0000000000000000000, 0.0000000000000000000, -1.000000000000000000 ) ) ;
#460 = VERTEX_POINT ( 'NONE', #224 ) ;
#461 = DIRECTION ( 'NONE',  ( -0.0000000000000000000, 1.000000000000000000, -0.0000000000000000000 ) ) ;
#462 = PERSON_AND_ORGANIZATION ( #760, #661 ) ;
#463 = CARTESIAN_POINT ( 'NONE',  ( 2.759999999999999343, 0.0000000000000000000, -2.750000000000000444 ) ) ;
#464 = EDGE_CURVE ( 'NONE', #788, #764, #562, .T. ) ;
#465 = ORIENTED_EDGE ( 'NONE', *, *, #113, .T. ) ;
#466 = LINE ( 'NONE', #293, #440 ) ;
#467 = ORIENTED_EDGE ( 'NONE', *, *, #565, .T. ) ;
#468 = DIRECTION ( 'NONE',  ( -2.282530889443167515E-16, -0.0000000000000000000, -1.000000000000000000 ) ) ;
#469 = FACE_OUTER_BOUND ( 'NONE', #344, .T. ) ;
#470 = ORIENTED_EDGE ( 'NONE', *, *, #793, .T. ) ;
#471 = FACE_OUTER_BOUND ( 'NONE', #412, .T. ) ;
#472 = ORIENTED_EDGE ( 'NONE', *, *, #487, .T. ) ;
#473 = VECTOR ( 'NONE', #380, 1000.000000000000000 ) ;
#474 = VECTOR ( 'NONE', #22, 1000.000000000000000 ) ;
#475 = APPLICATION_PROTOCOL_DEFINITION ( 'international standard', 'config_control_design', 1994, #419 ) ;
#476 = APPLICATION_CONTEXT ( 'configuration controlled 3d designs of mechanical parts and assemblies' ) ;
#477 = CARTESIAN_POINT ( 'NONE',  ( -0.2799999999999998601, -3.700000000000000178, -2.500000000000000000 ) ) ;
#478 = CARTESIAN_POINT ( 'NONE',  ( 2.759999999999999343, -3.700000000000000178, -2.750000000000000444 ) ) ;
#479 = LINE ( 'NONE', #1075, #405 ) ;
#480 = EDGE_LOOP ( 'NONE', ( #1077, #83, #509, #1011 ) ) ;
#481 = PERSON_AND_ORGANIZATION_ROLE ( 'creator' ) ;
#482 = CARTESIAN_POINT ( 'NONE',  ( -0.2799999999999998601, -3.700000000000000178, -2.500000000000000000 ) ) ;
#483 = LINE ( 'NONE', #726, #208 ) ;
#484 = DIRECTION ( 'NONE',  ( -1.000000000000000000, 0.0000000000000000000, 0.0000000000000000000 ) ) ;
#485 = ORIENTED_EDGE ( 'NONE', *, *, #68, .T. ) ;
#486 = CARTESIAN_POINT ( 'NONE',  ( -9.750000000000001776, 9.700000000000001066, -3.799999999999999822 ) ) ;
#487 = EDGE_CURVE ( 'NONE', #701, #862, #886, .T. ) ;
#488 = APPROVAL_STATUS ( 'not_yet_approved' ) ;
#489 = DIRECTION ( 'NONE',  ( -1.000000000000000000, -0.0000000000000000000, -0.0000000000000000000 ) ) ;
#490 = DIRECTION ( 'NONE',  ( -0.0000000000000000000, 0.0000000000000000000, 1.000000000000000000 ) ) ;
#491 = LINE ( 'NONE', #820, #873 ) ;
#492 = ORIENTED_EDGE ( 'NONE', *, *, #837, .T. ) ;
#493 = VECTOR ( 'NONE', #395, 1000.000000000000000 ) ;
#494 = PERSON_AND_ORGANIZATION ( #760, #661 ) ;
#495 = VECTOR ( 'NONE', #489, 1000.000000000000000 ) ;
#496 = CARTESIAN_POINT ( 'NONE',  ( -9.750000000000001776, -0.5000000000000000000, -3.799999999999999822 ) ) ;
#497 = VECTOR ( 'NONE', #159, 1000.000000000000000 ) ;
#498 = EDGE_CURVE ( 'NONE', #77, #879, #674, .T. ) ;
#499 = DIRECTION ( 'NONE',  ( 1.000000000000000000, 0.0000000000000000000, -2.602085213965208275E-15 ) ) ;
#500 = EDGE_LOOP ( 'NONE', ( #25, #757, #253, #184 ) ) ;
#501 = LINE ( 'NONE', #89, #824 ) ;
#502 = CARTESIAN_POINT ( 'NONE',  ( -9.250000000000001776, 0.0000000000000000000, 3.799999999999999822 ) ) ;
#503 = CARTESIAN_POINT ( 'NONE',  ( -9.750000000000001776, 0.0000000000000000000, -3.799999999999999822 ) ) ;
#504 = ADVANCED_FACE ( 'NONE', ( #70 ), #1066, .F. ) ;
#505 = ORIENTED_EDGE ( 'NONE', *, *, #654, .F. ) ;
#506 = LINE ( 'NONE', #759, #548 ) ;
#507 = DIRECTION ( 'NONE',  ( -0.0000000000000000000, 1.000000000000000000, -0.0000000000000000000 ) ) ;
#508 = VERTEX_POINT ( 'NONE', #597 ) ;
#509 = ORIENTED_EDGE ( 'NONE', *, *, #667, .F. ) ;
#510 = FACE_BOUND ( 'NONE', #943, .T. ) ;
#511 = AXIS2_PLACEMENT_3D ( 'NONE', #691, #23, #519 ) ;
#512 = CARTESIAN_POINT ( 'NONE',  ( -7.899999999999999467, 0.0000000000000000000, -2.500000000000000000 ) ) ;
#513 = VECTOR ( 'NONE', #37, 1000.000000000000000 ) ;
#514 = ORIENTED_EDGE ( 'NONE', *, *, #852, .T. ) ;
#515 = VERTEX_POINT ( 'NONE', #592 ) ;
#516 = LINE ( 'NONE', #171, #388 ) ;
#517 = EDGE_CURVE ( 'NONE', #1009, #77, #1021, .T. ) ;
#518 = PLANE ( 'NONE',  #890 ) ;
#519 = DIRECTION ( 'NONE',  ( 1.000000000000000000, 0.0000000000000000000, 0.0000000000000000000 ) ) ;
#520 = ORIENTED_EDGE ( 'NONE', *, *, #613, .T. ) ;
#521 = FACE_BOUND ( 'NONE', #989, .T. ) ;
#522 = CARTESIAN_POINT ( 'NONE',  ( 0.2199999999999996958, -3.700000000000000178, -2.750000000000000444 ) ) ;
#523 = ORIENTED_EDGE ( 'NONE', *, *, #682, .F. ) ;
#524 = AXIS2_PLACEMENT_3D ( 'NONE', #732, #226, #888 ) ;
#525 = CARTESIAN_POINT ( 'NONE',  ( -4.859999999999999432, -3.700000000000000178, -2.750000000000000444 ) ) ;
#526 = CLOSED_SHELL ( 'NONE', ( #818, #323, #581, #550, #672, #928, #1049, #607, #295, #730, #997, #914, #631, #749, #899, #150, #119, #271, #948, #413, #756, #868, #847, #803, #527, #34, #183, #983, #936, #235, #448, #532, #225, #504, #79 ) ) ;
#527 = ADVANCED_FACE ( 'NONE', ( #9 ), #518, .T. ) ;
#528 = VERTEX_POINT ( 'NONE', #834 ) ;
#529 = AXIS2_PLACEMENT_3D ( 'NONE', #982, #656, #815 ) ;
#530 = CARTESIAN_POINT ( 'NONE',  ( -9.750000000000001776, 9.700000000000001066, -3.799999999999999822 ) ) ;
#531 = ORIENTED_EDGE ( 'NONE', *, *, #687, .T. ) ;
#532 = ADVANCED_FACE ( 'NONE', ( #106 ), #91, .F. ) ;
#533 = ORIENTED_EDGE ( 'NONE', *, *, #1042, .F. ) ;
#534 = DIRECTION ( 'NONE',  ( 1.000000000000000000, 0.0000000000000000000, 0.0000000000000000000 ) ) ;
#535 = DIRECTION ( 'NONE',  ( 1.000000000000000000, 0.0000000000000000000, 0.0000000000000000000 ) ) ;
#536 = ORIENTED_EDGE ( 'NONE', *, *, #731, .T. ) ;
#537 = CARTESIAN_POINT ( 'NONE',  ( 9.249999999999998224, 0.0000000000000000000, 3.800000000000003375 ) ) ;
#538 = VERTEX_POINT ( 'NONE', #851 ) ;
#539 = EDGE_CURVE ( 'NONE', #442, #879, #173, .T. ) ;
#540 = LINE ( 'NONE', #549, #82 ) ;
#541 =( NAMED_UNIT ( * ) SI_UNIT ( $, .STERADIAN. ) SOLID_ANGLE_UNIT ( ) );
#542 = DIRECTION ( 'NONE',  ( -1.000000000000000000, -0.0000000000000000000, -0.0000000000000000000 ) ) ;
#543 = EDGE_LOOP ( 'NONE', ( #286, #1035, #964, #637 ) ) ;
#544 = CARTESIAN_POINT ( 'NONE',  ( -0.2799999999999998601, -3.700000000000000178, -2.750000000000000444 ) ) ;
#545 = VECTOR ( 'NONE', #169, 1000.000000000000000 ) ;
#546 = VECTOR ( 'NONE', #807, 1000.000000000000000 ) ;
#547 = ORIENTED_EDGE ( 'NONE', *, *, #863, .F. ) ;
#548 = VECTOR ( 'NONE', #258, 1000.000000000000000 ) ;
#549 = CARTESIAN_POINT ( 'NONE',  ( -0.2799999999999998601, -3.700000000000000178, -2.500000000000000000 ) ) ;
#550 = ADVANCED_FACE ( 'NONE', ( #428 ), #755, .F. ) ;
#551 = DIRECTION ( 'NONE',  ( -4.565061778886335030E-16, 0.0000000000000000000, 1.000000000000000000 ) ) ;
#552 = CARTESIAN_POINT ( 'NONE',  ( 2.259999999999999787, 0.0000000000000000000, -2.750000000000000444 ) ) ;
#553 = EDGE_LOOP ( 'NONE', ( #276, #135, #769, #1025 ) ) ;
#554 = DIRECTION ( 'NONE',  ( -0.0000000000000000000, 1.000000000000000000, -0.0000000000000000000 ) ) ;
#555 = ORIENTED_EDGE ( 'NONE', *, *, #539, .T. ) ;
#556 = CARTESIAN_POINT ( 'NONE',  ( 5.299999999999999822, -3.700000000000000178, -2.750000000000000444 ) ) ;
#557 = CARTESIAN_POINT ( 'NONE',  ( 2.759999999999998455, -3.700000000000000178, -2.500000000000000000 ) ) ;
#558 = VERTEX_POINT ( 'NONE', #932 ) ;
#559 = CARTESIAN_POINT ( 'NONE',  ( -7.400000000000000355, 0.0000000000000000000, -2.500000000000000000 ) ) ;
#560 = ORIENTED_EDGE ( 'NONE', *, *, #783, .T. ) ;
#561 = DIRECTION ( 'NONE',  ( -0.0000000000000000000, 1.000000000000000000, -0.0000000000000000000 ) ) ;
#562 = LINE ( 'NONE', #496, #116 ) ;
#563 = CARTESIAN_POINT ( 'NONE',  ( -7.899999999999999467, 0.0000000000000000000, -2.750000000000000444 ) ) ;
#564 = DIRECTION ( 'NONE',  ( -0.0000000000000000000, 1.000000000000000000, -0.0000000000000000000 ) ) ;
#565 = EDGE_CURVE ( 'NONE', #528, #199, #420, .T. ) ;
#566 = ORIENTED_EDGE ( 'NONE', *, *, #176, .F. ) ;
#567 = VECTOR ( 'NONE', #761, 1000.000000000000000 ) ;
#568 = AXIS2_PLACEMENT_3D ( 'NONE', #400, #733, #148 ) ;
#569 = LINE ( 'NONE', #319, #129 ) ;
#570 = DIRECTION ( 'NONE',  ( 0.0000000000000000000, 0.0000000000000000000, -1.000000000000000000 ) ) ;
#571 = DIRECTION ( 'NONE',  ( -1.000000000000000000, -0.0000000000000000000, -0.0000000000000000000 ) ) ;
#572 = EDGE_LOOP ( 'NONE', ( #44, #104, #921, #1048 ) ) ;
#573 = EDGE_CURVE ( 'NONE', #671, #746, #185, .T. ) ;
#574 = PLANE ( 'NONE',  #779 ) ;
#575 = LINE ( 'NONE', #482, #422 ) ;
#576 = CARTESIAN_POINT ( 'NONE',  ( -7.400000000000000355, -3.700000000000000178, -2.500000000000000000 ) ) ;
#577 = LINE ( 'NONE', #903, #497 ) ;
#578 = ORIENTED_EDGE ( 'NONE', *, *, #137, .F. ) ;
#579 = CC_DESIGN_PERSON_AND_ORGANIZATION_ASSIGNMENT ( #151, #481, ( #339 ) ) ;
#580 = DIRECTION ( 'NONE',  ( -0.0000000000000000000, 1.000000000000000000, -0.0000000000000000000 ) ) ;
#581 = ADVANCED_FACE ( 'NONE', ( #354 ), #367, .F. ) ;
#582 = FACE_OUTER_BOUND ( 'NONE', #684, .T. ) ;
#583 = ORIENTED_EDGE ( 'NONE', *, *, #156, .T. ) ;
#584 = CARTESIAN_POINT ( 'NONE',  ( 2.259999999999999787, 0.0000000000000000000, -2.500000000000000000 ) ) ;
#585 = VECTOR ( 'NONE', #275, 1000.000000000000000 ) ;
#586 = VECTOR ( 'NONE', #155, 1000.000000000000000 ) ;
#587 = EDGE_CURVE ( 'NONE', #289, #791, #1038, .T. ) ;
#588 = VECTOR ( 'NONE', #484, 1000.000000000000000 ) ;
#589 = LINE ( 'NONE', #648, #230 ) ;
#590 = ORIENTED_EDGE ( 'NONE', *, *, #990, .T. ) ;
#591 = FACE_OUTER_BOUND ( 'NONE', #572, .T. ) ;
#592 = CARTESIAN_POINT ( 'NONE',  ( 4.800000000000000711, -3.700000000000000178, -2.750000000000000444 ) ) ;
#593 = APPROVAL ( #78, 'UNSPECIFIED' ) ;
#594 = DIRECTION ( 'NONE',  ( 2.282530889443167515E-16, 0.0000000000000000000, 1.000000000000000000 ) ) ;
#595 = ORIENTED_EDGE ( 'NONE', *, *, #954, .T. ) ;
#596 = FACE_OUTER_BOUND ( 'NONE', #93, .T. ) ;
#597 = CARTESIAN_POINT ( 'NONE',  ( 9.250000000000001776, 0.0000000000000000000, -3.799999999999999822 ) ) ;
#598 = CARTESIAN_POINT ( 'NONE',  ( -0.2799999999999998601, -3.700000000000000178, -2.750000000000000444 ) ) ;
#599 = ORIENTED_EDGE ( 'NONE', *, *, #687, .F. ) ;
#600 = EDGE_CURVE ( 'NONE', #701, #170, #540, .T. ) ;
#601 = ORIENTED_EDGE ( 'NONE', *, *, #242, .T. ) ;
#602 = LINE ( 'NONE', #584, #856 ) ;
#603 = AXIS2_PLACEMENT_3D ( 'NONE', #633, #362, #370 ) ;
#604 = VECTOR ( 'NONE', #215, 1000.000000000000000 ) ;
#605 = VECTOR ( 'NONE', #554, 1000.000000000000000 ) ;
#606 = ORIENTED_EDGE ( 'NONE', *, *, #878, .T. ) ;
#607 = ADVANCED_FACE ( 'NONE', ( #128 ), #120, .T. ) ;
#608 = CARTESIAN_POINT ( 'NONE',  ( 4.800000000000000711, -3.700000000000000178, -2.750000000000000444 ) ) ;
#609 = CARTESIAN_POINT ( 'NONE',  ( 9.249999999999998224, -0.5000000000000000000, -3.799999999999998490 ) ) ;
#610 = ORIENTED_EDGE ( 'NONE', *, *, #267, .F. ) ;
#611 = ORIENTED_EDGE ( 'NONE', *, *, #398, .T. ) ;
#612 = CARTESIAN_POINT ( 'NONE',  ( -7.400000000000000355, -3.700000000000000178, -2.500000000000000000 ) ) ;
#613 = EDGE_CURVE ( 'NONE', #363, #871, #774, .T. ) ;
#614 = CARTESIAN_POINT ( 'NONE',  ( -9.750000000000000000, -0.5000000000000000000, 3.799999999999999822 ) ) ;
#615 = ORIENTED_EDGE ( 'NONE', *, *, #464, .F. ) ;
#616 = DESIGN_CONTEXT ( 'detailed design', #476, 'design' ) ;
#617 = EDGE_CURVE ( 'NONE', #698, #127, #950, .T. ) ;
#618 = CARTESIAN_POINT ( 'NONE',  ( -9.750000000000000000, 9.700000000000001066, 3.799999999999999822 ) ) ;
#619 = ORIENTED_EDGE ( 'NONE', *, *, #312, .T. ) ;
#620 = VECTOR ( 'NONE', #564, 1000.000000000000000 ) ;
#621 = LINE ( 'NONE', #877, #1073 ) ;
#622 = DIRECTION ( 'NONE',  ( -0.0000000000000000000, 1.000000000000000000, -0.0000000000000000000 ) ) ;
#623 = DIRECTION ( 'NONE',  ( 0.0000000000000000000, 0.0000000000000000000, -1.000000000000000000 ) ) ;
#624 = EDGE_CURVE ( 'NONE', #1037, #363, #54, .T. ) ;
#625 = ORIENTED_EDGE ( 'NONE', *, *, #487, .F. ) ;
#626 = FACE_OUTER_BOUND ( 'NONE', #939, .T. ) ;
#627 = CARTESIAN_POINT ( 'NONE',  ( 2.759999999999998455, 0.0000000000000000000, -2.500000000000000000 ) ) ;
#628 = VERTEX_POINT ( 'NONE', #693 ) ;
#629 = CARTESIAN_POINT ( 'NONE',  ( -5.359999999999999432, -3.700000000000000178, -2.500000000000000000 ) ) ;
#630 = EDGE_LOOP ( 'NONE', ( #315, #971, #149, #257 ) ) ;
#631 = ADVANCED_FACE ( 'NONE', ( #1023 ), #272, .F. ) ;
#632 = CARTESIAN_POINT ( 'NONE',  ( 9.749999999999998224, 9.700000000000001066, -3.799999999999999822 ) ) ;
#633 = CARTESIAN_POINT ( 'NONE',  ( 9.249999999999998224, -0.5000000000000000000, -3.799999999999998490 ) ) ;
#634 = ORIENTED_EDGE ( 'NONE', *, *, #8, .F. ) ;
#635 = DIRECTION ( 'NONE',  ( -1.000000000000000000, 0.0000000000000000000, -0.0000000000000000000 ) ) ;
#636 = VECTOR ( 'NONE', #250, 1000.000000000000000 ) ;
#637 = ORIENTED_EDGE ( 'NONE', *, *, #682, .T. ) ;
#638 = VECTOR ( 'NONE', #240, 1000.000000000000000 ) ;
#639 = CARTESIAN_POINT ( 'NONE',  ( 4.800000000000000711, 0.0000000000000000000, -2.750000000000000444 ) ) ;
#640 = CARTESIAN_POINT ( 'NONE',  ( -9.250000000000001776, -0.5000000000000000000, 3.799999999999999822 ) ) ;
#641 = CARTESIAN_POINT ( 'NONE',  ( 4.800000000000000711, 0.0000000000000000000, -2.500000000000000000 ) ) ;
#642 = ORIENTED_EDGE ( 'NONE', *, *, #708, .F. ) ;
#643 = DIRECTION ( 'NONE',  ( -0.0000000000000000000, 0.0000000000000000000, 1.000000000000000000 ) ) ;
#644 = ORIENTED_EDGE ( 'NONE', *, *, #783, .F. ) ;
#645 = APPROVAL_STATUS ( 'not_yet_approved' ) ;
#646 = DIRECTION ( 'NONE',  ( -1.000000000000000000, -0.0000000000000000000, -0.0000000000000000000 ) ) ;
#647 = EDGE_CURVE ( 'NONE', #228, #1070, #1064, .T. ) ;
#648 = CARTESIAN_POINT ( 'NONE',  ( -7.899999999999999467, -3.700000000000000178, -2.750000000000000444 ) ) ;
#649 = DIRECTION ( 'NONE',  ( -3.469446951953611033E-15, -0.0000000000000000000, 1.000000000000000000 ) ) ;
#650 = ORIENTED_EDGE ( 'NONE', *, *, #770, .T. ) ;
#651 = FACE_OUTER_BOUND ( 'NONE', #892, .T. ) ;
#652 = DIRECTION ( 'NONE',  ( -1.000000000000000000, 0.0000000000000000000, -4.565061778886335030E-16 ) ) ;
#653 = DIRECTION ( 'NONE',  ( 0.0000000000000000000, -1.000000000000000000, 0.0000000000000000000 ) ) ;
#654 = EDGE_CURVE ( 'NONE', #854, #692, #1050, .T. ) ;
#655 = LINE ( 'NONE', #75, #980 ) ;
#656 = DIRECTION ( 'NONE',  ( -1.000000000000000000, 0.0000000000000000000, -3.469446951953611033E-15 ) ) ;
#657 = ORIENTED_EDGE ( 'NONE', *, *, #878, .F. ) ;
#658 = AXIS2_PLACEMENT_3D ( 'NONE', #307, #814, #328 ) ;
#659 = VECTOR ( 'NONE', #285, 1000.000000000000000 ) ;
#660 = LINE ( 'NONE', #639, #439 ) ;
#661 = ORGANIZATION ( 'UNSPECIFIED', 'UNSPECIFIED', '' ) ;
#662 = SECURITY_CLASSIFICATION_LEVEL ( 'unclassified' ) ;
#663 = DIRECTION ( 'NONE',  ( -0.0000000000000000000, 1.000000000000000000, -0.0000000000000000000 ) ) ;
#664 = LINE ( 'NONE', #80, #869 ) ;
#665 = PLANE ( 'NONE',  #529 ) ;
#666 = ORIENTED_EDGE ( 'NONE', *, *, #731, .F. ) ;
#667 = EDGE_CURVE ( 'NONE', #898, #538, #392, .T. ) ;
#668 = LINE ( 'NONE', #991, #604 ) ;
#669 = LINE ( 'NONE', #238, #197 ) ;
#670 = LINE ( 'NONE', #503, #493 ) ;
#671 = VERTEX_POINT ( 'NONE', #811 ) ;
#672 = ADVANCED_FACE ( 'NONE', ( #651 ), #574, .F. ) ;
#673 = CARTESIAN_POINT ( 'NONE',  ( 0.2199999999999996958, 0.0000000000000000000, -2.750000000000000444 ) ) ;
#674 = LINE ( 'NONE', #410, #546 ) ;
#675 = PLANE ( 'NONE',  #61 ) ;
#676 = EDGE_LOOP ( 'NONE', ( #753, #634, #821, #292 ) ) ;
#677 = VECTOR ( 'NONE', #178, 1000.000000000000000 ) ;
#678 = LOCAL_TIME ( 15, 14, 13.00000000000000000, #1044 ) ;
#679 = DIRECTION ( 'NONE',  ( 1.000000000000000000, 0.0000000000000000000, 0.0000000000000000000 ) ) ;
#680 = ORIENTED_EDGE ( 'NONE', *, *, #1067, .T. ) ;
#681 = CARTESIAN_POINT ( 'NONE',  ( -9.750000000000001776, -0.5000000000000000000, -3.799999999999999822 ) ) ;
#682 = EDGE_CURVE ( 'NONE', #363, #138, #316, .T. ) ;
#683 = DIRECTION ( 'NONE',  ( 0.0000000000000000000, 0.0000000000000000000, -1.000000000000000000 ) ) ;
#684 = EDGE_LOOP ( 'NONE', ( #302, #523, #916, #97 ) ) ;
#685 = LINE ( 'NONE', #1018, #690 ) ;
#686 = DIRECTION ( 'NONE',  ( -1.000000000000000000, 0.0000000000000000000, 2.282530889443167515E-16 ) ) ;
#687 = EDGE_CURVE ( 'NONE', #832, #719, #660, .T. ) ;
#688 = ORIENTED_EDGE ( 'NONE', *, *, #1007, .T. ) ;
#689 = CARTESIAN_POINT ( 'NONE',  ( -7.899999999999999467, -3.700000000000000178, -2.750000000000000444 ) ) ;
#690 = VECTOR ( 'NONE', #744, 1000.000000000000000 ) ;
#691 = CARTESIAN_POINT ( 'NONE',  ( -0.2799999999999998601, -3.700000000000000178, -2.750000000000000444 ) ) ;
#692 = VERTEX_POINT ( 'NONE', #893 ) ;
#693 = CARTESIAN_POINT ( 'NONE',  ( 9.750000000000000000, 9.700000000000001066, 3.799999999999999822 ) ) ;
#694 = LINE ( 'NONE', #598, #179 ) ;
#695 = VERTEX_POINT ( 'NONE', #974 ) ;
#696 = EDGE_CURVE ( 'NONE', #408, #719, #985, .T. ) ;
#697 = EDGE_LOOP ( 'NONE', ( #973, #713, #234, #836 ) ) ;
#698 = VERTEX_POINT ( 'NONE', #1078 ) ;
#699 = DIRECTION ( 'NONE',  ( 0.0000000000000000000, -0.0000000000000000000, -1.000000000000000000 ) ) ;
#700 = CARTESIAN_POINT ( 'NONE',  ( 9.249999999999998224, -0.5000000000000000000, -3.799999999999998490 ) ) ;
#701 = VERTEX_POINT ( 'NONE', #325 ) ;
#702 = CARTESIAN_POINT ( 'NONE',  ( -5.359999999999999432, 0.0000000000000000000, -2.750000000000000444 ) ) ;
#703 = CC_DESIGN_APPROVAL ( #40, ( #1032 ) ) ;
#704 = ORIENTED_EDGE ( 'NONE', *, *, #369, .T. ) ;
#705 = DIRECTION ( 'NONE',  ( 0.0000000000000000000, 0.0000000000000000000, -1.000000000000000000 ) ) ;
#706 = LINE ( 'NONE', #632, #252 ) ;
#707 = CARTESIAN_POINT ( 'NONE',  ( 2.259999999999999787, 0.0000000000000000000, -2.500000000000000000 ) ) ;
#708 = EDGE_CURVE ( 'NONE', #959, #279, #303, .T. ) ;
#709 = DIRECTION ( 'NONE',  ( -1.000000000000000000, -0.0000000000000000000, -0.0000000000000000000 ) ) ;
#710 = DIRECTION ( 'NONE',  ( 0.0000000000000000000, 0.0000000000000000000, -1.000000000000000000 ) ) ;
#711 = EDGE_LOOP ( 'NONE', ( #397, #191, #644, #816 ) ) ;
#712 = LINE ( 'NONE', #707, #823 ) ;
#713 = ORIENTED_EDGE ( 'NONE', *, *, #369, .F. ) ;
#714 = CARTESIAN_POINT ( 'NONE',  ( 0.0000000000000000000, -3.700000000000000178, 0.0000000000000000000 ) ) ;
#715 = ORIENTED_EDGE ( 'NONE', *, *, #647, .F. ) ;
#716 = ORIENTED_EDGE ( 'NONE', *, *, #143, .F. ) ;
#717 = FACE_OUTER_BOUND ( 'NONE', #927, .T. ) ;
#718 = AXIS2_PLACEMENT_3D ( 'NONE', #121, #864, #299 ) ;
#719 = VERTEX_POINT ( 'NONE', #387 ) ;
#720 = VECTOR ( 'NONE', #142, 1000.000000000000000 ) ;
#721 = EDGE_CURVE ( 'NONE', #538, #340, #668, .T. ) ;
#722 = PERSON_AND_ORGANIZATION_ROLE ( 'design_owner' ) ;
#723 = LINE ( 'NONE', #559, #801 ) ;
#724 = EDGE_LOOP ( 'NONE', ( #650, #940, #1001, #241 ) ) ;
#725 = PLANE ( 'NONE',  #278 ) ;
#726 = CARTESIAN_POINT ( 'NONE',  ( -7.899999999999999467, 0.0000000000000000000, -2.750000000000000444 ) ) ;
#727 = LINE ( 'NONE', #897, #638 ) ;
#728 = ORIENTED_EDGE ( 'NONE', *, *, #361, .F. ) ;
#729 = DIRECTION ( 'NONE',  ( -1.000000000000000000, 0.0000000000000000000, -3.469446951953611033E-15 ) ) ;
#730 = ADVANCED_FACE ( 'NONE', ( #1058 ), #345, .T. ) ;
#731 = EDGE_CURVE ( 'NONE', #925, #294, #602, .T. ) ;
#732 = CARTESIAN_POINT ( 'NONE',  ( 0.0000000000000000000, -3.700000000000000178, 0.0000000000000000000 ) ) ;
#733 = DIRECTION ( 'NONE',  ( 1.000000000000000000, 0.0000000000000000000, 0.0000000000000000000 ) ) ;
#734 = ORIENTED_EDGE ( 'NONE', *, *, #920, .F. ) ;
#735 = AXIS2_PLACEMENT_3D ( 'NONE', #102, #913, #1013 ) ;
#736 = APPROVAL_PERSON_ORGANIZATION ( #494, #40, #243 ) ;
#737 = CARTESIAN_POINT ( 'NONE',  ( -7.899999999999999467, -3.700000000000000178, -2.500000000000000000 ) ) ;
#738 = EDGE_CURVE ( 'NONE', #558, #228, #685, .T. ) ;
#739 = ORIENTED_EDGE ( 'NONE', *, *, #101, .F. ) ;
#740 = FACE_BOUND ( 'NONE', #154, .T. ) ;
#741 = COORDINATED_UNIVERSAL_TIME_OFFSET ( 8, 0, .AHEAD. ) ;
#742 = DIRECTION ( 'NONE',  ( -0.0000000000000000000, -1.000000000000000000, -0.0000000000000000000 ) ) ;
#743 = ORIENTED_EDGE ( 'NONE', *, *, #107, .T. ) ;
#744 = DIRECTION ( 'NONE',  ( -0.0000000000000000000, -1.000000000000000000, -0.0000000000000000000 ) ) ;
#745 = CARTESIAN_POINT ( 'NONE',  ( 2.259999999999999787, 0.0000000000000000000, -2.750000000000000444 ) ) ;
#746 = VERTEX_POINT ( 'NONE', #673 ) ;
#747 = DIRECTION ( 'NONE',  ( 0.0000000000000000000, 0.0000000000000000000, -1.000000000000000000 ) ) ;
#748 = VECTOR ( 'NONE', #962, 1000.000000000000000 ) ;
#749 = ADVANCED_FACE ( 'NONE', ( #254 ), #922, .F. ) ;
#750 = CALENDAR_DATE ( 2020, 13, 11 ) ;
#751 = CC_DESIGN_APPROVAL ( #593, ( #339 ) ) ;
#752 = PLANE ( 'NONE',  #909 ) ;
#753 = ORIENTED_EDGE ( 'NONE', *, *, #137, .T. ) ;
#754 = DIRECTION ( 'NONE',  ( -1.000000000000000000, 0.0000000000000000000, -0.0000000000000000000 ) ) ;
#755 = PLANE ( 'NONE',  #1031 ) ;
#756 = ADVANCED_FACE ( 'NONE', ( #409 ), #262, .F. ) ;
#757 = ORIENTED_EDGE ( 'NONE', *, *, #73, .F. ) ;
#758 = ORIENTED_EDGE ( 'NONE', *, *, #852, .F. ) ;
#759 = CARTESIAN_POINT ( 'NONE',  ( 4.800000000000000711, -3.700000000000000178, -2.500000000000000000 ) ) ;
#760 = PERSON ( 'UNSPECIFIED', 'UNSPECIFIED', 'UNSPECIFIED', ('UNSPECIFIED'), ('UNSPECIFIED'), ('UNSPECIFIED') ) ;
#761 = DIRECTION ( 'NONE',  ( -0.0000000000000000000, -1.000000000000000000, -0.0000000000000000000 ) ) ;
#762 = EDGE_CURVE ( 'NONE', #764, #1009, #516, .T. ) ;
#763 = LINE ( 'NONE', #346, #452 ) ;
#764 = VERTEX_POINT ( 'NONE', #188 ) ;
#765 = DIRECTION ( 'NONE',  ( 1.000000000000000000, 0.0000000000000000000, 0.0000000000000000000 ) ) ;
#766 = VECTOR ( 'NONE', #683, 1000.000000000000000 ) ;
#767 = VECTOR ( 'NONE', #1034, 1000.000000000000000 ) ;
#768 = DIRECTION ( 'NONE',  ( -3.469446951953611033E-15, 0.0000000000000000000, 1.000000000000000000 ) ) ;
#769 = ORIENTED_EDGE ( 'NONE', *, *, #565, .F. ) ;
#770 = EDGE_CURVE ( 'NONE', #695, #698, #13, .T. ) ;
#771 = DIRECTION ( 'NONE',  ( -1.000000000000000000, 0.0000000000000000000, -0.0000000000000000000 ) ) ;
#772 = CARTESIAN_POINT ( 'NONE',  ( -4.860000000000000320, -3.700000000000000178, -2.500000000000000000 ) ) ;
#773 = ORIENTED_EDGE ( 'NONE', *, *, #696, .F. ) ;
#774 = LINE ( 'NONE', #941, #181 ) ;
#775 = ORIENTED_EDGE ( 'NONE', *, *, #304, .T. ) ;
#776 = CARTESIAN_POINT ( 'NONE',  ( 4.800000000000000711, -3.700000000000000178, -2.500000000000000000 ) ) ;
#777 = EDGE_LOOP ( 'NONE', ( #704, #505, #122, #619 ) ) ;
#778 = VECTOR ( 'NONE', #499, 1000.000000000000000 ) ;
#779 = AXIS2_PLACEMENT_3D ( 'NONE', #486, #1071, #900 ) ;
#780 = VERTEX_POINT ( 'NONE', #689 ) ;
#781 = DIRECTION ( 'NONE',  ( 0.0000000000000000000, -0.0000000000000000000, -1.000000000000000000 ) ) ;
#782 = ORIENTED_EDGE ( 'NONE', *, *, #377, .F. ) ;
#783 = EDGE_CURVE ( 'NONE', #885, #515, #506, .T. ) ;
#784 = DIRECTION ( 'NONE',  ( -3.469446951953611033E-15, -0.0000000000000000000, 1.000000000000000000 ) ) ;
#785 = LINE ( 'NONE', #381, #277 ) ;
#786 = CARTESIAN_POINT ( 'NONE',  ( -0.2799999999999998601, 0.0000000000000000000, -2.500000000000000000 ) ) ;
#787 = UNCERTAINTY_MEASURE_WITH_UNIT (LENGTH_MEASURE( 1.000000000000000082E-05 ), #790, 'distance_accuracy_value', 'NONE');
#788 = VERTEX_POINT ( 'NONE', #681 ) ;
#789 = DIRECTION ( 'NONE',  ( 0.0000000000000000000, -1.000000000000000000, 0.0000000000000000000 ) ) ;
#790 =( LENGTH_UNIT ( ) NAMED_UNIT ( * ) SI_UNIT ( .MILLI., .METRE. ) );
#791 = VERTEX_POINT ( 'NONE', #833 ) ;
#792 = LINE ( 'NONE', #786, #513 ) ;
#793 = EDGE_CURVE ( 'NONE', #515, #408, #432, .T. ) ;
#794 = ORIENTED_EDGE ( 'NONE', *, *, #190, .T. ) ;
#795 = DIRECTION ( 'NONE',  ( 2.282530889443167515E-16, 0.0000000000000000000, 1.000000000000000000 ) ) ;
#796 = DIRECTION ( 'NONE',  ( -1.000000000000000000, -0.0000000000000000000, -0.0000000000000000000 ) ) ;
#797 = VECTOR ( 'NONE', #883, 1000.000000000000000 ) ;
#798 = CARTESIAN_POINT ( 'NONE',  ( 4.800000000000000711, 0.0000000000000000000, -2.500000000000000000 ) ) ;
#799 = DIRECTION ( 'NONE',  ( -1.000000000000000000, 0.0000000000000000000, -3.469446951953611033E-15 ) ) ;
#800 = AXIS2_PLACEMENT_3D ( 'NONE', #217, #653, #394 ) ;
#801 = VECTOR ( 'NONE', #649, 1000.000000000000000 ) ;
#802 = ORIENTED_EDGE ( 'NONE', *, *, #954, .F. ) ;
#803 = ADVANCED_FACE ( 'NONE', ( #596 ), #349, .F. ) ;
#804 = AXIS2_PLACEMENT_3D ( 'NONE', #1059, #223, #456 ) ;
#805 = DIRECTION ( 'NONE',  ( -3.469446951953611033E-15, 0.0000000000000000000, 1.000000000000000000 ) ) ;
#806 = PERSON_AND_ORGANIZATION ( #760, #661 ) ;
#807 = DIRECTION ( 'NONE',  ( 1.000000000000000000, 0.0000000000000000000, 0.0000000000000000000 ) ) ;
#808 = FACE_OUTER_BOUND ( 'NONE', #724, .T. ) ;
#809 = FACE_OUTER_BOUND ( 'NONE', #500, .T. ) ;
#810 = EDGE_LOOP ( 'NONE', ( #144, #445, #20, #7 ) ) ;
#811 = CARTESIAN_POINT ( 'NONE',  ( -0.2799999999999998601, 0.0000000000000000000, -2.750000000000000444 ) ) ;
#812 = APPROVAL_DATE_TIME ( #90, #593 ) ;
#813 = CARTESIAN_POINT ( 'NONE',  ( 9.249999999999998224, -0.5000000000000000000, 3.800000000000003375 ) ) ;
#814 = DIRECTION ( 'NONE',  ( 1.000000000000000000, 0.0000000000000000000, 0.0000000000000000000 ) ) ;
#815 = DIRECTION ( 'NONE',  ( -3.469446951953611033E-15, 0.0000000000000000000, 1.000000000000000000 ) ) ;
#816 = ORIENTED_EDGE ( 'NONE', *, *, #845, .T. ) ;
#817 = DATE_AND_TIME ( #750, #99 ) ;
#818 = ADVANCED_FACE ( 'NONE', ( #521, #418, #591, #740, #510, #6 ), #100, .F. ) ;
#819 = LINE ( 'NONE', #981, #855 ) ;
#820 = CARTESIAN_POINT ( 'NONE',  ( -7.899999999999999467, -3.700000000000000178, -2.500000000000000000 ) ) ;
#821 = ORIENTED_EDGE ( 'NONE', *, *, #837, .F. ) ;
#822 = VECTOR ( 'NONE', #86, 1000.000000000000000 ) ;
#823 = VECTOR ( 'NONE', #542, 1000.000000000000000 ) ;
#824 = VECTOR ( 'NONE', #414, 1000.000000000000000 ) ;
#825 = PERSON_AND_ORGANIZATION_ROLE ( 'classification_officer' ) ;
#826 = DIRECTION ( 'NONE',  ( 1.000000000000000000, 0.0000000000000000000, 0.0000000000000000000 ) ) ;
#827 = DIRECTION ( 'NONE',  ( 0.0000000000000000000, 0.0000000000000000000, -1.000000000000000000 ) ) ;
#828 = ORIENTED_EDGE ( 'NONE', *, *, #762, .F. ) ;
#829 = DIRECTION ( 'NONE',  ( 0.0000000000000000000, 0.0000000000000000000, -1.000000000000000000 ) ) ;
#830 = APPROVAL_DATE_TIME ( #817, #40 ) ;
#831 = PLANE ( 'NONE',  #1051 ) ;
#832 = VERTEX_POINT ( 'NONE', #246 ) ;
#833 = CARTESIAN_POINT ( 'NONE',  ( 0.2199999999999988354, 0.0000000000000000000, -2.500000000000000000 ) ) ;
#834 = CARTESIAN_POINT ( 'NONE',  ( -9.750000000000000000, 9.700000000000001066, 3.799999999999999822 ) ) ;
#835 = CARTESIAN_POINT ( 'NONE',  ( -9.750000000000001776, 9.700000000000001066, -3.799999999999999822 ) ) ;
#836 = ORIENTED_EDGE ( 'NONE', *, *, #1072, .F. ) ;
#837 = EDGE_CURVE ( 'NONE', #780, #898, #911, .T. ) ;
#838 = CARTESIAN_POINT ( 'NONE',  ( 0.0000000000000000000, -0.5000000000000000000, 0.0000000000000000000 ) ) ;
#839 = VECTOR ( 'NONE', #895, 1000.000000000000000 ) ;
#840 = VECTOR ( 'NONE', #917, 1000.000000000000000 ) ;
#841 = FACE_OUTER_BOUND ( 'NONE', #16, .T. ) ;
#842 = EDGE_LOOP ( 'NONE', ( #560, #470, #125, #680 ) ) ;
#843 = ORIENTED_EDGE ( 'NONE', *, *, #50, .T. ) ;
#844 = DIRECTION ( 'NONE',  ( -0.0000000000000000000, 1.000000000000000000, -0.0000000000000000000 ) ) ;
#845 = EDGE_CURVE ( 'NONE', #885, #309, #501, .T. ) ;
#846 = CARTESIAN_POINT ( 'NONE',  ( -0.2799999999999998601, 0.0000000000000000000, -2.750000000000000444 ) ) ;
#847 = ADVANCED_FACE ( 'NONE', ( #376 ), #451, .F. ) ;
#848 = DIRECTION ( 'NONE',  ( 0.0000000000000000000, 0.0000000000000000000, -1.000000000000000000 ) ) ;
#849 = EDGE_LOOP ( 'NONE', ( #861, #715, #270, #533 ) ) ;
#850 = DIRECTION ( 'NONE',  ( 0.0000000000000000000, -0.0000000000000000000, 1.000000000000000000 ) ) ;
#851 = CARTESIAN_POINT ( 'NONE',  ( -7.400000000000000355, -3.700000000000000178, -2.500000000000000000 ) ) ;
#852 = EDGE_CURVE ( 'NONE', #791, #170, #792, .T. ) ;
#853 = DIRECTION ( 'NONE',  ( -1.000000000000000000, 0.0000000000000000000, -3.469446951953611033E-15 ) ) ;
#854 = VERTEX_POINT ( 'NONE', #110 ) ;
#855 = VECTOR ( 'NONE', #742, 1000.000000000000000 ) ;
#856 = VECTOR ( 'NONE', #747, 1000.000000000000000 ) ;
#857 = CARTESIAN_POINT ( 'NONE',  ( -7.899999999999999467, 0.0000000000000000000, -2.500000000000000000 ) ) ;
#858 = AXIS2_PLACEMENT_3D ( 'NONE', #426, #17, #996 ) ;
#859 = VERTEX_POINT ( 'NONE', #1036 ) ;
#860 = DIRECTION ( 'NONE',  ( -0.0000000000000000000, 1.000000000000000000, -0.0000000000000000000 ) ) ;
#861 = ORIENTED_EDGE ( 'NONE', *, *, #143, .T. ) ;
#862 = VERTEX_POINT ( 'NONE', #544 ) ;
#863 = EDGE_CURVE ( 'NONE', #274, #33, #723, .T. ) ;
#864 = DIRECTION ( 'NONE',  ( 1.000000000000000000, 0.0000000000000000000, -2.282530889443167515E-16 ) ) ;
#865 = EDGE_LOOP ( 'NONE', ( #874, #728, #955, #595 ) ) ;
#866 = CARTESIAN_POINT ( 'NONE',  ( 2.259999999999999787, -3.700000000000000178, -2.500000000000000000 ) ) ;
#867 = ORIENTED_EDGE ( 'NONE', *, *, #696, .T. ) ;
#868 = ADVANCED_FACE ( 'NONE', ( #717 ), #58, .F. ) ;
#869 = VECTOR ( 'NONE', #1068, 1000.000000000000000 ) ;
#870 = AXIS2_PLACEMENT_3D ( 'NONE', #838, #177, #84 ) ;
#871 = VERTEX_POINT ( 'NONE', #872 ) ;
#872 = CARTESIAN_POINT ( 'NONE',  ( -4.860000000000000320, -3.700000000000000178, -2.500000000000000000 ) ) ;
#873 = VECTOR ( 'NONE', #81, 1000.000000000000000 ) ;
#874 = ORIENTED_EDGE ( 'NONE', *, *, #573, .T. ) ;
#875 = CC_DESIGN_PERSON_AND_ORGANIZATION_ASSIGNMENT ( #331, #1005, ( #339 ) ) ;
#876 = PERSON_AND_ORGANIZATION ( #760, #661 ) ;
#877 = CARTESIAN_POINT ( 'NONE',  ( 2.759999999999998455, 0.0000000000000000000, -2.500000000000000000 ) ) ;
#878 = EDGE_CURVE ( 'NONE', #746, #791, #466, .T. ) ;
#879 = VERTEX_POINT ( 'NONE', #537 ) ;
#880 = VERTEX_POINT ( 'NONE', #139 ) ;
#881 =( NAMED_UNIT ( * ) PLANE_ANGLE_UNIT ( ) SI_UNIT ( $, .RADIAN. ) );
#882 = EDGE_CURVE ( 'NONE', #959, #695, #1047, .T. ) ;
#883 = DIRECTION ( 'NONE',  ( -0.0000000000000000000, 1.000000000000000000, -0.0000000000000000000 ) ) ;
#884 = CARTESIAN_POINT ( 'NONE',  ( -0.2799999999999998601, 0.0000000000000000000, -2.500000000000000000 ) ) ;
#885 = VERTEX_POINT ( 'NONE', #776 ) ;
#886 = LINE ( 'NONE', #477, #63 ) ;
#887 = VECTOR ( 'NONE', #827, 1000.000000000000000 ) ;
#888 = DIRECTION ( 'NONE',  ( 0.0000000000000000000, -0.0000000000000000000, -1.000000000000000000 ) ) ;
#889 = CARTESIAN_POINT ( 'NONE',  ( -5.359999999999999432, -3.700000000000000178, -2.750000000000000444 ) ) ;
#890 = AXIS2_PLACEMENT_3D ( 'NONE', #1006, #999, #342 ) ;
#891 = AXIS2_PLACEMENT_3D ( 'NONE', #972, #643, #220 ) ;
#892 = EDGE_LOOP ( 'NONE', ( #160, #4, #192, #430, #828, #615, #566, #424 ) ) ;
#893 = CARTESIAN_POINT ( 'NONE',  ( -5.359999999999999432, 0.0000000000000000000, -2.500000000000000000 ) ) ;
#894 = ADVANCED_BREP_SHAPE_REPRESENTATION ( 'TMH Dual Output', ( #383, #804 ), #454 ) ;
#895 = DIRECTION ( 'NONE',  ( -3.469446951953611033E-15, -0.0000000000000000000, 1.000000000000000000 ) ) ;
#896 = LINE ( 'NONE', #915, #545 ) ;
#897 = CARTESIAN_POINT ( 'NONE',  ( 0.2199999999999988354, -3.700000000000000178, -2.500000000000000000 ) ) ;
#898 = VERTEX_POINT ( 'NONE', #52 ) ;
#899 = ADVANCED_FACE ( 'NONE', ( #1055 ), #308, .T. ) ;
#900 = DIRECTION ( 'NONE',  ( 1.000000000000000000, 0.0000000000000000000, -0.0000000000000000000 ) ) ;
#901 = COORDINATED_UNIVERSAL_TIME_OFFSET ( 8, 0, .AHEAD. ) ;
#902 = FACE_OUTER_BOUND ( 'NONE', #1043, .T. ) ;
#903 = CARTESIAN_POINT ( 'NONE',  ( -5.359999999999999432, -3.700000000000000178, -2.500000000000000000 ) ) ;
#904 = ORIENTED_EDGE ( 'NONE', *, *, #845, .F. ) ;
#905 = CARTESIAN_POINT ( 'NONE',  ( -7.400000000000000355, -3.700000000000000178, -2.500000000000000000 ) ) ;
#906 = PRODUCT_RELATED_PRODUCT_CATEGORY ( 'detail', '', ( #1030 ) ) ;
#907 = DIRECTION ( 'NONE',  ( -1.000000000000000000, 0.0000000000000000000, 6.938893903907198401E-15 ) ) ;
#908 = EDGE_LOOP ( 'NONE', ( #467, #1028, #1063, #453, #219, #358, #716, #200 ) ) ;
#909 = AXIS2_PLACEMENT_3D ( 'NONE', #264, #933, #186 ) ;
#910 = VECTOR ( 'NONE', #795, 1000.000000000000000 ) ;
#911 = LINE ( 'NONE', #167, #840 ) ;
#912 = VECTOR ( 'NONE', #268, 1000.000000000000000 ) ;
#913 = DIRECTION ( 'NONE',  ( 0.0000000000000000000, 0.0000000000000000000, -1.000000000000000000 ) ) ;
#914 = ADVANCED_FACE ( 'NONE', ( #977 ), #382, .F. ) ;
#915 = CARTESIAN_POINT ( 'NONE',  ( 2.259999999999999787, -3.700000000000000178, -2.500000000000000000 ) ) ;
#916 = ORIENTED_EDGE ( 'NONE', *, *, #624, .F. ) ;
#917 = DIRECTION ( 'NONE',  ( 1.000000000000000000, 0.0000000000000000000, 0.0000000000000000000 ) ) ;
#918 = COORDINATED_UNIVERSAL_TIME_OFFSET ( 8, 0, .AHEAD. ) ;
#919 = CARTESIAN_POINT ( 'NONE',  ( 9.749999999999998224, -0.5000000000000000000, -3.799999999999999822 ) ) ;
#920 = EDGE_CURVE ( 'NONE', #170, #671, #372, .T. ) ;
#921 = ORIENTED_EDGE ( 'NONE', *, *, #517, .F. ) ;
#922 = PLANE ( 'NONE',  #1019 ) ;
#923 = DIRECTION ( 'NONE',  ( 1.000000000000000000, 0.0000000000000000000, 0.0000000000000000000 ) ) ;
#924 = PLANE ( 'NONE',  #511 ) ;
#925 = VERTEX_POINT ( 'NONE', #364 ) ;
#926 = VECTOR ( 'NONE', #594, 1000.000000000000000 ) ;
#927 = EDGE_LOOP ( 'NONE', ( #531, #773, #366, #436 ) ) ;
#928 = ADVANCED_FACE ( 'NONE', ( #471 ), #65, .T. ) ;
#929 = DIRECTION ( 'NONE',  ( 1.000000000000000000, 0.0000000000000000000, 0.0000000000000000000 ) ) ;
#930 = VECTOR ( 'NONE', #937, 1000.000000000000000 ) ;
#931 = AXIS2_PLACEMENT_3D ( 'NONE', #126, #710, #45 ) ;
#932 = CARTESIAN_POINT ( 'NONE',  ( 9.749999999999998224, 9.700000000000001066, -3.799999999999999822 ) ) ;
#933 = DIRECTION ( 'NONE',  ( -1.000000000000000000, 0.0000000000000000000, -3.469446951953611033E-15 ) ) ;
#934 = VERTEX_POINT ( 'NONE', #702 ) ;
#935 = DIRECTION ( 'NONE',  ( 0.0000000000000000000, 0.0000000000000000000, -1.000000000000000000 ) ) ;
#936 = ADVANCED_FACE ( 'NONE', ( #953 ), #202, .F. ) ;
#937 = DIRECTION ( 'NONE',  ( -4.565061778886335030E-16, -0.0000000000000000000, 1.000000000000000000 ) ) ;
#938 = DIRECTION ( 'NONE',  ( -0.0000000000000000000, -0.0000000000000000000, -1.000000000000000000 ) ) ;
#939 = EDGE_LOOP ( 'NONE', ( #88, #458, #610, #1057 ) ) ;
#940 = ORIENTED_EDGE ( 'NONE', *, *, #617, .T. ) ;
#941 = CARTESIAN_POINT ( 'NONE',  ( -4.860000000000000320, -3.700000000000000178, -2.500000000000000000 ) ) ;
#942 = DIRECTION ( 'NONE',  ( 1.000000000000000000, 0.0000000000000000000, 0.0000000000000000000 ) ) ;
#943 = EDGE_LOOP ( 'NONE', ( #739, #36, #359, #599 ) ) ;
#944 = CARTESIAN_POINT ( 'NONE',  ( 0.2199999999999988354, -3.700000000000000178, -2.500000000000000000 ) ) ;
#945 = VECTOR ( 'NONE', #31, 1000.000000000000000 ) ;
#946 = APPROVAL_PERSON_ORGANIZATION ( #157, #593, #248 ) ;
#947 = CARTESIAN_POINT ( 'NONE',  ( -4.860000000000000320, 0.0000000000000000000, -2.500000000000000000 ) ) ;
#948 = ADVANCED_FACE ( 'NONE', ( #1041 ), #287, .F. ) ;
#949 = EDGE_LOOP ( 'NONE', ( #514, #265, #187, #1040 ) ) ;
#950 = LINE ( 'NONE', #455, #365 ) ;
#951 = LINE ( 'NONE', #772, #115 ) ;
#952 = LINE ( 'NONE', #201, #797 ) ;
#953 = FACE_OUTER_BOUND ( 'NONE', #949, .T. ) ;
#954 = EDGE_CURVE ( 'NONE', #862, #671, #965, .T. ) ;
#955 = ORIENTED_EDGE ( 'NONE', *, *, #193, .F. ) ;
#956 = DIRECTION ( 'NONE',  ( -0.0000000000000000000, 1.000000000000000000, -0.0000000000000000000 ) ) ;
#957 = ORIENTED_EDGE ( 'NONE', *, *, #267, .T. ) ;
#958 = CARTESIAN_POINT ( 'NONE',  ( 5.299999999999998934, -3.700000000000000178, -2.500000000000000000 ) ) ;
#959 = VERTEX_POINT ( 'NONE', #396 ) ;
#960 = EDGE_CURVE ( 'NONE', #871, #854, #1069, .T. ) ;
#961 = VECTOR ( 'NONE', #709, 1000.000000000000000 ) ;
#962 = DIRECTION ( 'NONE',  ( -0.0000000000000000000, 1.000000000000000000, -0.0000000000000000000 ) ) ;
#963 = VECTOR ( 'NONE', #765, 1000.000000000000000 ) ;
#964 = ORIENTED_EDGE ( 'NONE', *, *, #613, .F. ) ;
#965 = LINE ( 'NONE', #213, #605 ) ;
#966 = AXIS2_PLACEMENT_3D ( 'NONE', #714, #134, #781 ) ;
#967 = ORIENTED_EDGE ( 'NONE', *, *, #624, .T. ) ;
#968 = DIRECTION ( 'NONE',  ( 1.000000000000000000, 0.0000000000000000000, 0.0000000000000000000 ) ) ;
#969 = EDGE_CURVE ( 'NONE', #205, #289, #727, .T. ) ;
#970 = LINE ( 'NONE', #211, #767 ) ;
#971 = ORIENTED_EDGE ( 'NONE', *, *, #156, .F. ) ;
#972 = CARTESIAN_POINT ( 'NONE',  ( -7.899999999999999467, -3.700000000000000178, -2.750000000000000444 ) ) ;
#973 = ORIENTED_EDGE ( 'NONE', *, *, #163, .F. ) ;
#974 = CARTESIAN_POINT ( 'NONE',  ( 2.259999999999999787, -3.700000000000000178, -2.500000000000000000 ) ) ;
#975 = FACE_OUTER_BOUND ( 'NONE', #166, .T. ) ;
#976 = PLANE ( 'NONE',  #524 ) ;
#977 = FACE_OUTER_BOUND ( 'NONE', #676, .T. ) ;
#978 = ORIENTED_EDGE ( 'NONE', *, *, #1010, .F. ) ;
#979 = DIRECTION ( 'NONE',  ( -3.469446951953611033E-15, -0.0000000000000000000, 1.000000000000000000 ) ) ;
#980 = VECTOR ( 'NONE', #987, 1000.000000000000000 ) ;
#981 = CARTESIAN_POINT ( 'NONE',  ( 9.750000000000000000, 9.700000000000001066, 3.799999999999999822 ) ) ;
#982 = CARTESIAN_POINT ( 'NONE',  ( 0.2199999999999988354, -3.700000000000000178, -2.500000000000000000 ) ) ;
#983 = ADVANCED_FACE ( 'NONE', ( #314 ), #665, .F. ) ;
#984 = ORIENTED_EDGE ( 'NONE', *, *, #343, .F. ) ;
#985 = LINE ( 'NONE', #556, #586 ) ;
#986 = CARTESIAN_POINT ( 'NONE',  ( -9.750000000000000000, -0.5000000000000000000, 3.799999999999999822 ) ) ;
#987 = DIRECTION ( 'NONE',  ( -3.469446951953611033E-15, -0.0000000000000000000, 1.000000000000000000 ) ) ;
#988 = CARTESIAN_POINT ( 'NONE',  ( -9.250000000000000000, 0.0000000000000000000, -3.799999999999999822 ) ) ;
#989 = EDGE_LOOP ( 'NONE', ( #734, #758, #657, #1027 ) ) ;
#990 = EDGE_CURVE ( 'NONE', #859, #199, #232, .T. ) ;
#991 = CARTESIAN_POINT ( 'NONE',  ( -7.899999999999999467, -3.700000000000000178, -2.500000000000000000 ) ) ;
#992 = CALENDAR_DATE ( 2020, 13, 11 ) ;
#993 = DIRECTION ( 'NONE',  ( 0.0000000000000000000, 0.0000000000000000000, -1.000000000000000000 ) ) ;
#994 = CARTESIAN_POINT ( 'NONE',  ( 2.259999999999999787, -3.700000000000000178, -2.750000000000000444 ) ) ;
#995 = ORIENTED_EDGE ( 'NONE', *, *, #457, .T. ) ;
#996 = DIRECTION ( 'NONE',  ( 0.0000000000000000000, -0.0000000000000000000, 1.000000000000000000 ) ) ;
#997 = ADVANCED_FACE ( 'NONE', ( #809 ), #76, .F. ) ;
#998 = SHAPE_DEFINITION_REPRESENTATION ( #1065, #894 ) ;
#999 = DIRECTION ( 'NONE',  ( 0.0000000000000000000, -1.000000000000000000, 0.0000000000000000000 ) ) ;
#1000 = DIRECTION ( 'NONE',  ( 1.000000000000000000, 0.0000000000000000000, 0.0000000000000000000 ) ) ;
#1001 = ORIENTED_EDGE ( 'NONE', *, *, #417, .T. ) ;
#1002 = VECTOR ( 'NONE', #535, 1000.000000000000000 ) ;
#1003 = VECTOR ( 'NONE', #162, 1000.000000000000000 ) ;
#1004 = DIRECTION ( 'NONE',  ( -1.000000000000000000, 0.0000000000000000000, -0.0000000000000000000 ) ) ;
#1005 = PERSON_AND_ORGANIZATION_ROLE ( 'design_supplier' ) ;
#1006 = CARTESIAN_POINT ( 'NONE',  ( 0.0000000000000000000, -3.700000000000000178, 0.0000000000000000000 ) ) ;
#1007 = EDGE_CURVE ( 'NONE', #127, #334, #479, .T. ) ;
#1008 = CARTESIAN_POINT ( 'NONE',  ( -0.2799999999999998601, 0.0000000000000000000, -2.500000000000000000 ) ) ;
#1009 = VERTEX_POINT ( 'NONE', #988 ) ;
#1010 = EDGE_CURVE ( 'NONE', #854, #1037, #577, .T. ) ;
#1011 = ORIENTED_EDGE ( 'NONE', *, *, #8, .T. ) ;
#1012 = CARTESIAN_POINT ( 'NONE',  ( 4.800000000000000711, -3.700000000000000178, -2.500000000000000000 ) ) ;
#1013 = DIRECTION ( 'NONE',  ( -1.000000000000000000, 0.0000000000000000000, -0.0000000000000000000 ) ) ;
#1014 = DIRECTION ( 'NONE',  ( -4.565061778886335030E-16, -0.0000000000000000000, 1.000000000000000000 ) ) ;
#1015 = EDGE_LOOP ( 'NONE', ( #843, #1054, #485, #794 ) ) ;
#1016 = EDGE_CURVE ( 'NONE', #340, #780, #491, .T. ) ;
#1017 = ORIENTED_EDGE ( 'NONE', *, *, #960, .T. ) ;
#1018 = CARTESIAN_POINT ( 'NONE',  ( 9.749999999999998224, 9.700000000000001066, -3.799999999999999822 ) ) ;
#1019 = AXIS2_PLACEMENT_3D ( 'NONE', #94, #335, #1004 ) ;
#1020 = VECTOR ( 'NONE', #368, 1000.000000000000000 ) ;
#1021 = LINE ( 'NONE', #502, #930 ) ;
#1022 = ORIENTED_EDGE ( 'NONE', *, *, #288, .F. ) ;
#1023 = FACE_OUTER_BOUND ( 'NONE', #480, .T. ) ;
#1024 = DIRECTION ( 'NONE',  ( 0.0000000000000000000, -0.0000000000000000000, -1.000000000000000000 ) ) ;
#1025 = ORIENTED_EDGE ( 'NONE', *, *, #242, .F. ) ;
#1026 = CARTESIAN_POINT ( 'NONE',  ( 5.299999999999998934, 0.0000000000000000000, -2.500000000000000000 ) ) ;
#1027 = ORIENTED_EDGE ( 'NONE', *, *, #573, .F. ) ;
#1028 = ORIENTED_EDGE ( 'NONE', *, *, #990, .F. ) ;
#1029 = VECTOR ( 'NONE', #96, 1000.000000000000000 ) ;
#1030 = PRODUCT ( 'TMH Dual Output', 'TMH Dual Output', '', ( #297 ) ) ;
#1031 = AXIS2_PLACEMENT_3D ( 'NONE', #95, #686, #433 ) ;
#1032 = SECURITY_CLASSIFICATION ( '', '', #662 ) ;
#1033 = EDGE_CURVE ( 'NONE', #340, #371, #407, .T. ) ;
#1034 = DIRECTION ( 'NONE',  ( -0.0000000000000000000, 1.000000000000000000, -0.0000000000000000000 ) ) ;
#1035 = ORIENTED_EDGE ( 'NONE', *, *, #312, .F. ) ;
#1036 = CARTESIAN_POINT ( 'NONE',  ( -9.250000000000001776, -0.5000000000000000000, 3.799999999999999822 ) ) ;
#1037 = VERTEX_POINT ( 'NONE', #889 ) ;
#1038 = LINE ( 'NONE', #944, #1053 ) ;
#1039 = CARTESIAN_POINT ( 'NONE',  ( 4.800000000000000711, -3.700000000000000178, -2.500000000000000000 ) ) ;
#1040 = ORIENTED_EDGE ( 'NONE', *, *, #587, .T. ) ;
#1041 = FACE_OUTER_BOUND ( 'NONE', #777, .T. ) ;
#1042 = EDGE_CURVE ( 'NONE', #628, #558, #706, .T. ) ;
#1043 = EDGE_LOOP ( 'NONE', ( #72, #802, #625, #123 ) ) ;
#1044 = COORDINATED_UNIVERSAL_TIME_OFFSET ( 8, 0, .AHEAD. ) ;
#1045 = LINE ( 'NONE', #947, #945 ) ;
#1046 = ORIENTED_EDGE ( 'NONE', *, *, #352, .F. ) ;
#1047 = LINE ( 'NONE', #866, #720 ) ;
#1048 = ORIENTED_EDGE ( 'NONE', *, *, #130, .F. ) ;
#1049 = ADVANCED_FACE ( 'NONE', ( #626 ), #379, .F. ) ;
#1050 = LINE ( 'NONE', #236, #27 ) ;
#1051 = AXIS2_PLACEMENT_3D ( 'NONE', #256, #19, #1024 ) ;
#1052 = PLANE ( 'NONE',  #718 ) ;
#1053 = VECTOR ( 'NONE', #461, 1000.000000000000000 ) ;
#1054 = ORIENTED_EDGE ( 'NONE', *, *, #647, .T. ) ;
#1055 = FACE_OUTER_BOUND ( 'NONE', #140, .T. ) ;
#1056 = VECTOR ( 'NONE', #571, 1000.000000000000000 ) ;
#1057 = ORIENTED_EDGE ( 'NONE', *, *, #762, .T. ) ;
#1058 = FACE_OUTER_BOUND ( 'NONE', #1015, .T. ) ;
#1059 = CARTESIAN_POINT ( 'NONE',  ( 0.0000000000000000000, 0.0000000000000000000, 0.0000000000000000000 ) ) ;
#1060 = CARTESIAN_POINT ( 'NONE',  ( 5.299999999999999822, -3.700000000000000178, -2.750000000000000444 ) ) ;
#1061 = PLANE ( 'NONE',  #658 ) ;
#1062 = DIRECTION ( 'NONE',  ( -3.469446951953611033E-15, -0.0000000000000000000, 1.000000000000000000 ) ) ;
#1063 = ORIENTED_EDGE ( 'NONE', *, *, #218, .T. ) ;
#1064 = LINE ( 'NONE', #296, #910 ) ;
#1065 = PRODUCT_DEFINITION_SHAPE ( 'NONE', 'NONE',  #233 ) ;
#1066 = PLANE ( 'NONE',  #735 ) ;
#1067 = EDGE_CURVE ( 'NONE', #329, #885, #62, .T. ) ;
#1068 = DIRECTION ( 'NONE',  ( -3.469446951953611033E-15, -0.0000000000000000000, 1.000000000000000000 ) ) ;
#1069 = LINE ( 'NONE', #2, #1056 ) ;
#1070 = VERTEX_POINT ( 'NONE', #216 ) ;
#1071 = DIRECTION ( 'NONE',  ( 0.0000000000000000000, 0.0000000000000000000, 1.000000000000000000 ) ) ;
#1072 = EDGE_CURVE ( 'NONE', #934, #138, #55, .T. ) ;
#1073 = VECTOR ( 'NONE', #784, 1000.000000000000000 ) ;
#1074 = CARTESIAN_POINT ( 'NONE',  ( 4.800000000000000711, 0.0000000000000000000, -2.500000000000000000 ) ) ;
#1075 = CARTESIAN_POINT ( 'NONE',  ( 2.759999999999999343, -3.700000000000000178, -2.750000000000000444 ) ) ;
#1076 = VECTOR ( 'NONE', #561, 1000.000000000000000 ) ;
#1077 = ORIENTED_EDGE ( 'NONE', *, *, #863, .T. ) ;
#1078 = CARTESIAN_POINT ( 'NONE',  ( 2.259999999999999787, -3.700000000000000178, -2.750000000000000444 ) ) ;
#1079 = CARTESIAN_POINT ( 'NONE',  ( 2.259999999999999787, -3.700000000000000178, -2.500000000000000000 ) ) ;
ENDSEC;
END-ISO-10303-21;
