M48
; DRILL file KiCad 10.0.5 date 2026-09-03T14:55:42
; FORMAT={-:-/ absolute / metric / decimal}
; #@! TF.CreationDate,2026-09-03T14:55:42-05:00
; #@! TF.GenerationSoftware,Kicad,Pcbnew,10.0.5
; #@! TF.FileFunction,Plated,1,2,PTH
FMAT,2
METRIC
; #@! TA.AperFunction,Plated,PTH,ViaDrill
T1C0.300
; #@! TA.AperFunction,Plated,PTH,ComponentDrill
T2C0.813
; #@! TA.AperFunction,Plated,PTH,ComponentDrill
T3C0.864
; #@! TA.AperFunction,Plated,PTH,ComponentDrill
T4C0.889
; #@! TA.AperFunction,Plated,PTH,ComponentDrill
T5C0.950
; #@! TA.AperFunction,Plated,PTH,ComponentDrill
T6C1.000
; #@! TA.AperFunction,Plated,PTH,ComponentDrill
T7C1.020
; #@! TA.AperFunction,Plated,PTH,ComponentDrill
T8C1.600
; #@! TA.AperFunction,Plated,PTH,ComponentDrill
T9C1.900
%
G90
G05
T1
X208.962Y-223.737
X209.0Y-177.0
X210.566Y-177.0
X212.09Y-177.292
X215.0Y-158.073
X215.162Y-223.737
X217.678Y-195.783
X219.507Y-199.187
X219.75Y-190.84
X219.812Y-214.782
X220.0Y-181.0
X223.2Y-172.4
X223.266Y-193.2
X223.266Y-201.751
X223.266Y-210.302
X223.266Y-218.853
X223.266Y-225.044
X223.4Y-166.4
X223.4Y-178.2
X225.25Y-184.649
X225.4Y-186.8
X228.346Y-197.104
X228.411Y-183.896
X228.411Y-186.436
X228.558Y-219.99
X229.6Y-162.4
X229.743Y-221.488
X230.111Y-180.848
X230.8Y-174.6
X231.4Y-178.4
X233.0Y-162.6
X233.0Y-165.4
X234.442Y-198.361
X234.442Y-199.911
X234.493Y-206.667
X234.493Y-208.432
X234.6Y-178.4
X234.6Y-192.4
X234.95Y-168.135
X237.112Y-168.656
X237.4Y-178.4
X238.519Y-188.214
X240.538Y-223.266
X240.8Y-225.4
X240.981Y-182.626
X240.981Y-186.436
X241.2Y-178.4
X242.062Y-167.386
X242.062Y-168.656
X242.57Y-187.452
X242.583Y-180.848
X243.2Y-164.2
X243.586Y-173.101
X243.967Y-198.501
X244.0Y-192.4
X244.2Y-187.2
X244.2Y-196.8
X244.2Y-226.0
X244.348Y-167.386
X244.348Y-205.486
X244.348Y-223.266
X244.8Y-162.0
X245.491Y-209.931
X245.8Y-211.8
X245.8Y-221.2
X247.4Y-197.6
X247.4Y-201.6
X247.6Y-192.4
X247.8Y-187.0
X248.4Y-207.4
X249.0Y-174.6
X249.0Y-211.75
X249.2Y-218.2
X249.2Y-225.8
X250.317Y-227.838
X250.4Y-194.6
X250.6Y-188.8
X250.75Y-208.75
X251.25Y-207.01
X251.8Y-182.8
X253.2Y-201.6
X253.6Y-197.4
X254.2Y-194.2
X254.24Y-219.18
X255.4Y-185.2
X256.286Y-158.8
X256.62Y-189.36
X257.0Y-201.2
X257.6Y-165.2
X258.75Y-191.3
X259.378Y-174.708
X260.0Y-205.2
X260.63Y-200.83
X261.0Y-172.2
X261.54Y-208.66
X262.34Y-219.18
X262.8Y-186.4
X262.89Y-191.02
X263.0Y-172.6
X263.12Y-204.02
X263.2Y-197.6
X263.8Y-173.8
X264.2Y-174.6
X265.15Y-189.3
X265.4Y-172.6
X265.66Y-186.04
X265.8Y-194.0
X265.838Y-205.579
X265.838Y-207.129
X266.52Y-202.88
X267.36Y-211.04
X268.2Y-201.4
X268.213Y-206.121
X269.013Y-167.832
X269.241Y-200.406
X269.8Y-189.4
X269.804Y-182.818
X269.804Y-184.088
X270.0Y-197.8
X270.091Y-171.007
X270.44Y-219.18
X270.6Y-204.6
X270.791Y-200.406
X271.0Y-197.0
X271.4Y-165.4
X271.8Y-169.0
X273.163Y-207.391
X273.2Y-172.4
X273.32Y-169.102
X273.504Y-179.832
X273.6Y-174.0
X273.6Y-174.8
X273.963Y-165.292
X274.2Y-194.8
X274.32Y-170.942
X274.754Y-184.088
X274.754Y-185.358
X275.4Y-203.219
X275.4Y-207.6
X275.57Y-201.61
X275.765Y-206.121
X276.2Y-170.6
X276.441Y-163.563
X276.8Y-173.0
X277.203Y-183.492
X277.6Y-198.2
X278.54Y-219.18
X278.6Y-207.0
X278.8Y-205.8
X279.2Y-166.8
X280.2Y-191.6
X280.6Y-172.8
X281.0Y-160.4
X281.686Y-173.736
X282.2Y-210.164
X282.6Y-171.2
X282.6Y-192.8
X282.6Y-197.4
X282.702Y-173.136
X282.8Y-206.2
X283.8Y-166.6
X283.972Y-197.6
X283.972Y-204.99
X284.0Y-191.2
X284.607Y-184.023
X285.0Y-172.0
X285.2Y-188.0
X285.4Y-197.8
X285.46Y-210.2
X285.468Y-189.738
X285.6Y-191.2
X285.75Y-186.69
X285.8Y-179.8
X286.64Y-219.18
X287.233Y-191.275
X287.78Y-197.82
X288.8Y-162.8
X288.8Y-175.0
X289.265Y-184.15
X289.265Y-187.96
X289.4Y-189.6
X290.2Y-182.8
X290.25Y-225.5
X292.0Y-196.0
X292.4Y-181.2
X293.6Y-172.2
X293.6Y-193.2
X293.8Y-175.2
X294.2Y-181.2
X294.6Y-195.0
X295.315Y-187.173
X295.315Y-188.443
X296.4Y-179.2
X296.4Y-183.0
X298.0Y-186.0
X298.6Y-175.0
X299.0Y-193.6
X299.4Y-190.8
X300.265Y-184.633
X300.265Y-188.443
X302.565Y-186.449
X302.8Y-191.8
X303.0Y-182.6
X303.0Y-209.0
X303.0Y-225.0
X303.2Y-165.0
X303.2Y-168.4
X303.2Y-171.8
X304.2Y-178.4
X305.562Y-188.59
X305.6Y-175.0
X306.0Y-199.8
X306.578Y-194.056
X306.578Y-196.2
X306.578Y-225.5
X307.0Y-160.4
X307.34Y-193.2
X307.34Y-196.596
X307.8Y-227.8
X308.2Y-219.0
X308.6Y-204.0
X308.6Y-210.0
X308.8Y-196.4
X308.8Y-199.6
X309.0Y-193.0
X309.15Y-189.15
X309.221Y-215.457
X310.6Y-160.2
X310.6Y-174.4
X311.2Y-209.8
X312.0Y-196.4
X313.6Y-193.4
X314.0Y-159.4
X314.0Y-173.0
X314.198Y-218.966
X314.96Y-177.292
X315.0Y-199.6
X315.6Y-160.2
X315.8Y-183.8
X315.8Y-203.4
X316.19Y-212.18
X316.2Y-173.4
X316.4Y-196.4
X317.2Y-188.2
X317.4Y-200.0
X317.91Y-224.96
X318.0Y-176.2
X318.4Y-183.2
X318.4Y-202.8
X318.49Y-220.918
X318.6Y-193.4
X318.619Y-204.903
X318.619Y-206.453
X318.723Y-211.774
X319.0Y-191.4
X319.2Y-209.2
X319.4Y-196.85
X319.532Y-197.866
X320.04Y-220.918
X320.4Y-181.4
X320.613Y-218.251
X320.932Y-206.186
X321.6Y-181.0
X322.0Y-195.6
X322.995Y-168.605
X323.088Y-196.596
X323.088Y-216.346
X323.342Y-182.692
X323.4Y-203.2
X323.445Y-199.582
X323.6Y-212.8
X324.079Y-171.907
X324.4Y-175.2
X325.0Y-181.4
X325.2Y-195.2
X325.563Y-214.441
X325.563Y-218.251
X325.6Y-166.2
X325.725Y-193.5
X325.882Y-202.376
X325.882Y-206.186
X326.2Y-224.6
X326.4Y-182.6
X326.885Y-178.374
X327.0Y-201.0
X327.945Y-166.065
X327.945Y-169.875
X328.0Y-209.4
X328.142Y-214.314
X328.292Y-180.153
X328.292Y-183.963
X328.4Y-160.4
X328.422Y-176.53
X328.435Y-178.374
X328.6Y-195.0
X328.6Y-217.4
X328.6Y-220.8
X329.0Y-205.2
X329.6Y-199.6
X329.692Y-214.314
X330.491Y-164.274
X330.708Y-181.78
X331.0Y-217.4
X331.0Y-220.6
X331.62Y-213.92
X331.8Y-196.0
X333.025Y-185.6
X334.0Y-224.6
X334.2Y-160.4
X335.0Y-193.0
X336.2Y-171.6
X336.4Y-188.0
X336.6Y-208.6
X336.8Y-191.2
X337.566Y-185.105
X338.0Y-177.8
X338.24Y-221.4
X338.6Y-194.2
X339.103Y-188.28
X339.4Y-162.6
X340.0Y-191.4
X340.47Y-213.75
X340.868Y-188.267
X340.868Y-189.817
X341.2Y-193.8
X341.6Y-165.2
X341.8Y-171.4
X342.0Y-198.6
X342.2Y-202.6
X342.516Y-182.565
X342.516Y-186.375
X342.6Y-212.8
X342.67Y-218.34
X342.68Y-199.56
X342.8Y-180.4
X344.0Y-196.6
X344.17Y-173.482
X344.424Y-172.72
X344.8Y-170.6
X345.0Y-182.8
X345.2Y-165.0
X345.313Y-172.085
X345.38Y-214.37
X345.6Y-190.8
X345.6Y-204.4
X345.8Y-194.4
X346.0Y-197.2
X346.16Y-210.34
X346.4Y-183.2
X347.35Y-221.44
X347.37Y-213.68
X347.39Y-217.39
X347.54Y-207.97
X347.8Y-180.6
X347.8Y-183.4
X348.2Y-197.0
X348.2Y-200.4
X348.2Y-204.4
X348.4Y-193.6
X348.6Y-190.0
X349.8Y-180.0
X350.0Y-183.2
X350.52Y-178.435
X351.0Y-180.6
X351.6Y-174.0
X351.8Y-189.8
X352.0Y-192.8
X352.0Y-196.4
X352.0Y-200.4
X352.0Y-225.0
X352.09Y-209.7
X352.41Y-215.71
X352.6Y-204.2
X352.6Y-207.8
X353.314Y-176.022
X353.568Y-188.2
X354.8Y-176.6
X355.2Y-170.6
X355.4Y-160.4
X355.4Y-178.4
X356.8Y-184.2
X357.2Y-189.2
X357.25Y-225.25
X358.2Y-209.8
X358.2Y-211.0
X359.0Y-193.8
X359.0Y-200.4
X359.4Y-209.0
X359.6Y-164.6
X360.2Y-189.2
X360.4Y-187.6
X360.8Y-160.4
X360.8Y-192.4
X361.2Y-204.2
X361.2Y-208.2
X361.6Y-179.8
X361.8Y-194.6
X362.0Y-185.0
X362.0Y-200.8
X362.4Y-192.4
X362.713Y-205.873
X362.8Y-187.6
X363.25Y-225.25
X363.684Y-182.829
X363.766Y-189.179
X363.891Y-186.624
X363.906Y-172.288
X363.962Y-192.496
X364.613Y-208.147
X364.8Y-212.8
X365.4Y-190.8
X365.4Y-196.0
X365.6Y-176.2
X365.6Y-201.4
X366.0Y-157.8
X366.4Y-209.4
X367.0Y-181.8
X367.4Y-208.0
X367.8Y-179.0
X368.0Y-173.0
X368.0Y-186.4
X368.2Y-181.8
X368.4Y-216.4
X368.8Y-189.6
X369.8Y-201.0
X370.2Y-180.2
X370.25Y-225.25
X370.4Y-194.2
X370.571Y-208.249
X370.8Y-211.2
X371.4Y-160.6
X371.497Y-173.297
X371.8Y-176.6
X372.0Y-203.2
X372.0Y-216.8
X372.0Y-221.0
X372.2Y-162.4
X372.249Y-165.326
X373.0Y-194.4
X373.558Y-170.891
X373.6Y-206.0
X373.8Y-208.8
X374.431Y-216.947
X374.431Y-220.757
X374.8Y-160.0
X375.4Y-214.8
X375.5Y-225.25
X375.896Y-163.779
X376.2Y-212.6
X376.25Y-172.0
X376.4Y-217.0
X377.303Y-165.43
X378.0Y-209.0
X378.2Y-212.6
X378.6Y-215.6
X379.381Y-216.947
X379.5Y-225.25
X379.908Y-164.655
X379.908Y-166.205
X379.908Y-169.899
X380.0Y-222.0
X380.24Y-214.884
X380.4Y-160.2
X382.25Y-224.5
X382.74Y-178.48
X383.3Y-211.127
X383.4Y-208.6
X383.8Y-216.4
X384.6Y-160.2
X384.8Y-194.2
X385.8Y-170.6
X386.6Y-205.2
X387.11Y-189.05
X388.2Y-197.6
X388.4Y-192.0
X388.6Y-207.4
X389.0Y-225.8
X389.4Y-170.4
X389.5Y-223.75
X389.6Y-179.0
X389.6Y-190.6
X389.6Y-196.2
X389.6Y-201.6
X389.6Y-218.5
X391.2Y-211.0
X392.2Y-196.2
X392.4Y-191.2
X392.862Y-180.162
X392.991Y-175.995
X393.852Y-223.622
X394.2Y-186.2
X394.4Y-196.2
X394.6Y-212.0
X394.64Y-180.162
X394.8Y-177.0
X394.894Y-175.603
X395.4Y-201.2
X396.4Y-170.6
X396.6Y-220.2
X396.8Y-174.0
X397.0Y-180.4
X397.0Y-186.4
X397.0Y-210.6
X397.2Y-191.4
X397.4Y-196.2
X397.6Y-205.2
X397.891Y-228.041
X398.2Y-198.0
X398.374Y-220.5
X401.0Y-188.2
X401.561Y-214.844
X401.561Y-216.394
X401.7Y-173.7
X401.8Y-163.2
X401.8Y-201.0
X401.89Y-177.75
X402.19Y-183.02
X403.4Y-166.6
X403.655Y-183.21
X403.723Y-214.095
X403.8Y-192.0
X404.0Y-170.2
X404.4Y-173.6
X405.189Y-157.8
X406.0Y-208.4
X407.162Y-166.36
X407.46Y-180.13
X408.6Y-160.8
X408.6Y-163.4
X408.673Y-211.555
X409.376Y-170.688
X409.376Y-171.958
X409.448Y-228.244
X409.63Y-181.61
X410.75Y-226.5
X411.189Y-194.182
X411.226Y-209.777
X412.01Y-226.21
X412.359Y-214.095
X412.359Y-215.365
X412.75Y-170.18
X413.28Y-184.75
X413.4Y-183.2
X414.0Y-160.6
X414.326Y-168.148
X414.58Y-177.8
X414.58Y-181.61
X414.6Y-207.4
X414.78Y-223.9
X414.985Y-228.498
X415.75Y-184.5
X415.75Y-226.75
X416.687Y-174.371
X416.866Y-181.483
X416.941Y-166.23
X417.309Y-215.365
X417.322Y-211.555
X418.0Y-198.12
X418.084Y-180.594
X418.2Y-188.0
X418.48Y-193.63
X418.6Y-182.6
X418.6Y-184.2
X418.719Y-167.894
X418.84Y-223.89
X418.847Y-171.958
X419.1Y-218.84
X419.608Y-209.777
X419.795Y-216.89
X419.862Y-190.754
X420.0Y-162.75
X420.219Y-199.39
X420.624Y-169.164
X420.904Y-175.768
X421.66Y-216.74
X421.679Y-178.308
X421.822Y-184.15
X421.822Y-190.5
X422.044Y-199.39
X422.4Y-208.6
X422.656Y-193.04
X422.656Y-210.312
X422.93Y-219.95
X422.95Y-213.16
X423.27Y-224.52
X423.281Y-172.085
X423.281Y-174.625
X423.6Y-190.4
X423.75Y-212.0
X423.926Y-184.531
X424.929Y-170.307
X425.069Y-189.992
X425.25Y-182.75
X425.25Y-208.5
X425.45Y-181.2
X425.657Y-202.565
X426.4Y-192.2
X426.479Y-170.307
X426.72Y-196.088
X426.772Y-185.42
X426.772Y-186.69
X426.772Y-189.23
X427.0Y-181.2
X427.2Y-220.6
X428.0Y-167.5
X428.231Y-172.085
X429.0Y-206.25
X429.63Y-215.09
X429.641Y-185.42
X430.0Y-181.0
X430.06Y-225.71
X430.4Y-220.6
X430.53Y-177.97
X432.17Y-226.22
X432.5Y-218.0
X433.0Y-220.0
X433.371Y-185.171
X433.75Y-171.75
X433.775Y-178.5
X434.0Y-211.25
X434.087Y-166.25
X434.213Y-183.261
X434.467Y-191.185
X435.39Y-224.42
X435.5Y-182.5
X435.825Y-170.5
X435.912Y-166.25
X437.25Y-182.2
X437.5Y-176.05
X437.5Y-213.0
X438.25Y-168.25
X438.25Y-179.75
X438.277Y-196.667
X438.364Y-201.893
X438.5Y-165.5
X438.679Y-214.072
X438.679Y-215.622
X439.25Y-228.5
X439.5Y-168.25
X440.401Y-210.681
X440.5Y-221.25
X441.5Y-176.088
X441.5Y-215.25
X442.743Y-209.5
X442.743Y-210.77
X442.877Y-196.667
X442.936Y-201.893
X443.25Y-176.1
X443.75Y-213.75
X444.0Y-179.25
X444.25Y-162.75
X445.46Y-190.0
X446.04Y-164.01
X446.75Y-168.5
X447.0Y-165.0
X447.25Y-171.4
X447.693Y-203.15
X447.693Y-210.77
X447.75Y-228.25
X448.2Y-173.0
X448.75Y-191.55
X449.855Y-207.7
X450.25Y-228.5
X453.0Y-225.75
X453.077Y-211.067
X453.25Y-218.25
X453.277Y-205.067
X454.175Y-172.575
X455.125Y-225.875
X455.688Y-163.46
T2
X231.302Y-196.049
X231.302Y-198.589
X231.302Y-203.669
X231.302Y-206.209
X231.302Y-208.749
T3
X228.549Y-218.542
X231.089Y-218.542
X233.629Y-218.542
T4
X234.429Y-176.463
X236.969Y-176.463
X239.51Y-176.463
X257.124Y-199.257
X257.378Y-180.273
X259.664Y-199.257
X259.918Y-180.273
X262.204Y-199.257
X262.458Y-180.273
X269.57Y-191.45
X272.11Y-191.45
X274.65Y-191.45
X281.673Y-211.82
X284.214Y-211.82
X286.753Y-211.82
X292.443Y-207.045
X294.983Y-207.045
X297.523Y-207.045
X309.209Y-197.992
X311.138Y-178.495
X311.749Y-197.992
X313.678Y-178.495
X314.289Y-197.992
X316.218Y-178.495
X322.479Y-189.417
X325.019Y-189.417
X326.957Y-222.593
X327.559Y-189.417
X329.498Y-222.593
X332.037Y-222.593
X333.604Y-210.464
X336.144Y-210.464
X338.684Y-210.464
X344.31Y-206.029
X346.85Y-206.029
X349.39Y-206.029
X379.047Y-176.444
X379.23Y-185.26
X381.587Y-176.444
X381.77Y-185.26
X384.127Y-176.444
X384.31Y-185.26
X394.564Y-221.945
X397.104Y-221.945
X399.644Y-221.945
X406.859Y-188.081
X409.399Y-188.081
X410.667Y-221.945
X411.939Y-188.081
X413.207Y-221.945
X415.747Y-221.945
X426.352Y-221.945
X428.892Y-221.945
X431.432Y-221.945
T5
X448.919Y-167.045
X448.919Y-169.545
X452.119Y-167.045
X452.119Y-169.545
T6
X258.724Y-163.525
X258.724Y-166.065
X258.724Y-168.605
X261.264Y-163.525
X261.264Y-166.065
X261.264Y-168.605
X280.251Y-199.898
X280.251Y-202.438
X282.791Y-199.898
X282.791Y-202.438
X300.99Y-195.885
X300.99Y-198.425
X300.99Y-200.965
X312.776Y-163.627
X312.776Y-166.167
X312.776Y-168.707
X312.776Y-171.247
X315.316Y-163.627
X315.316Y-166.167
X315.316Y-168.707
X315.316Y-171.247
X333.502Y-198.058
X333.502Y-200.598
X333.502Y-203.138
X336.042Y-198.058
X336.042Y-200.598
X336.042Y-203.138
X363.438Y-214.63
X363.438Y-217.17
X363.438Y-219.71
X363.438Y-222.25
X363.906Y-165.176
X363.906Y-167.716
X363.906Y-170.256
X365.978Y-214.63
X365.978Y-217.17
X365.978Y-219.71
X365.978Y-222.25
X366.446Y-165.176
X366.446Y-167.716
X366.446Y-170.256
X366.674Y-198.78
X369.214Y-198.78
X371.754Y-198.78
X431.344Y-187.198
X431.344Y-189.738
X431.344Y-194.338
X431.344Y-196.878
X433.884Y-187.198
X433.884Y-189.738
X433.884Y-194.338
X433.884Y-196.878
X437.96Y-190.0
X440.5Y-190.0
X443.04Y-190.0
T7
X207.264Y-163.017
X207.264Y-175.717
X213.614Y-169.367
X219.964Y-163.017
X219.964Y-175.717
X449.96Y-184.42
X449.96Y-186.96
X449.96Y-189.5
X452.5Y-184.42
X452.5Y-186.96
X452.5Y-189.5
T8
X225.298Y-161.925
X225.825Y-168.625
X226.0Y-176.0
X231.292Y-171.145
X233.934Y-189.484
X238.252Y-196.003
X238.252Y-200.66
X238.252Y-205.317
X238.252Y-209.973
X238.252Y-214.63
X246.634Y-173.228
X247.345Y-164.135
X252.2Y-176.4
X259.588Y-187.452
X269.5Y-214.75
X281.267Y-176.66
X281.788Y-163.424
X281.788Y-168.25
X286.347Y-176.66
X291.173Y-176.66
X296.367Y-176.682
X301.07Y-212.89
X301.07Y-218.29
X306.88Y-184.34
X309.66Y-223.28
X313.75Y-208.31
X313.893Y-185.928
X333.705Y-164.592
X333.705Y-169.164
X335.445Y-176.406
X340.779Y-176.406
X346.202Y-176.406
X350.012Y-166.319
X350.48Y-213.47
X350.48Y-217.8
X350.48Y-222.13
X359.334Y-175.438
X370.8Y-214.4
X387.604Y-165.252
X390.95Y-193.541
X391.008Y-198.679
X392.89Y-214.23
X395.884Y-198.649
X396.037Y-193.751
X398.4Y-208.28
X404.09Y-177.8
X404.165Y-161.747
X404.266Y-195.885
X404.724Y-200.304
X425.755Y-165.75
X426.81Y-213.53
X430.25Y-165.75
X432.0Y-209.25
X440.842Y-164.135
X441.0Y-170.25
X449.75Y-222.0
X450.0Y-214.25
X450.75Y-201.0
T9
X451.409Y-162.295
X451.409Y-174.295
M30
